<svg xmlns="http://www.w3.org/2000/svg" viewBox="0 0 470 470" width="512" height="512"><g fill="#ffd740"><path d="M235 416c99.804 0 181-81.196 181-181S334.804 54 235 54 54 135.196 54 235s81.196 181 181 181zm0-347c91.532 0 166 74.467 166 166s-74.468 166-166 166S69 326.533 69 235 143.468 69 235 69z"/><path d="M140.521 403.334C79.751 369.15 42 304.648 42 235c0-51.604 20.11-100.105 56.627-136.57a7.498 7.498 0 0 0 .007-10.606 7.498 7.498 0 0 0-10.606-.008C48.674 127.114 27 179.385 27 235c0 75.06 40.681 144.571 106.167 181.408a7.5 7.5 0 0 0 10.214-2.859 7.502 7.502 0 0 0-2.86-10.215zm160.084 13.231C279.61 424.153 257.537 428 235 428c-22.535 0-44.605-3.846-65.598-11.432a7.5 7.5 0 0 0-5.098 14.108C186.936 438.854 210.722 443 235 443c24.28 0 48.068-4.147 70.703-12.327a7.5 7.5 0 0 0-5.098-14.108zm81.367-328.75a7.5 7.5 0 0 0-10.599 10.614C407.89 134.894 428 183.396 428 235c0 69.649-37.752 134.152-98.522 168.336a7.5 7.5 0 0 0 3.684 14.038 7.464 7.464 0 0 0 3.67-.965C402.318 379.573 443 310.061 443 235c0-55.615-21.674-107.887-61.028-147.185zM121.093 71.782l22.057-1.631a7.5 7.5 0 0 0 5.379-2.89l10.919-14.11 17.703 2.206a7.51 7.51 0 0 0 5.839-1.774l13.485-11.684 16.926 5.648a7.496 7.496 0 0 0 6.081-.595L235 38.128l15.517 8.825a7.504 7.504 0 0 0 6.082.595l16.927-5.648 13.485 11.684a7.496 7.496 0 0 0 5.839 1.774l17.703-2.206 10.919 14.11a7.5 7.5 0 0 0 5.379 2.89l22.057 1.631a7.5 7.5 0 0 0 1.106-14.959L331.29 55.44 319.8 40.59a7.492 7.492 0 0 0-6.859-2.853l-18.632 2.321-14.191-12.295a7.499 7.499 0 0 0-7.285-1.446l-17.808 5.942-16.316-9.279a7.496 7.496 0 0 0-7.415 0l-16.318 9.279-17.807-5.942a7.502 7.502 0 0 0-7.285 1.446l-14.191 12.295-18.632-2.321a7.49 7.49 0 0 0-6.859 2.853l-11.489 14.848-18.724 1.384a7.5 7.5 0 0 0 1.104 14.96z"/><path d="M401.17 68.83C356.784 24.444 297.771 0 235 0S113.216 24.444 68.83 68.83C24.444 113.215 0 172.229 0 235s24.444 121.785 68.83 166.17C113.216 445.556 172.229 470 235 470s121.784-24.444 166.17-68.83C445.556 356.785 470 297.771 470 235s-24.444-121.785-68.83-166.17zM235 455c-121.309 0-220-98.691-220-220S113.691 15 235 15s220 98.691 220 220-98.691 220-220 220z"/><path d="M110.323 213.251c19.135 2.755 28.215 5.611 37.828 8.635 8.466 2.663 17.186 5.404 32.621 7.995a54.834 54.834 0 0 0-.248 5.119c0 1.424.072 2.831.18 4.228-14.576 4.291-22.976 5.514-31.796 6.794-10.126 1.469-20.596 2.988-40.19 9.174a7.5 7.5 0 1 0 4.515 14.304c18.436-5.819 27.855-7.186 37.828-8.633 8.781-1.273 17.831-2.59 32.855-6.95a54.207 54.207 0 0 0 4.008 8.444c-11.275 10.195-18.314 14.943-25.708 19.924-8.485 5.717-17.259 11.628-32.229 25.703a7.5 7.5 0 0 0-.326 10.602 7.478 7.478 0 0 0 5.465 2.363 7.474 7.474 0 0 0 5.137-2.036c14.084-13.242 21.979-18.561 30.336-24.191 7.364-4.962 14.952-10.078 26.614-20.542a54.732 54.732 0 0 0 7.246 5.901c-5.736 14.078-10.016 21.402-14.516 29.098-5.165 8.832-10.505 17.965-17.886 37.142a7.499 7.499 0 0 0 6.997 10.195 7.502 7.502 0 0 0 7.001-4.808c6.944-18.042 11.749-26.259 16.836-34.958 4.48-7.661 9.093-15.554 15.055-30.027a53.967 53.967 0 0 0 9.099 2.163c.939 15.161.26 23.613-.455 32.496-.82 10.199-1.669 20.745.001 41.225a7.502 7.502 0 0 0 8.085 6.866 7.5 7.5 0 0 0 6.866-8.085c-1.572-19.269-.809-28.757 0-38.802.712-8.847 1.444-17.959.536-33.587a54.051 54.051 0 0 0 9.139-1.99c7.42 13.245 10.48 21.158 13.689 29.47 3.685 9.544 7.496 19.414 17.886 37.141a7.496 7.496 0 0 0 10.264 2.677 7.5 7.5 0 0 0 2.678-10.263c-9.776-16.678-13.205-25.558-16.835-34.959-3.197-8.282-6.497-16.816-14.099-30.507a54.817 54.817 0 0 0 7.344-5.77c12.455 8.728 18.652 14.535 25.155 20.637 7.462 7 15.177 14.239 32.23 25.702a7.495 7.495 0 0 0 10.408-2.041 7.5 7.5 0 0 0-2.041-10.409c-16.044-10.785-22.985-17.297-30.334-24.192-6.473-6.072-13.146-12.329-25.93-21.361a54.38 54.38 0 0 0 4.127-8.39c14.998 2.458 23.089 5.002 31.593 7.676 9.76 3.07 19.852 6.244 40.189 9.172a7.502 7.502 0 0 0 8.493-6.354 7.5 7.5 0 0 0-6.354-8.492c-19.135-2.755-28.215-5.611-37.828-8.635-8.466-2.663-17.186-5.404-32.621-7.995.158-1.687.248-3.392.248-5.119a54.76 54.76 0 0 0-.18-4.228c14.576-4.291 22.976-5.514 31.796-6.794 10.126-1.469 20.596-2.988 40.19-9.174a7.5 7.5 0 1 0-4.515-14.304c-18.436 5.819-27.855 7.186-37.828 8.633-8.781 1.273-17.831 2.59-32.855 6.95a54.218 54.218 0 0 0-4.008-8.445c4.527-4.09 8.735-7.63 12.763-10.737a7.5 7.5 0 1 0-9.163-11.877c-4.102 3.165-8.359 6.733-12.886 10.794a54.83 54.83 0 0 0-7.248-5.903c5.736-14.078 10.016-21.402 14.516-29.098 5.165-8.832 10.505-17.965 17.886-37.142a7.499 7.499 0 0 0-4.305-9.693 7.496 7.496 0 0 0-9.693 4.306c-6.944 18.042-11.749 26.259-16.836 34.958-4.48 7.661-9.093 15.554-15.055 30.027a53.967 53.967 0 0 0-9.099-2.163c-.939-15.161-.26-23.613.455-32.496.82-10.199 1.669-20.745-.001-41.225-.337-4.128-3.956-7.205-8.085-6.865a7.5 7.5 0 0 0-6.866 8.085c1.572 19.269.809 28.757 0 38.802-.712 8.847-1.444 17.959-.536 33.587a54.051 54.051 0 0 0-9.139 1.99c-7.42-13.245-10.48-21.158-13.689-29.47-3.685-9.544-7.496-19.414-17.886-37.141a7.5 7.5 0 1 0-12.942 7.585c9.776 16.678 13.205 25.558 16.835 34.959 3.197 8.282 6.497 16.816 14.099 30.507a54.817 54.817 0 0 0-7.344 5.77c-12.455-8.728-18.652-14.535-25.155-20.637-7.462-7-15.177-14.239-32.23-25.702a7.501 7.501 0 0 0-8.367 12.45c16.044 10.785 22.985 17.297 30.334 24.192 6.473 6.072 13.146 12.329 25.93 21.361a54.38 54.38 0 0 0-4.127 8.39c-14.998-2.458-23.089-5.002-31.593-7.676-9.76-3.07-19.852-6.244-40.189-9.172a7.499 7.499 0 1 0-2.14 14.846zM235 195.524c21.767 0 39.476 17.708 39.476 39.476S256.767 274.476 235 274.476 195.524 256.767 195.524 235s17.709-39.476 39.476-39.476z"/><path d="M315.384 180.71a7.471 7.471 0 0 0 4.511-1.513c6.349-4.789 12.742-10.25 20.119-17.185a7.501 7.501 0 0 0-10.276-10.929c-6.973 6.556-12.971 11.684-18.877 16.138a7.5 7.5 0 0 0 4.523 13.489zm-94.973 53.658h7.089v6.595c0 4.142 3.357 7.5 7.5 7.5s7.5-3.358 7.5-7.5v-6.595h7.089c4.143 0 7.5-3.358 7.5-7.5s-3.357-7.5-7.5-7.5h-29.178a7.5 7.5 0 0 0 0 15z"/></g></svg>