<svg id="Capa_1" xmlns="http://www.w3.org/2000/svg" viewBox="0 0 360 360"><style>.st0{fill:#9e9e9e}</style><path class="st0" d="M201.7 173.9c13.2-14.9 13.8-40.8 13.5-43.6v-.2c-.9-18.3-9.4-27-16.4-31-5.3-3.1-11.5-4.7-18.4-4.8h-.5c-3.9 0-11.3.6-18.4 4.7-7.1 4.1-15.8 12.7-16.6 31.1v.2c-.3 2.9.3 28.7 13.5 43.6 5.8 6.6 11.2 10.1 21.1 10.2h1.1c9.8 0 15.2-3.5 21.1-10.2zm-21.8 5.7h-.2c-8.9-.1-13.1-2.9-18.1-8.7-11.6-13-12.6-36.8-12.4-40 0-.2 0-.4.1-.4 1.3-29.1 23.6-31.4 30.3-31.4h.4c8.7.2 29.1 3.6 30.4 31.5v.1c0 .3.3 26.2-12.4 40.3-5.1 5.8-9.3 8.6-18.1 8.7zM255 232v-1.1c-.2-7.2-.7-22.2-14.7-27.1-.1 0-.2-.1-.3-.1-17.2-4.4-39-14.1-39.2-14.2-.4-.3-1.1-.4-1.6-.4-.6.1-1.1.4-1.5 1-.4.5-.4 1.1-.4 1.7s.4 1.1 1 1.5c.2.1 22.6 10.2 40.4 14.8l.3.1c10.9 3.9 11.3 16.2 11.5 22.8v1c0 3.5-.2 8.7-.8 11.8l-.3 1.1-1.1.6C242 249.2 215.9 261 180 261c-35.7 0-62-11.7-68.4-15.3l-1.1-.6-.3-1.1c-.6-3.2-.9-8.5-.8-11.9v-.9c.2-6.7.6-19.1 11.5-22.9l.3-.1c15.7-4.1 36.7-12.4 40.3-14.7l.2-.1c1.1-.7 1.2-2.1.5-3.2-.4-.5-.9-.9-1.5-1-.6-.1-1.2 0-1.7.4-.1.1-22.1 9.9-39.2 14.2-.1 0-.1 0-.2.1-14 4.9-14.6 19.8-14.7 27.1v1.1c-.1 4.1.2 11.8 1.7 15.5.2.4.4.8.9 1.1.4.2 28.8 17 72.6 17 41.8 0 69.8-15.3 72.5-17 .4-.3.7-.6.9-1.1 1.4-3.8 1.6-11.9 1.5-15.6z"/></svg>