<svg xmlns="http://www.w3.org/2000/svg" viewBox="0 0 512 512" width="512" height="512"><path d="M160 170.667H96a10.66 10.66 0 0 0-10.667 10.667v85.333A10.66 10.66 0 0 0 96 277.334h64a10.66 10.66 0 0 0 10.667-10.667v-85.333A10.66 10.66 0 0 0 160 170.667zM149.333 256h-42.667v-64h42.667v64zM288 106.667h-64a10.66 10.66 0 0 0-10.667 10.667v149.333A10.66 10.66 0 0 0 224 277.334h64a10.66 10.66 0 0 0 10.667-10.667V117.333A10.66 10.66 0 0 0 288 106.667zM277.333 256h-42.667V128h42.667v128zM416 64h-64a10.66 10.66 0 0 0-10.667 10.667v192A10.66 10.66 0 0 0 352 277.334h64a10.66 10.66 0 0 0 10.667-10.667v-192A10.66 10.66 0 0 0 416 64zm-10.667 192h-42.667V85.333h42.667V256z"/><path d="M469.333 21.333H42.667C19.135 21.333 0 40.469 0 64v298.667c0 23.531 19.135 42.667 42.667 42.667h149.362c-.46 17.052-3.728 44.306-15.893 57.104-4.469 4.708-9.604 6.896-16.135 6.896a10.66 10.66 0 0 0-10.667 10.667 10.66 10.66 0 0 0 10.667 10.667h192a10.66 10.66 0 0 0 10.667-10.667 10.66 10.66 0 0 0-10.667-10.667c-6.531 0-11.667-2.188-16.135-6.896-12.165-12.798-15.434-40.052-15.893-57.104h149.362c23.531 0 42.667-19.135 42.667-42.667V64c-.002-23.531-19.137-42.667-42.669-42.667zm-271.604 448c12.881-19.749 15.374-48.188 15.695-64h85.151c.322 15.813 2.814 44.251 15.695 64H197.729zm292.938-106.666c0 11.76-9.573 21.333-21.333 21.333H42.667c-11.76 0-21.333-9.573-21.333-21.333V320h469.333v42.667zm0-64H21.333V64c0-11.76 9.573-21.333 21.333-21.333h426.667c11.76 0 21.333 9.573 21.333 21.333v234.667z"/><circle cx="256" cy="352" r="21.333"/></svg>