<?xml version="1.0" encoding="utf-8"?>
<!-- Generator: Adobe Illustrator 16.0.0, SVG Export Plug-In . SVG Version: 6.00 Build 0)  -->
<!DOCTYPE svg PUBLIC "-//W3C//DTD SVG 1.0//EN" "http://www.w3.org/TR/2001/REC-SVG-20010904/DTD/svg10.dtd">
<svg version="1.0" id="Layer_1" xmlns="http://www.w3.org/2000/svg" xmlns:xlink="http://www.w3.org/1999/xlink" x="0px" y="0px"
	 width="94px" height="94px" viewBox="0 0 94 94" enable-background="new 0 0 94 94" xml:space="preserve">
<g>
	<path fill="#117BC7" d="M88.6,5.069H5.514C2.474,5.069,0,7.542,0,10.583v58.821c0,3.04,2.474,5.515,5.514,5.515h41.572
		c2.407,8.477,10.218,14.705,19.455,14.705c9.239,0,17.049-6.229,19.455-14.705H88.6c3.041,0,5.514-2.475,5.514-5.515V10.583
		C94.113,7.542,91.641,5.069,88.6,5.069L88.6,5.069z M66.541,85.947c-9.121,0-16.544-7.422-16.544-16.543
		c0-9.122,7.423-16.543,16.544-16.543c9.122,0,16.544,7.421,16.544,16.543C83.085,78.525,75.663,85.947,66.541,85.947L66.541,85.947
		z M90.438,69.404c0,1.015-0.826,1.839-1.838,1.839h-1.923c0.054-0.607,0.084-1.22,0.084-1.839c0-11.148-9.07-20.219-20.22-20.219
		s-20.22,9.07-20.22,20.219c0,0.619,0.03,1.231,0.085,1.839H5.514c-1.013,0-1.838-0.824-1.838-1.839V21.612h86.761V69.404z
		 M90.438,17.937H3.676v-7.353c0-1.013,0.825-1.838,1.838-1.838H88.6c1.012,0,1.838,0.825,1.838,1.838V17.937z M90.438,17.937"/>
	<path fill="#FFD640" d="M10.65,11.502h-0.207c-1.015,0-1.838,0.824-1.838,1.838c0,1.015,0.823,1.838,1.838,1.838h0.207
		c1.015,0,1.838-0.823,1.838-1.838C12.489,12.326,11.665,11.502,10.65,11.502L10.65,11.502z M10.65,11.502"/>
	<path fill="#FFD640" d="M18.003,11.502h-0.208c-1.016,0-1.838,0.824-1.838,1.838c0,1.015,0.822,1.838,1.838,1.838h0.208
		c1.015,0,1.838-0.823,1.838-1.838C19.841,12.326,19.019,11.502,18.003,11.502L18.003,11.502z M18.003,11.502"/>
	<path fill="#FFD640" d="M25.356,11.502H25.15c-1.017,0-1.838,0.824-1.838,1.838c0,1.015,0.821,1.838,1.838,1.838h0.206
		c1.015,0,1.838-0.823,1.838-1.838C27.194,12.326,26.371,11.502,25.356,11.502L25.356,11.502z M25.356,11.502"/>
	<path fill="#FFD640" d="M74.922,61.56c-0.964,0-2.622-0.842-2.933-2.003c-0.216-0.804-0.943-1.362-1.775-1.362h-7.346
		c-0.831,0-1.56,0.559-1.775,1.362c-0.312,1.161-1.968,2.003-2.933,2.003c-1.016,0-1.838,0.822-1.838,1.837v4.205
		c0,8.978,8.124,13.013,10.219,13.013c2.097,0,10.219-4.035,10.219-13.013v-4.205C76.76,62.382,75.938,61.56,74.922,61.56
		L74.922,61.56z M66.541,76.916c-1.172-0.337-6.544-3.021-6.544-9.314v-2.656c1.595-0.484,3.171-1.559,4.07-3.074h4.946
		c0.898,1.515,2.477,2.59,4.069,3.074v2.656C73.083,73.895,67.714,76.579,66.541,76.916L66.541,76.916z M66.541,76.916"/>
	<path fill="#117BC7" d="M28.411,26.024H13.706c-3.04,0-5.514,2.475-5.514,5.515v7.353c0,3.041,2.474,5.513,5.514,5.513h14.706
		c3.041,0,5.515-2.473,5.515-5.513v-7.353C33.926,28.499,31.452,26.024,28.411,26.024L28.411,26.024z M30.249,38.892
		c0,1.014-0.824,1.838-1.838,1.838H13.706c-1.014,0-1.838-0.824-1.838-1.838v-7.353c0-1.014,0.824-1.838,1.838-1.838h14.706
		c1.014,0,1.838,0.824,1.838,1.838V38.892z M30.249,38.892"/>
	<path fill="#117BC7" d="M28.411,48.45H13.706c-3.04,0-5.514,2.474-5.514,5.515v7.353c0,3.04,2.474,5.513,5.514,5.513h14.706
		c3.041,0,5.515-2.473,5.515-5.513v-7.353C33.926,50.924,31.452,48.45,28.411,48.45L28.411,48.45z M30.249,61.317
		c0,1.013-0.824,1.838-1.838,1.838H13.706c-1.014,0-1.838-0.825-1.838-1.838v-7.353c0-1.014,0.824-1.838,1.838-1.838h14.706
		c1.014,0,1.838,0.824,1.838,1.838V61.317z M30.249,61.317"/>
	<path fill="#117BC7" d="M65.156,40.73H43.943c-1.015,0-1.838,0.824-1.838,1.838c0,1.015,0.823,1.837,1.838,1.837h21.213
		c1.015,0,1.838-0.822,1.838-1.837C66.994,41.554,66.171,40.73,65.156,40.73L65.156,40.73z M65.156,40.73"/>
	<path fill="#117BC7" d="M70.751,33.377H43.943c-1.015,0-1.838,0.824-1.838,1.838c0,1.016,0.823,1.838,1.838,1.838h26.808
		c1.015,0,1.837-0.822,1.837-1.838C72.588,34.201,71.766,33.377,70.751,33.377L70.751,33.377z M70.751,33.377"/>
	<path fill="#117BC7" d="M56.992,26.024h-0.086c-1.016,0-1.839,0.824-1.839,1.838c0,1.015,0.823,1.838,1.839,1.838h0.086
		c1.016,0,1.839-0.823,1.839-1.838C58.831,26.849,58.008,26.024,56.992,26.024L56.992,26.024z M56.992,26.024"/>
	<path fill="#117BC7" d="M51.56,26.024h-7.616c-1.015,0-1.838,0.824-1.838,1.838c0,1.015,0.823,1.838,1.838,1.838h7.616
		c1.016,0,1.838-0.823,1.838-1.838C53.397,26.849,52.575,26.024,51.56,26.024L51.56,26.024z M51.56,26.024"/>
</g>
</svg>
