<?xml version="1.0" encoding="utf-8"?>
<!-- Generator: Adobe Illustrator 16.0.0, SVG Export Plug-In . SVG Version: 6.00 Build 0)  -->
<!DOCTYPE svg PUBLIC "-//W3C//DTD SVG 1.0//EN" "http://www.w3.org/TR/2001/REC-SVG-20010904/DTD/svg10.dtd">
<svg version="1.0" id="Layer_1" xmlns="http://www.w3.org/2000/svg" xmlns:xlink="http://www.w3.org/1999/xlink" x="0px" y="0px"
	 width="94px" height="94px" viewBox="0 0 94 94" enable-background="new 0 0 94 94" xml:space="preserve">
<g>
	<path fill="#117BC7" d="M92.165,32.689h-6.494c0.674-2.62,1.019-5.315,1.019-8.021V10.95h5.476c1.014,0,1.835-0.821,1.835-1.834
		c0-1.013-0.821-1.834-1.835-1.834h-5.926c-0.736-1.519-2.292-2.567-4.089-2.567c-0.747,0-1.453,0.182-2.074,0.502
		c-0.865-0.963-2.12-1.569-3.512-1.569c-0.554,0-1.088,0.096-1.58,0.271c-0.785-1.492-2.35-2.514-4.148-2.514
		c-1.614,0-3.037,0.819-3.881,2.063c-0.578-0.251-1.217-0.389-1.886-0.389c-2.435,0-4.447,1.841-4.72,4.204H40.226
		c-1.014,0-1.835,0.821-1.835,1.834v0.655l-1.957-0.536V2.05c0-1.015-0.823-1.835-1.836-1.835s-1.835,0.82-1.835,1.835v6.192
		c-2.549-0.635-5.169-0.961-7.799-0.961h-13.94V2.029c0-1.014-0.821-1.834-1.834-1.834c-1.014,0-1.836,0.821-1.836,1.834v5.819
		C5.958,8.623,5.01,10.112,5.01,11.819c0,0.747,0.181,1.454,0.502,2.076c-0.963,0.864-1.57,2.119-1.57,3.511
		c0,0.554,0.097,1.086,0.272,1.58C2.722,19.771,1.7,21.335,1.7,23.137c0,1.611,0.819,3.036,2.063,3.878
		c-0.252,0.579-0.39,1.216-0.39,1.886c0,2.358,1.726,4.321,3.981,4.689v20.375c0,1.016,0.822,1.837,1.836,1.837h0.654L9.37,57.539
		H1.881c-1.014,0-1.835,0.82-1.835,1.834c0,1.013,0.821,1.834,1.835,1.834h6.492c-0.672,2.62-1.019,5.315-1.019,8.022v13.716H1.881
		c-1.014,0-1.835,0.822-1.835,1.835s0.821,1.836,1.835,1.836h5.925c0.736,1.519,2.292,2.566,4.088,2.566
		c0.748,0,1.454-0.182,2.076-0.503c0.864,0.964,2.118,1.571,3.511,1.571c0.555,0,1.086-0.096,1.58-0.272
		c0.784,1.493,2.35,2.513,4.15,2.513c1.612,0,3.036-0.819,3.879-2.063c0.579,0.253,1.216,0.391,1.886,0.391
		c2.435,0,4.447-1.838,4.72-4.202H53.82c1.014,0,1.834-0.823,1.834-1.836v-0.655l1.957,0.536v7.205c0,1.014,0.822,1.835,1.835,1.835
		c1.014,0,1.835-0.821,1.835-1.835v-6.213c2.55,0.636,5.171,0.963,7.8,0.963h13.939v5.252c0,1.014,0.821,1.835,1.835,1.835
		s1.834-0.821,1.834-1.835V86.05c1.398-0.776,2.346-2.266,2.346-3.974c0-0.747-0.182-1.453-0.504-2.076
		c0.965-0.864,1.57-2.116,1.57-3.512c0-0.554-0.094-1.085-0.271-1.58c1.493-0.782,2.514-2.35,2.514-4.147
		c0-1.612-0.82-3.038-2.063-3.879c0.251-0.58,0.391-1.218,0.391-1.887c0-2.358-1.728-4.32-3.983-4.69V39.929
		c0-1.015-0.82-1.835-1.834-1.835h-0.656l0.478-1.734h7.488c1.014,0,1.835-0.821,1.835-1.834C94,33.511,93.179,32.689,92.165,32.689
		L92.165,32.689z M62.151,23.472c1.014,0,1.835-0.822,1.835-1.836V7.83c0-0.598,0.485-1.084,1.081-1.084
		c0.598,0,1.084,0.486,1.084,1.084v4.198c0,1.014,0.821,1.835,1.836,1.835c1.014,0,1.835-0.821,1.835-1.835V6.086
		c0-0.558,0.454-1.013,1.014-1.013c0.557,0,1.01,0.455,1.01,1.013v5.729c0,1.013,0.821,1.834,1.836,1.834
		c1.014,0,1.835-0.821,1.835-1.834V8.363c0-0.578,0.47-1.047,1.048-1.047c0.576,0,1.047,0.469,1.047,1.047v3.594
		c0,1.014,0.821,1.836,1.835,1.836c1.015,0,1.835-0.822,1.835-1.836V9.252c0-0.479,0.39-0.869,0.869-0.869s0.87,0.39,0.87,0.869
		v15.416c0,2.547-0.341,5.085-1.016,7.543l-1.609,5.883H63.986v-0.829c0-1.328-0.352-2.636-1.02-3.785l-4.263-7.336
		c-0.224-0.384-0.342-0.823-0.342-1.268V20c0-1.423,0.79-2.666,1.953-3.312v4.949C60.315,22.65,61.137,23.472,62.151,23.472
		L62.151,23.472z M8.126,29.984c-0.598,0-1.084-0.486-1.084-1.083c0-0.598,0.486-1.083,1.084-1.083h4.199
		c1.014,0,1.834-0.821,1.834-1.835s-0.821-1.835-1.834-1.835H6.383c-0.558,0-1.012-0.454-1.012-1.011
		c0-0.559,0.454-1.012,1.012-1.012h5.729c1.013,0,1.834-0.823,1.834-1.835c0-1.013-0.821-1.835-1.834-1.835H8.661
		c-0.579,0-1.048-0.471-1.048-1.047c0-0.578,0.469-1.048,1.048-1.048h3.593c1.014,0,1.836-0.822,1.836-1.835
		c0-1.013-0.822-1.834-1.836-1.834H9.549c-0.479,0-0.869-0.391-0.869-0.87s0.39-0.87,0.869-0.87h15.415
		c2.548,0,5.086,0.341,7.544,1.014l5.883,1.612v16.409h-0.83c-1.328,0-2.637,0.353-3.785,1.02l-7.336,4.261
		c-0.384,0.225-0.823,0.342-1.268,0.342h-4.875c-1.424,0-2.666-0.789-3.312-1.953h4.948c1.014,0,1.836-0.822,1.836-1.835
		s-0.822-1.835-1.836-1.835H8.126z M31.895,70.424c-1.014,0-1.836,0.821-1.836,1.835v13.809c0,0.595-0.486,1.082-1.083,1.082
		s-1.083-0.487-1.083-1.082v-4.2c0-1.013-0.822-1.835-1.835-1.835c-1.014,0-1.835,0.822-1.835,1.835v5.943
		c0,0.558-0.453,1.012-1.012,1.012c-0.558,0-1.012-0.454-1.012-1.012v-5.729c0-1.014-0.823-1.835-1.836-1.835
		s-1.835,0.821-1.835,1.835v3.451c0,0.578-0.47,1.049-1.047,1.049c-0.577,0-1.048-0.471-1.048-1.049v-3.594
		c0-1.013-0.82-1.834-1.834-1.834c-1.013,0-1.834,0.821-1.834,1.834v2.705c0,0.479-0.39,0.869-0.87,0.869
		c-0.479,0-0.87-0.39-0.87-0.869V69.229c0-2.55,0.341-5.087,1.015-7.545l1.611-5.882h16.409v0.828c0,1.327,0.353,2.637,1.02,3.785
		l4.262,7.337c0.224,0.384,0.342,0.823,0.342,1.268v4.875c0,1.425-0.789,2.667-1.953,3.313v-4.949
		C33.73,71.245,32.909,70.424,31.895,70.424L31.895,70.424z M53.82,57.539H40.548c-1.014,0-1.835,0.82-1.835,1.834
		c0,1.013,0.822,1.834,1.835,1.834h11.438v21.738H33.73v-1.819c3.227-0.821,5.623-3.751,5.623-7.229v-4.877
		c0-1.091-0.289-2.167-0.838-3.11l-4.262-7.337c-0.343-0.589-0.523-1.261-0.523-1.942v-0.828h0.87c1.013,0,1.836-0.821,1.836-1.837
		V42.451c0-1.013-0.823-1.835-1.836-1.835s-1.835,0.822-1.835,1.835v9.682H11.025V33.654h2.043c0.818,3.228,3.75,5.623,7.229,5.623
		h4.875c1.091,0,2.167-0.29,3.11-0.838l7.337-4.261c0.588-0.342,1.26-0.523,1.941-0.523h0.83v0.871c0,1.013,0.821,1.834,1.835,1.834
		h12.841c1.014,0,1.837-0.821,1.837-1.834c0-1.014-0.823-1.836-1.837-1.836H42.061V10.95h18.254v1.822
		c-3.228,0.818-5.623,3.75-5.623,7.228v4.876c0,1.091,0.29,2.167,0.839,3.11l4.263,7.338c0.342,0.588,0.521,1.259,0.521,1.941v0.829
		h-0.869c-1.013,0-1.834,0.82-1.834,1.835v13.022c0,1.013,0.821,1.834,1.834,1.834c1.014,0,1.835-0.821,1.835-1.834V41.764h20.508
		c0.002,0,0.006,0,0.008,0c0.003,0,0.008,0,0.011,0h1.213v18.479h-2.043c-0.819-3.228-3.749-5.623-7.228-5.623h-4.877
		c-1.091,0-2.168,0.289-3.11,0.837l-7.336,4.265c-0.589,0.34-1.261,0.521-1.942,0.521h-0.83v-0.869
		C55.654,58.359,54.834,57.539,53.82,57.539L53.82,57.539z M85.918,63.911c0.598,0,1.084,0.487,1.084,1.084
		c0,0.595-0.486,1.083-1.084,1.083h-4.199c-1.014,0-1.835,0.821-1.835,1.835c0,1.013,0.821,1.834,1.835,1.834h5.945
		c0.558,0,1.011,0.454,1.011,1.014c0,0.559-0.453,1.01-1.011,1.01h-5.73c-1.015,0-1.835,0.822-1.835,1.835
		c0,1.016,0.82,1.835,1.835,1.835h3.451c0.577,0,1.049,0.471,1.049,1.048c0,0.578-0.472,1.048-1.049,1.048h-3.594
		c-1.013,0-1.837,0.822-1.837,1.835s0.824,1.834,1.837,1.834h2.704c0.48,0,0.87,0.391,0.87,0.871c0,0.479-0.39,0.869-0.87,0.869
		H69.081c-2.548,0-5.085-0.341-7.543-1.013l-5.884-1.613V63.913h0.828c1.33,0,2.639-0.354,3.785-1.021l7.338-4.263
		c0.383-0.222,0.822-0.34,1.268-0.34h4.875c1.424,0,2.666,0.789,3.313,1.953h-4.95c-1.015,0-1.835,0.821-1.835,1.834
		c0,1.014,0.82,1.835,1.835,1.835H85.918z M85.918,63.911"/>
	<path fill="#FFD640" d="M30.286,48.078c0,1.015-0.822,1.836-1.836,1.836c-1.013,0-1.834-0.821-1.834-1.836
		c0-1.013,0.821-1.835,1.834-1.835C29.464,46.243,30.286,47.065,30.286,48.078L30.286,48.078z M30.286,48.078"/>
	<path fill="#FFD640" d="M30.286,41.958c0,1.014-0.822,1.834-1.836,1.834c-1.013,0-1.834-0.82-1.834-1.834
		c0-1.013,0.821-1.836,1.834-1.836C29.464,40.123,30.286,40.945,30.286,41.958L30.286,41.958z M30.286,41.958"/>
	<path fill="#FFD640" d="M50.101,65.268c0,1.013-0.82,1.834-1.835,1.834c-1.012,0-1.834-0.821-1.834-1.834
		c0-1.014,0.822-1.835,1.834-1.835C49.28,63.433,50.101,64.254,50.101,65.268L50.101,65.268z M50.101,65.268"/>
	<path fill="#FFD640" d="M43.983,65.268c0,1.013-0.82,1.834-1.834,1.834s-1.835-0.821-1.835-1.834c0-1.014,0.821-1.835,1.835-1.835
		S43.983,64.254,43.983,65.268L43.983,65.268z M43.983,65.268"/>
	<path fill="#FFD640" d="M67.427,45.482c0,1.014-0.821,1.835-1.835,1.835s-1.835-0.821-1.835-1.835s0.821-1.835,1.835-1.835
		S67.427,44.468,67.427,45.482L67.427,45.482z M67.427,45.482"/>
	<path fill="#FFD640" d="M67.427,51.6c0,1.014-0.821,1.834-1.835,1.834s-1.835-0.82-1.835-1.834s0.821-1.836,1.835-1.836
		S67.427,50.586,67.427,51.6L67.427,51.6z M67.427,51.6"/>
	<path fill="#FFD640" d="M47.898,29.217c0,1.013-0.821,1.834-1.834,1.834c-1.014,0-1.835-0.821-1.835-1.834
		c0-1.014,0.821-1.835,1.835-1.835C47.077,27.381,47.898,28.203,47.898,29.217L47.898,29.217z M47.898,29.217"/>
	<path fill="#FFD640" d="M54.017,29.217c0,1.013-0.821,1.834-1.835,1.834s-1.835-0.821-1.835-1.834c0-1.014,0.821-1.835,1.835-1.835
		S54.017,28.203,54.017,29.217L54.017,29.217z M54.017,29.217"/>
</g>
</svg>
