<?xml version="1.0" encoding="utf-8"?>
<!-- Generator: Adobe Illustrator 16.0.0, SVG Export Plug-In . SVG Version: 6.00 Build 0)  -->
<!DOCTYPE svg PUBLIC "-//W3C//DTD SVG 1.0//EN" "http://www.w3.org/TR/2001/REC-SVG-20010904/DTD/svg10.dtd">
<svg version="1.0" id="Layer_1" xmlns="http://www.w3.org/2000/svg" xmlns:xlink="http://www.w3.org/1999/xlink" x="0px" y="0px"
	 width="94px" height="94px" viewBox="0 0 94 94" enable-background="new 0 0 94 94" xml:space="preserve">
<g>
	<path fill="#117BC7" d="M88.738,3.22H5.311c-2.902,0-5.264,2.361-5.264,5.263v56.505c0,2.902,2.361,5.263,5.264,5.263h46.617
		l-6.255,10.836c-0.413,0.714-0.37,1.604,0.109,2.274c0.479,0.671,1.305,1.003,2.116,0.846l6.992-1.357l2.319,6.731
		c0.27,0.78,0.969,1.33,1.79,1.411C59.066,90.997,59.134,91,59.201,91c0.747,0,1.443-0.396,1.822-1.052l6.415-11.11l6.415,11.11
		C74.232,90.604,74.931,91,75.678,91c0.066,0,0.134-0.003,0.201-0.009c0.821-0.079,1.521-0.631,1.789-1.411l2.32-6.731l6.993,1.357
		c0.81,0.157,1.637-0.174,2.115-0.846c0.478-0.671,0.521-1.561,0.109-2.274L82.95,70.25h5.788c2.901,0,5.264-2.36,5.264-5.263V8.482
		C94.002,5.581,91.64,3.22,88.738,3.22L88.738,3.22z M24.917,49.285h28.596c-1.322,1.838-2.289,3.946-2.802,6.227H20.835v0.001
		c-0.763-2.955-3.095-5.286-6.05-6.05V24.008c2.955-0.763,5.287-3.095,6.05-6.049h52.378c0.764,2.954,3.094,5.286,6.05,6.049V46.9
		c-3.079-2.949-7.25-4.768-11.84-4.768c-3.549,0-6.849,1.085-9.587,2.94h-32.92c-1.163,0-2.105,0.943-2.105,2.106
		S23.753,49.285,24.917,49.285L24.917,49.285z M59.686,83.842l-1.41-4.095c-0.344-0.992-1.363-1.582-2.392-1.382l-4.256,0.826
		l4.221-7.31c2.288,2.102,5.149,3.587,8.318,4.2L59.686,83.842z M67.424,72.186c-7.124,0-12.921-5.796-12.921-12.921
		c0-7.124,5.797-12.921,12.921-12.921c7.125,0,12.921,5.797,12.921,12.921C80.345,66.39,74.549,72.186,67.424,72.186L67.424,72.186z
		 M83.249,79.191l-4.255-0.826c-1.028-0.2-2.05,0.39-2.392,1.382l-1.411,4.095l-4.483-7.765c3.167-0.617,6.023-2.108,8.31-4.214
		L83.249,79.191z M89.79,64.987c0,0.58-0.472,1.053-1.052,1.053h-5.581c0.897-2.079,1.398-4.37,1.398-6.775
		c0-2.113-0.387-4.138-1.09-6.008c0.005-0.058,0.009-0.116,0.009-0.175V22.169c0-1.162-0.942-2.106-2.105-2.106
		c-2.322,0-4.212-1.888-4.212-4.21c0-1.163-0.942-2.105-2.104-2.105H18.996c-1.163,0-2.105,0.942-2.105,2.105
		c0,2.322-1.89,4.21-4.211,4.21c-1.163,0-2.105,0.944-2.105,2.106v29.133c0,1.163,0.942,2.104,2.105,2.104
		c2.321,0,4.211,1.891,4.211,4.211c0,1.163,0.942,2.105,2.105,2.105h31.308c0.061,2.239,0.547,4.372,1.388,6.317H5.311
		c-0.58,0-1.053-0.472-1.053-1.053V8.482c0-0.579,0.472-1.053,1.053-1.053h83.428c0.58,0,1.052,0.474,1.052,1.053V64.987z
		 M89.79,64.987"/>
	<path fill="#FFD640" d="M55.69,24.196H38.358c-1.162,0-2.105,0.943-2.105,2.105c0,1.163,0.943,2.105,2.105,2.105H55.69
		c1.163,0,2.104-0.942,2.104-2.105C57.795,25.14,56.854,24.196,55.69,24.196L55.69,24.196z M55.69,24.196"/>
	<path fill="#117BC7" d="M69.133,34.635H24.917c-1.163,0-2.105,0.944-2.105,2.106s0.942,2.105,2.105,2.105h44.214
		c1.163,0,2.105-0.943,2.105-2.105S70.294,34.635,69.133,34.635L69.133,34.635z M69.133,34.635"/>
	<path fill="#FFD640" d="M67.424,50.977c-4.569,0-8.288,3.718-8.288,8.288s3.719,8.289,8.288,8.289c4.57,0,8.289-3.719,8.289-8.289
		S71.994,50.977,67.424,50.977L67.424,50.977z M67.424,63.343c-2.247,0-4.077-1.829-4.077-4.078c0-2.248,1.83-4.078,4.077-4.078
		c2.248,0,4.079,1.83,4.079,4.078C71.503,61.514,69.672,63.343,67.424,63.343L67.424,63.343z M67.424,63.343"/>
</g>
</svg>
