<?xml version="1.0" encoding="utf-8"?>
<!-- Generator: Adobe Illustrator 16.0.0, SVG Export Plug-In . SVG Version: 6.00 Build 0)  -->
<!DOCTYPE svg PUBLIC "-//W3C//DTD SVG 1.0//EN" "http://www.w3.org/TR/2001/REC-SVG-20010904/DTD/svg10.dtd">
<svg version="1.0" id="Layer_1" xmlns="http://www.w3.org/2000/svg" xmlns:xlink="http://www.w3.org/1999/xlink" x="0px" y="0px"
	 width="94px" height="94px" viewBox="0 0 94 94" enable-background="new 0 0 94 94" xml:space="preserve">
<path fill-rule="evenodd" clip-rule="evenodd" fill="#117BC7" d="M78.342,50.156c-6.407,11.305-16.467,22.064-23.812,29.92
	c-3.256,3.482-6.001,6.419-7.927,8.823c-1.926-2.405-4.67-5.341-7.926-8.823c-7.344-7.855-17.405-18.615-23.811-29.92
	c-7.117-12.558-8.362-23.125-3.792-32.259h0.691c4.679,0,9.142-1.468,12.905-4.249c3.365-2.485,5.893-5.813,7.375-9.686h29.119
	c1.481,3.873,4.01,7.201,7.375,9.686c3.763,2.78,8.226,4.249,12.903,4.249h0.691C86.703,27.031,85.458,37.598,78.342,50.156
	L78.342,50.156z M85.061,14.955c-0.35-0.63-1.013-1.02-1.733-1.02h-1.886c-7.845,0-14.665-5.039-16.973-12.536
	C64.213,0.567,63.444,0,62.575,0H30.632c-0.869,0-1.638,0.567-1.894,1.399c-2.307,7.498-9.128,12.536-16.974,12.536H9.879
	c-0.72,0-1.383,0.391-1.732,1.02C-5.176,38.974,20.463,66.397,35.782,82.783c4.056,4.338,7.558,8.084,9.163,10.537
	c0.366,0.56,0.99,0.897,1.658,0.897c0.669,0,1.292-0.338,1.659-0.897c1.604-2.453,5.108-6.199,9.163-10.537
	C72.744,66.397,98.383,38.974,85.061,14.955z"/>
<path fill-rule="evenodd" clip-rule="evenodd" fill="#FFD640" d="M76.688,32.171c-0.556,4.183-2.319,8.919-5.242,14.077
	C65.502,56.734,56.208,66.676,48.74,74.664l-0.039,0.042c-0.725,0.773-1.424,1.522-2.098,2.247c-0.688-0.739-1.4-1.503-2.137-2.289
	c-7.468-7.988-16.762-17.93-22.705-28.416c-2.924-5.158-4.687-9.894-5.243-14.077c-0.321-2.421-0.248-4.646,0.225-6.761
	c4.107-0.692,8.06-2.252,11.506-4.552c3.48-2.322,6.46-5.408,8.675-8.969h19.359c2.214,3.561,5.193,6.647,8.674,8.969
	c3.446,2.3,7.398,3.86,11.506,4.552C76.937,27.525,77.011,29.75,76.688,32.171L76.688,32.171z M78.283,21.67
	c-8.015-0.972-15.175-5.735-19.149-12.741c-0.353-0.621-1.011-1.003-1.725-1.003H35.797c-0.714,0-1.371,0.383-1.724,1.003
	c-3.976,7.006-11.134,11.77-19.15,12.741c-0.781,0.095-1.432,0.642-1.659,1.395c-0.913,3.025-1.133,6.174-0.675,9.628
	c0.623,4.689,2.547,9.906,5.723,15.509c6.176,10.896,15.648,21.027,23.259,29.167c1.264,1.354,2.459,2.633,3.571,3.843
	c0.376,0.408,0.905,0.641,1.459,0.641c0.554,0,1.083-0.232,1.459-0.641c1.094-1.19,2.277-2.458,3.532-3.799l0.04-0.044
	c7.611-8.14,17.084-18.271,23.258-29.167c3.176-5.603,5.102-10.819,5.724-15.509c0.459-3.454,0.237-6.604-0.675-9.628
	C79.715,22.312,79.063,21.765,78.283,21.67z"/>
<path fill-rule="evenodd" clip-rule="evenodd" fill="#117BC7" d="M56.52,52.346H36.687v-8.708c0-1.649,1.068-3.05,2.546-3.558
	l5.707,8.828c0.365,0.564,0.992,0.905,1.664,0.905c0.672,0,1.299-0.341,1.665-0.905l5.706-8.828
	c1.478,0.507,2.546,1.909,2.546,3.558V52.346L56.52,52.346L56.52,52.346z M42.768,27.847c0-1.707,1.389-3.095,3.096-3.095h1.54
	c1.674,0,3.035,1.361,3.035,3.035v5.028c0,1.706-1.39,3.094-3.096,3.094h-1.479c-1.707,0-3.096-1.388-3.096-3.094V27.847
	L42.768,27.847z M49.388,39.872h-5.569l2.785,4.309L49.388,39.872L49.388,39.872z M53.657,35.963
	c0.476-0.948,0.744-2.017,0.744-3.148v-5.028c0-3.859-3.14-6.998-6.997-6.998h-1.541c-3.892,0-7.058,3.166-7.058,7.058v4.968
	c0,1.13,0.269,2.2,0.744,3.148c-3.837,0.449-6.826,3.719-6.826,7.674v10.69c0,1.095,0.887,1.981,1.981,1.981h23.796
	c1.095,0,1.981-0.887,1.981-1.981v-10.69C60.483,39.682,57.494,36.412,53.657,35.963z"/>
</svg>
