<?xml version="1.0" encoding="utf-8"?>
<!-- Generator: Adobe Illustrator 16.0.0, SVG Export Plug-In . SVG Version: 6.00 Build 0)  -->
<!DOCTYPE svg PUBLIC "-//W3C//DTD SVG 1.0//EN" "http://www.w3.org/TR/2001/REC-SVG-20010904/DTD/svg10.dtd">
<svg version="1.0" id="Layer_1" xmlns="http://www.w3.org/2000/svg" xmlns:xlink="http://www.w3.org/1999/xlink" x="0px" y="0px"
	 width="94px" height="94px" viewBox="0 0 94 94" enable-background="new 0 0 94 94" xml:space="preserve">
<g>
	<path fill="#117BC7" d="M47,56.034c-9.864,0-17.889,8.024-17.889,17.889c0,5.604,2.591,10.613,6.637,13.895
		c0.076,0.074,0.16,0.14,0.248,0.199c3.037,2.377,6.857,3.795,11.004,3.795s7.967-1.418,11.004-3.795
		c0.089-0.06,0.171-0.125,0.249-0.199c4.045-3.281,6.635-8.291,6.635-13.895C64.888,64.059,56.864,56.034,47,56.034L47,56.034z
		 M47,88.141c-2.902,0-5.602-0.876-7.854-2.373c1.207-3.102,4.337-5.251,7.854-5.251s6.646,2.149,7.854,5.251
		C52.603,87.265,49.9,88.141,47,88.141L47,88.141z M43.767,73.923c0-1.612,1.312-2.924,2.924-2.924c1.612,0,2.924,1.312,2.924,2.924
		c0,1.611-1.313,2.924-2.924,2.924C45.079,76.847,43.767,75.534,43.767,73.923L43.767,73.923z M57.726,83.239
		c-1.253-2.368-3.31-4.251-5.775-5.344c0.838-1.105,1.336-2.481,1.336-3.973c0-3.637-2.958-6.595-6.595-6.595
		c-3.637,0-6.595,2.958-6.595,6.595c0,1.587,0.563,3.045,1.502,4.185c-2.266,1.115-4.148,2.91-5.325,5.132
		c-2.172-2.498-3.491-5.754-3.491-9.316c0-7.84,6.378-14.218,14.218-14.218c7.84,0,14.218,6.378,14.218,14.218
		C61.218,77.484,59.898,80.741,57.726,83.239L57.726,83.239z M57.726,83.239"/>
	<path fill="#117BC7" d="M17.904,2.926c-9.863,0-17.888,8.025-17.888,17.889c0,5.604,2.59,10.612,6.637,13.895
		c0.076,0.073,0.159,0.139,0.247,0.198c3.037,2.376,6.858,3.795,11.004,3.795c4.146,0,7.968-1.419,11.005-3.795
		c0.089-0.06,0.17-0.125,0.248-0.198c4.046-3.283,6.637-8.292,6.637-13.896C35.793,10.951,27.768,2.926,17.904,2.926L17.904,2.926z
		 M17.904,35.032c-2.9,0-5.6-0.875-7.853-2.375c1.208-3.099,4.337-5.248,7.853-5.248c3.516,0,6.647,2.149,7.854,5.248
		C23.506,34.157,20.806,35.032,17.904,35.032L17.904,35.032z M14.671,20.815c0-1.613,1.312-2.924,2.924-2.924
		s2.925,1.311,2.925,2.924c0,1.612-1.312,2.924-2.925,2.924S14.671,22.427,14.671,20.815L14.671,20.815z M28.631,30.13
		c-1.254-2.368-3.31-4.25-5.776-5.342c0.838-1.106,1.335-2.483,1.335-3.973c0-3.637-2.958-6.596-6.595-6.596S11,17.178,11,20.815
		c0,1.587,0.565,3.045,1.501,4.183c-2.266,1.117-4.147,2.911-5.324,5.133c-2.172-2.497-3.491-5.755-3.491-9.316
		c0-7.841,6.377-14.219,14.217-14.219s14.218,6.378,14.218,14.219C32.122,24.376,30.803,27.634,28.631,30.13L28.631,30.13z
		 M28.631,30.13"/>
	<path fill="#117BC7" d="M76.096,2.926c-9.864,0-17.889,8.025-17.889,17.889c0,5.604,2.591,10.613,6.637,13.896
		c0.076,0.073,0.159,0.138,0.247,0.197c3.037,2.376,6.858,3.795,11.005,3.795c4.146,0,7.968-1.419,11.003-3.795
		c0.089-0.06,0.173-0.125,0.248-0.198c4.048-3.283,6.638-8.292,6.638-13.895C93.984,10.951,85.959,2.926,76.096,2.926L76.096,2.926z
		 M76.096,35.032c-2.902,0-5.602-0.875-7.853-2.375c1.206-3.099,4.336-5.248,7.853-5.248s6.646,2.149,7.854,5.248
		C81.698,34.157,78.997,35.032,76.096,35.032L76.096,35.032z M72.862,20.815c0-1.613,1.312-2.924,2.925-2.924
		c1.612,0,2.924,1.311,2.924,2.924c0,1.612-1.313,2.924-2.924,2.924C74.174,23.739,72.862,22.427,72.862,20.815L72.862,20.815z
		 M86.822,30.13c-1.255-2.368-3.31-4.25-5.776-5.342c0.838-1.106,1.335-2.483,1.335-3.973c0-3.637-2.957-6.596-6.594-6.596
		s-6.596,2.959-6.596,6.596c0,1.587,0.564,3.045,1.502,4.183c-2.267,1.116-4.146,2.911-5.324,5.132
		c-2.172-2.496-3.491-5.754-3.491-9.315c0-7.841,6.378-14.219,14.218-14.219c7.839,0,14.218,6.378,14.218,14.219
		C90.313,24.376,88.994,27.634,86.822,30.13L86.822,30.13z M86.822,30.13"/>
	<path fill="#FFD640" d="M25.889,65.618c-0.007-0.006-0.015-0.013-0.022-0.019c-0.773-0.656-1.931-0.559-2.586,0.215
		c-0.651,0.769-0.559,1.916,0.2,2.573c0.008,0.007,0.016,0.014,0.022,0.02c0.345,0.291,0.766,0.434,1.185,0.434
		c0.521,0,1.04-0.221,1.402-0.649C26.74,67.423,26.649,66.274,25.889,65.618L25.889,65.618z M25.889,65.618"/>
	<path fill="#FFD640" d="M22.309,61.938c-0.003-0.005-0.019-0.022-0.023-0.027c-0.651-0.773-1.802-0.871-2.578-0.222
		c-0.776,0.649-0.877,1.807-0.232,2.585l0.004,0.003c0.363,0.439,0.886,0.666,1.416,0.666c0.412,0,0.826-0.139,1.168-0.421
		C22.845,63.875,22.954,62.718,22.309,61.938L22.309,61.938z M22.309,61.938"/>
	<path fill="#FFD640" d="M19.333,57.729c-0.004-0.007-0.017-0.028-0.022-0.035c-0.523-0.869-1.654-1.151-2.521-0.628
		c-0.868,0.523-1.148,1.648-0.626,2.517l0.002,0.003c0.341,0.582,0.955,0.906,1.585,0.906c0.315,0,0.634-0.081,0.927-0.252
		C19.553,59.728,19.846,58.604,19.333,57.729L19.333,57.729z M19.333,57.729"/>
	<path fill="#FFD640" d="M15.526,48.158c-0.212-0.992-1.189-1.621-2.18-1.408c-0.99,0.213-1.622,1.19-1.408,2.181
		c0.002,0.007,0.007,0.032,0.009,0.04c0.194,0.85,0.951,1.429,1.789,1.429c0.135,0,0.271-0.015,0.408-0.046
		C15.132,50.129,15.751,49.147,15.526,48.158L15.526,48.158z M15.526,48.158"/>
	<path fill="#FFD640" d="M17.048,53.092c-0.001-0.003-0.009-0.023-0.01-0.026c-0.379-0.94-1.447-1.394-2.387-1.016
		c-0.94,0.378-1.395,1.447-1.018,2.388l0.003,0.008c0.286,0.721,0.977,1.159,1.707,1.159c0.225,0,0.455-0.043,0.676-0.13
		C16.961,55.102,17.421,54.033,17.048,53.092L17.048,53.092z M17.048,53.092"/>
	<path fill="#FFD640" d="M70.72,65.814c-0.654-0.773-1.813-0.871-2.588-0.215c-0.006,0.006-0.014,0.013-0.021,0.019
		c-0.76,0.656-0.852,1.805-0.199,2.573c0.361,0.429,0.88,0.649,1.401,0.649c0.419,0,0.84-0.143,1.185-0.434
		c0.006-0.006,0.014-0.013,0.021-0.02C71.279,67.73,71.37,66.583,70.72,65.814L70.72,65.814z M70.72,65.814"/>
	<path fill="#FFD640" d="M79.351,52.05c-0.94-0.379-2.009,0.075-2.389,1.016c0,0.003-0.009,0.023-0.011,0.026
		c-0.372,0.939,0.089,1.997,1.027,2.373c0.223,0.088,0.452,0.13,0.677,0.13c0.729,0,1.422-0.44,1.711-1.157
		C80.745,53.498,80.29,52.428,79.351,52.05L79.351,52.05z M79.351,52.05"/>
	<path fill="#FFD640" d="M74.3,61.689c-0.774-0.653-1.933-0.555-2.585,0.221c-0.005,0.005-0.02,0.023-0.024,0.027
		c-0.644,0.777-0.531,1.925,0.244,2.571c0.342,0.285,0.757,0.424,1.171,0.424c0.527,0,1.05-0.224,1.413-0.656
		C75.174,63.502,75.075,62.343,74.3,61.689L74.3,61.689z M74.3,61.689"/>
	<path fill="#FFD640" d="M80.661,46.757c-0.986-0.217-1.965,0.408-2.187,1.395l-0.001,0.004c-0.225,0.989,0.395,1.973,1.383,2.197
		c0.138,0.03,0.273,0.045,0.408,0.045c0.839,0,1.596-0.577,1.789-1.429c0.001-0.006,0.007-0.031,0.007-0.038
		C82.274,47.943,81.648,46.975,80.661,46.757L80.661,46.757z M80.661,46.757"/>
	<path fill="#FFD640" d="M77.208,57.069c-0.867-0.523-1.997-0.245-2.52,0.624c-0.005,0.007-0.018,0.028-0.021,0.035
		c-0.514,0.875-0.222,2.001,0.652,2.513c0.293,0.171,0.613,0.254,0.929,0.254c0.628,0,1.241-0.324,1.582-0.905
		C78.354,58.722,78.074,57.594,77.208,57.069L77.208,57.069z M77.208,57.069"/>
	<path fill="#FFD640" d="M81.132,41.324c-1.014-0.059-1.878,0.719-1.935,1.731c0,0,0,0.006,0,0.006
		c-0.057,1.012,0.719,1.874,1.73,1.93c0.035,0.002,0.069,0.002,0.103,0.002c0.967,0,1.776-0.759,1.833-1.737
		C82.92,42.243,82.144,41.379,81.132,41.324L81.132,41.324z M81.132,41.324"/>
	<path fill="#FFD640" d="M58.42,6.242l-0.017-0.005c-0.966-0.313-2,0.217-2.312,1.181c-0.313,0.965,0.218,2,1.183,2.311l0.018,0.006
		c0.188,0.059,0.377,0.089,0.563,0.089c0.775,0,1.496-0.494,1.746-1.271C59.914,7.589,59.385,6.554,58.42,6.242L58.42,6.242z
		 M58.42,6.242"/>
	<path fill="#FFD640" d="M52.779,4.918l-0.048-0.007c-1.005-0.148-1.941,0.544-2.09,1.548c-0.146,1.002,0.541,1.933,1.543,2.082
		c0.101,0.016,0.202,0.024,0.301,0.024c0.881,0,1.661-0.639,1.809-1.538C54.458,6.026,53.78,5.083,52.779,4.918L52.779,4.918z
		 M52.779,4.918"/>
	<path fill="#FFD640" d="M46.978,4.503l-0.044,0.001c-1.014,0.014-1.829,0.849-1.813,1.862c0.015,1.004,0.83,1.808,1.831,1.808
		c0.008,0,0.018,0,0.026,0c1.014,0,1.836-0.822,1.836-1.835C48.813,5.325,47.991,4.503,46.978,4.503L46.978,4.503z M46.978,4.503"/>
	<path fill="#FFD640" d="M37.84,7.475c-0.293-0.97-1.319-1.518-2.288-1.224l-0.025,0.007c-0.969,0.3-1.508,1.325-1.209,2.293
		c0.242,0.79,0.971,1.294,1.757,1.294c0.18,0,0.362-0.026,0.542-0.081C37.587,9.471,38.135,8.445,37.84,7.475L37.84,7.475z
		 M37.84,7.475"/>
	<path fill="#FFD640" d="M43.293,6.528c-0.163-1-1.101-1.681-2.102-1.52l0.268,1.816L41.188,5.01
		c-1.003,0.148-1.694,1.083-1.545,2.086c0.137,0.91,0.92,1.563,1.814,1.563c0.09,0,0.182-0.006,0.272-0.02
		c0.008-0.001,0.034-0.005,0.041-0.006C42.771,8.471,43.455,7.528,43.293,6.528L43.293,6.528z M43.293,6.528"/>
	<path fill="#FFD640" d="M14.764,42.656c-0.213-0.991-1.189-1.622-2.181-1.408c-0.991,0.214-1.621,1.189-1.408,2.18
		c0.002,0.008,0.007,0.032,0.008,0.038c0.194,0.852,0.951,1.43,1.79,1.43c0.133,0,0.271-0.015,0.408-0.045
		C14.368,44.625,14.989,43.644,14.764,42.656L14.764,42.656z M14.764,42.656"/>
</g>
</svg>
