<?xml version="1.0" encoding="utf-8"?>
<!-- Generator: Adobe Illustrator 21.1.0, SVG Export Plug-In . SVG Version: 6.00 Build 0)  -->
<svg version="1.1" id="Layer_1" xmlns="http://www.w3.org/2000/svg" xmlns:xlink="http://www.w3.org/1999/xlink" x="0px" y="0px"
	 viewBox="0 0 1100 260" style="enable-background:new 0 0 1100 260;" xml:space="preserve">
<style type="text/css">
	.st0{fill:#30A7FC;}
	.st1{fill:#5A5A5A;}
	.st2{fill:#F2F2F2;}
	.st3{fill:#1991E7;}
	.st4{fill:#117BC7;}
</style>
<g>
	<rect x="858.5" y="134" class="st0" width="194" height="57"/>
	<g>
		<path class="st1" d="M909.7,227.7v1.5h-8.4v-1.5h3.4V217c0-0.3,0-0.6,0-1l-2.8,2.4c-0.1,0.1-0.2,0.1-0.3,0.1c-0.1,0-0.2,0-0.3,0
			s-0.2,0-0.2-0.1c-0.1,0-0.1-0.1-0.2-0.1l-0.6-0.8l4.7-4.1h1.6v14.3H909.7z"/>
		<path class="st1" d="M915.2,219.4c0.8-0.2,1.6-0.3,2.3-0.3c0.8,0,1.5,0.1,2.2,0.4c0.6,0.2,1.2,0.6,1.6,1c0.4,0.4,0.7,0.9,1,1.5
			c0.2,0.6,0.3,1.2,0.3,1.9c0,0.8-0.1,1.6-0.4,2.3s-0.7,1.3-1.2,1.7c-0.5,0.5-1.1,0.8-1.8,1.1c-0.7,0.3-1.4,0.4-2.2,0.4
			c-0.5,0-0.9,0-1.3-0.1c-0.4-0.1-0.8-0.2-1.2-0.4c-0.4-0.2-0.7-0.3-1-0.5c-0.3-0.2-0.6-0.4-0.8-0.6l0.6-0.8
			c0.1-0.2,0.3-0.3,0.5-0.3c0.1,0,0.3,0.1,0.5,0.2c0.2,0.1,0.4,0.2,0.7,0.4c0.3,0.1,0.6,0.3,0.9,0.4c0.4,0.1,0.8,0.2,1.3,0.2
			c0.5,0,1-0.1,1.5-0.3s0.8-0.4,1.1-0.8c0.3-0.3,0.6-0.7,0.7-1.2s0.3-1,0.3-1.5c0-0.5-0.1-0.9-0.2-1.3c-0.1-0.4-0.4-0.7-0.6-1
			s-0.7-0.5-1.1-0.6c-0.4-0.2-0.9-0.2-1.5-0.2c-0.4,0-0.8,0-1.2,0.1c-0.4,0.1-0.9,0.2-1.3,0.3l-1.2-0.4l1.3-7.4h7.5v0.9
			c0,0.3-0.1,0.5-0.3,0.7c-0.2,0.2-0.5,0.3-0.9,0.3h-4.9L915.2,219.4z"/>
		<path class="st1" d="M925.4,221.8h5.4v1.7h-5.4V221.8z"/>
		<path class="st1" d="M943,227.4c0.2,0,0.4,0.1,0.5,0.2c0.1,0.1,0.2,0.3,0.2,0.5v1.2h-10.5v-0.7c0-0.1,0-0.3,0.1-0.4
			s0.2-0.3,0.3-0.4l5-5.1c0.4-0.4,0.8-0.8,1.1-1.2s0.6-0.8,0.9-1.2s0.4-0.8,0.6-1.2c0.1-0.4,0.2-0.8,0.2-1.3c0-0.5-0.1-0.9-0.2-1.2
			s-0.3-0.6-0.6-0.9c-0.3-0.2-0.6-0.4-0.9-0.5c-0.3-0.1-0.7-0.2-1.1-0.2c-0.4,0-0.8,0.1-1.1,0.2c-0.3,0.1-0.6,0.3-0.9,0.5
			c-0.3,0.2-0.5,0.5-0.7,0.7c-0.2,0.3-0.3,0.6-0.4,0.9c-0.1,0.3-0.2,0.4-0.4,0.5c-0.2,0.1-0.4,0.1-0.6,0.1l-1-0.2
			c0.1-0.7,0.3-1.4,0.6-1.9c0.3-0.6,0.7-1,1.1-1.4c0.5-0.4,1-0.7,1.5-0.9c0.6-0.2,1.2-0.3,1.9-0.3c0.7,0,1.3,0.1,1.9,0.3
			c0.6,0.2,1.1,0.5,1.5,0.9c0.4,0.4,0.8,0.8,1,1.4c0.2,0.5,0.4,1.2,0.4,1.8c0,0.6-0.1,1.1-0.3,1.6s-0.4,1-0.7,1.4
			c-0.3,0.5-0.6,0.9-1,1.3c-0.4,0.4-0.8,0.9-1.2,1.3l-4.2,4.2c0.3-0.1,0.6-0.1,0.9-0.2c0.3,0,0.6-0.1,0.9-0.1H943z"/>
		<path class="st1" d="M956.1,227.7v1.5h-8.4v-1.5h3.4V217c0-0.3,0-0.6,0-1l-2.8,2.4c-0.1,0.1-0.2,0.1-0.3,0.1c-0.1,0-0.2,0-0.3,0
			c-0.1,0-0.2,0-0.2-0.1c-0.1,0-0.1-0.1-0.2-0.1l-0.6-0.8l4.7-4.1h1.6v14.3H956.1z"/>
		<path class="st1" d="M978.9,221.4c0,1.2-0.2,2.3-0.6,3.2c-0.4,1-0.9,1.8-1.6,2.5c-0.7,0.7-1.5,1.2-2.5,1.6c-1,0.4-2,0.6-3.2,0.6
			h-5.9v-15.7h5.9c1.2,0,2.2,0.2,3.2,0.6c1,0.4,1.8,0.9,2.5,1.6c0.7,0.7,1.2,1.5,1.6,2.5C978.7,219.1,978.9,220.2,978.9,221.4z
			 M976.7,221.4c0-1-0.1-1.8-0.4-2.6s-0.6-1.4-1.1-1.9s-1.1-0.9-1.8-1.2s-1.5-0.4-2.3-0.4h-3.7v12.3h3.7c0.8,0,1.6-0.1,2.3-0.4
			s1.3-0.7,1.8-1.2c0.5-0.5,0.9-1.2,1.1-1.9S976.7,222.3,976.7,221.4z"/>
		<path class="st1" d="M981,219.7c0.6-0.6,1.3-1,2-1.3c0.7-0.3,1.5-0.4,2.4-0.4c0.6,0,1.2,0.1,1.7,0.3s0.9,0.5,1.2,0.9
			c0.3,0.4,0.6,0.8,0.7,1.3c0.2,0.5,0.3,1.1,0.3,1.7v7.1h-0.9c-0.2,0-0.3,0-0.4-0.1c-0.1-0.1-0.2-0.2-0.2-0.4l-0.2-1.1
			c-0.3,0.3-0.6,0.5-0.9,0.7c-0.3,0.2-0.6,0.4-0.9,0.5c-0.3,0.1-0.6,0.3-1,0.3c-0.3,0.1-0.7,0.1-1.2,0.1c-0.4,0-0.8-0.1-1.2-0.2
			c-0.4-0.1-0.7-0.3-1-0.5c-0.3-0.2-0.5-0.5-0.7-0.9c-0.2-0.4-0.2-0.8-0.2-1.3c0-0.4,0.1-0.9,0.4-1.3c0.2-0.4,0.6-0.8,1.2-1.1
			c0.5-0.3,1.2-0.6,2.1-0.8c0.9-0.2,1.9-0.3,3.2-0.3v-0.9c0-0.9-0.2-1.5-0.6-2c-0.4-0.4-0.9-0.7-1.6-0.7c-0.5,0-0.9,0.1-1.2,0.2
			c-0.3,0.1-0.6,0.3-0.8,0.4s-0.4,0.3-0.6,0.4c-0.2,0.1-0.3,0.2-0.5,0.2c-0.1,0-0.2,0-0.3-0.1c-0.1-0.1-0.2-0.2-0.2-0.3L981,219.7z
			 M987.3,224.2c-0.9,0-1.7,0.1-2.3,0.2c-0.6,0.1-1.2,0.3-1.5,0.4c-0.4,0.2-0.7,0.4-0.9,0.6c-0.2,0.2-0.3,0.5-0.3,0.8
			c0,0.3,0,0.5,0.1,0.8c0.1,0.2,0.2,0.4,0.4,0.5c0.2,0.1,0.4,0.2,0.6,0.3s0.5,0.1,0.7,0.1c0.3,0,0.7,0,0.9-0.1
			c0.3-0.1,0.6-0.2,0.8-0.3s0.5-0.3,0.7-0.5c0.2-0.2,0.5-0.4,0.7-0.6V224.2z"/>
		<path class="st1" d="M1001.5,218.1l-6.2,14.4c-0.1,0.1-0.1,0.3-0.2,0.4c-0.1,0.1-0.3,0.1-0.5,0.1h-1.5l2-4.4l-4.6-10.5h1.7
			c0.2,0,0.3,0,0.4,0.1c0.1,0.1,0.2,0.2,0.2,0.3l3,7c0.1,0.3,0.2,0.6,0.3,1c0.1-0.3,0.2-0.7,0.3-1l2.9-7c0-0.1,0.1-0.2,0.2-0.3
			s0.2-0.1,0.4-0.1H1001.5z"/>
		<path class="st1" d="M1009.5,219.9c-0.1,0.2-0.2,0.2-0.4,0.2c-0.1,0-0.2,0-0.4-0.1c-0.1-0.1-0.3-0.2-0.5-0.3
			c-0.2-0.1-0.4-0.2-0.7-0.3c-0.3-0.1-0.6-0.1-1-0.1c-0.3,0-0.6,0-0.9,0.1c-0.3,0.1-0.5,0.2-0.7,0.3c-0.2,0.1-0.3,0.3-0.4,0.5
			c-0.1,0.2-0.1,0.4-0.1,0.6c0,0.3,0.1,0.5,0.2,0.7s0.4,0.4,0.7,0.5c0.3,0.1,0.6,0.3,0.9,0.4c0.3,0.1,0.7,0.2,1.1,0.3
			s0.7,0.3,1.1,0.4c0.3,0.1,0.7,0.3,0.9,0.5c0.3,0.2,0.5,0.5,0.7,0.8s0.2,0.7,0.2,1.1c0,0.5-0.1,1-0.3,1.4c-0.2,0.4-0.5,0.8-0.8,1.1
			c-0.4,0.3-0.8,0.6-1.3,0.8c-0.5,0.2-1.1,0.3-1.8,0.3c-0.8,0-1.5-0.1-2.1-0.4s-1.2-0.6-1.6-1l0.5-0.7c0.1-0.1,0.1-0.2,0.2-0.2
			c0.1-0.1,0.2-0.1,0.3-0.1c0.1,0,0.3,0.1,0.4,0.2s0.3,0.2,0.5,0.3c0.2,0.1,0.5,0.2,0.8,0.3c0.3,0.1,0.7,0.2,1.1,0.2
			c0.4,0,0.7,0,1-0.1c0.3-0.1,0.5-0.2,0.7-0.4c0.2-0.2,0.3-0.4,0.4-0.6c0.1-0.2,0.1-0.5,0.1-0.7c0-0.3-0.1-0.6-0.2-0.8
			c-0.2-0.2-0.4-0.4-0.7-0.5c-0.3-0.1-0.6-0.3-0.9-0.4s-0.7-0.2-1.1-0.3s-0.7-0.3-1.1-0.4c-0.3-0.1-0.7-0.3-0.9-0.6
			c-0.3-0.2-0.5-0.5-0.7-0.8c-0.2-0.3-0.2-0.7-0.2-1.2c0-0.4,0.1-0.8,0.3-1.2s0.4-0.7,0.8-1c0.3-0.3,0.8-0.5,1.2-0.7
			c0.5-0.2,1.1-0.3,1.7-0.3c0.7,0,1.4,0.1,2,0.3s1.1,0.5,1.5,1L1009.5,219.9z"/>
	</g>
	<g>
		<path class="st2" d="M943.8,160.5c0.8-0.2,1.6-0.3,2.3-0.3c0.8,0,1.5,0.1,2.2,0.4c0.6,0.2,1.2,0.6,1.6,1c0.4,0.4,0.7,0.9,1,1.5
			c0.2,0.6,0.3,1.2,0.3,1.9c0,0.8-0.1,1.6-0.4,2.3c-0.3,0.7-0.7,1.3-1.2,1.7s-1.1,0.8-1.8,1.1c-0.7,0.3-1.4,0.4-2.2,0.4
			c-0.5,0-0.9,0-1.3-0.1c-0.4-0.1-0.8-0.2-1.2-0.4c-0.4-0.2-0.7-0.3-1-0.5s-0.6-0.4-0.8-0.6l0.6-0.8c0.1-0.2,0.3-0.3,0.5-0.3
			c0.1,0,0.3,0.1,0.5,0.2c0.2,0.1,0.4,0.2,0.7,0.4s0.6,0.3,0.9,0.4s0.8,0.2,1.3,0.2c0.5,0,1-0.1,1.5-0.3c0.4-0.2,0.8-0.4,1.1-0.8
			c0.3-0.3,0.6-0.7,0.7-1.2s0.3-1,0.3-1.5c0-0.5-0.1-0.9-0.2-1.3c-0.1-0.4-0.4-0.7-0.6-1c-0.3-0.3-0.7-0.5-1.1-0.6
			c-0.4-0.2-0.9-0.2-1.5-0.2c-0.4,0-0.8,0-1.2,0.1c-0.4,0.1-0.9,0.2-1.3,0.3l-1.2-0.4l1.3-7.4h7.5v0.9c0,0.3-0.1,0.5-0.3,0.7
			s-0.5,0.3-0.9,0.3h-5L943.8,160.5z"/>
		<path class="st2" d="M966.2,158.4c0,0.6-0.1,1.2-0.3,1.7c-0.2,0.5-0.4,0.9-0.8,1.2c-0.3,0.3-0.7,0.6-1.1,0.8
			c-0.4,0.2-0.9,0.3-1.3,0.3c-0.5,0-1-0.1-1.4-0.3c-0.4-0.2-0.8-0.4-1.1-0.8s-0.6-0.7-0.7-1.2s-0.3-1-0.3-1.7c0-0.6,0.1-1.2,0.3-1.7
			c0.2-0.5,0.4-0.9,0.7-1.2c0.3-0.3,0.7-0.6,1.1-0.8c0.4-0.2,0.9-0.3,1.4-0.3c0.5,0,1,0.1,1.4,0.3c0.4,0.2,0.8,0.4,1.1,0.8
			c0.3,0.3,0.6,0.8,0.7,1.2C966.1,157.2,966.2,157.7,966.2,158.4z M971.7,154.9c0.1-0.1,0.2-0.2,0.3-0.2c0.1-0.1,0.2-0.1,0.4-0.1
			h1.4L962.3,170c-0.1,0.1-0.2,0.2-0.3,0.2s-0.2,0.1-0.4,0.1h-1.4L971.7,154.9z M964.6,158.4c0-0.5-0.1-0.9-0.2-1.2
			s-0.2-0.6-0.4-0.8c-0.2-0.2-0.4-0.4-0.6-0.5s-0.5-0.1-0.8-0.1c-0.3,0-0.5,0-0.8,0.1s-0.4,0.3-0.6,0.5c-0.2,0.2-0.3,0.5-0.4,0.8
			s-0.2,0.7-0.2,1.2c0,0.5,0.1,0.9,0.2,1.2s0.2,0.6,0.4,0.8c0.2,0.2,0.4,0.4,0.6,0.5s0.5,0.1,0.8,0.1c0.3,0,0.5,0,0.8-0.1
			s0.5-0.2,0.6-0.5c0.2-0.2,0.3-0.5,0.4-0.8S964.6,158.9,964.6,158.4z M974.9,166.6c0,0.6-0.1,1.2-0.3,1.7c-0.2,0.5-0.4,0.9-0.8,1.2
			c-0.3,0.3-0.7,0.6-1.1,0.8c-0.4,0.2-0.9,0.3-1.3,0.3c-0.5,0-1-0.1-1.4-0.3c-0.4-0.2-0.8-0.4-1.1-0.8c-0.3-0.3-0.6-0.7-0.7-1.2
			s-0.3-1-0.3-1.7c0-0.6,0.1-1.2,0.3-1.7s0.4-0.9,0.7-1.2c0.3-0.3,0.7-0.6,1.1-0.8s0.9-0.3,1.4-0.3c0.5,0,1,0.1,1.4,0.3
			s0.8,0.4,1.1,0.8s0.6,0.8,0.7,1.2S974.9,166,974.9,166.6z M973.4,166.6c0-0.5-0.1-0.9-0.2-1.2c-0.1-0.3-0.2-0.6-0.4-0.8
			c-0.2-0.2-0.4-0.4-0.6-0.5c-0.2-0.1-0.5-0.1-0.8-0.1c-0.3,0-0.5,0-0.8,0.1c-0.2,0.1-0.4,0.2-0.6,0.5c-0.2,0.2-0.3,0.5-0.4,0.8
			c-0.1,0.3-0.1,0.8-0.1,1.2c0,0.5,0,0.9,0.1,1.2c0.1,0.3,0.2,0.6,0.4,0.8s0.4,0.4,0.6,0.5s0.5,0.1,0.8,0.1c0.3,0,0.5,0,0.8-0.1
			s0.5-0.2,0.6-0.5s0.3-0.5,0.4-0.8C973.3,167.5,973.4,167.1,973.4,166.6z"/>
	</g>
</g>
<g>
	<rect x="647.5" y="77" class="st3" width="195" height="114"/>
	<g>
		<path class="st1" d="M704.1,221c1,0.3,1.7,0.7,2.3,1.4c0.5,0.7,0.8,1.5,0.8,2.5c0,0.7-0.1,1.3-0.4,1.9s-0.6,1-1.1,1.4
			c-0.5,0.4-1,0.7-1.7,0.9c-0.7,0.2-1.4,0.3-2.2,0.3c-0.8,0-1.5-0.1-2.2-0.3c-0.7-0.2-1.2-0.5-1.7-0.9c-0.5-0.4-0.8-0.9-1.1-1.4
			c-0.3-0.6-0.4-1.2-0.4-1.9c0-1,0.3-1.9,0.8-2.5c0.5-0.7,1.3-1.1,2.3-1.4c-0.8-0.3-1.5-0.8-1.9-1.4c-0.4-0.6-0.6-1.3-0.6-2.2
			c0-0.6,0.1-1.1,0.3-1.6c0.2-0.5,0.5-0.9,1-1.3c0.4-0.4,0.9-0.7,1.5-0.9c0.6-0.2,1.2-0.3,2-0.3c0.7,0,1.4,0.1,1.9,0.3
			c0.6,0.2,1.1,0.5,1.5,0.9c0.4,0.4,0.7,0.8,1,1.3c0.2,0.5,0.3,1,0.3,1.6c0,0.8-0.2,1.6-0.6,2.2C705.6,220.3,705,220.7,704.1,221z
			 M701.9,227.8c0.5,0,1-0.1,1.4-0.2c0.4-0.1,0.8-0.3,1-0.6c0.3-0.3,0.5-0.6,0.6-0.9c0.2-0.4,0.2-0.8,0.2-1.2c0-0.5-0.1-1-0.3-1.4
			s-0.4-0.7-0.7-0.9c-0.3-0.2-0.7-0.4-1-0.5c-0.4-0.1-0.8-0.2-1.2-0.2c-0.4,0-0.8,0.1-1.2,0.2c-0.4,0.1-0.7,0.3-1,0.5
			c-0.3,0.2-0.5,0.6-0.7,0.9c-0.2,0.4-0.3,0.8-0.3,1.4c0,0.4,0.1,0.8,0.2,1.2s0.4,0.7,0.6,0.9c0.3,0.3,0.6,0.5,1,0.6
			S701.4,227.8,701.9,227.8z M701.9,214.8c-0.5,0-0.9,0.1-1.2,0.2c-0.4,0.1-0.7,0.3-0.9,0.6c-0.2,0.2-0.4,0.5-0.5,0.8
			c-0.1,0.3-0.2,0.7-0.2,1c0,0.4,0.1,0.7,0.2,1s0.3,0.6,0.5,0.9c0.2,0.3,0.5,0.5,0.9,0.6c0.4,0.2,0.8,0.2,1.3,0.2
			c0.5,0,0.9-0.1,1.3-0.2c0.4-0.2,0.7-0.4,0.9-0.6c0.2-0.3,0.4-0.6,0.5-0.9c0.1-0.3,0.2-0.7,0.2-1c0-0.4-0.1-0.7-0.2-1
			s-0.3-0.6-0.5-0.8c-0.2-0.2-0.5-0.4-0.9-0.6C702.8,214.9,702.3,214.8,701.9,214.8z"/>
		<path class="st1" d="M709.6,221.8h5.4v1.7h-5.4V221.8z"/>
		<path class="st1" d="M727.6,227.7v1.5h-8.4v-1.5h3.4V217c0-0.3,0-0.6,0-1l-2.8,2.4c-0.1,0.1-0.2,0.1-0.3,0.1c-0.1,0-0.2,0-0.3,0
			s-0.2,0-0.2-0.1c-0.1,0-0.1-0.1-0.2-0.1l-0.6-0.8l4.7-4.1h1.6v14.3H727.6z"/>
		<path class="st1" d="M741.3,223.5v1.1c0,0.1,0,0.2-0.1,0.3c-0.1,0.1-0.2,0.1-0.3,0.1h-2v4.1h-1.7v-4.1h-7c-0.1,0-0.3,0-0.4-0.1
			c-0.1-0.1-0.2-0.2-0.2-0.3l-0.2-1l7.7-10.2h1.8v10.1H741.3z M737.2,223.5v-6.5c0-0.2,0-0.4,0-0.6c0-0.2,0-0.5,0.1-0.7l-5.7,7.8
			H737.2z"/>
		<path class="st1" d="M763.2,221.4c0,1.2-0.2,2.3-0.6,3.2c-0.4,1-0.9,1.8-1.6,2.5c-0.7,0.7-1.5,1.2-2.5,1.6c-1,0.4-2,0.6-3.2,0.6
			h-5.9v-15.7h5.9c1.2,0,2.2,0.2,3.2,0.6c1,0.4,1.8,0.9,2.5,1.6c0.7,0.7,1.2,1.5,1.6,2.5C763,219.1,763.2,220.2,763.2,221.4z
			 M761,221.4c0-1-0.1-1.8-0.4-2.6s-0.6-1.4-1.1-1.9s-1.1-0.9-1.8-1.2s-1.5-0.4-2.3-0.4h-3.7v12.3h3.7c0.8,0,1.6-0.1,2.3-0.4
			s1.3-0.7,1.8-1.2c0.5-0.5,0.9-1.2,1.1-1.9S761,222.3,761,221.4z"/>
		<path class="st1" d="M765.2,219.7c0.6-0.6,1.3-1,2-1.3c0.7-0.3,1.5-0.4,2.4-0.4c0.6,0,1.2,0.1,1.7,0.3s0.9,0.5,1.2,0.9
			c0.3,0.4,0.6,0.8,0.7,1.3c0.2,0.5,0.3,1.1,0.3,1.7v7.1h-0.9c-0.2,0-0.3,0-0.4-0.1c-0.1-0.1-0.2-0.2-0.2-0.4l-0.2-1.1
			c-0.3,0.3-0.6,0.5-0.9,0.7c-0.3,0.2-0.6,0.4-0.9,0.5c-0.3,0.1-0.6,0.3-1,0.3c-0.3,0.1-0.7,0.1-1.2,0.1c-0.4,0-0.8-0.1-1.2-0.2
			c-0.4-0.1-0.7-0.3-1-0.5c-0.3-0.2-0.5-0.5-0.7-0.9c-0.2-0.4-0.2-0.8-0.2-1.3c0-0.4,0.1-0.9,0.4-1.3c0.2-0.4,0.6-0.8,1.2-1.1
			c0.5-0.3,1.2-0.6,2.1-0.8c0.9-0.2,1.9-0.3,3.2-0.3v-0.9c0-0.9-0.2-1.5-0.6-2c-0.4-0.4-0.9-0.7-1.6-0.7c-0.5,0-0.9,0.1-1.2,0.2
			c-0.3,0.1-0.6,0.3-0.8,0.4s-0.4,0.3-0.6,0.4c-0.2,0.1-0.3,0.2-0.5,0.2c-0.1,0-0.2,0-0.3-0.1c-0.1-0.1-0.2-0.2-0.2-0.3L765.2,219.7
			z M771.5,224.2c-0.9,0-1.7,0.1-2.3,0.2c-0.6,0.1-1.2,0.3-1.5,0.4c-0.4,0.2-0.7,0.4-0.9,0.6c-0.2,0.2-0.3,0.5-0.3,0.8
			c0,0.3,0,0.5,0.1,0.8c0.1,0.2,0.2,0.4,0.4,0.5c0.2,0.1,0.4,0.2,0.6,0.3s0.5,0.1,0.7,0.1c0.3,0,0.7,0,0.9-0.1
			c0.3-0.1,0.6-0.2,0.8-0.3s0.5-0.3,0.7-0.5c0.2-0.2,0.5-0.4,0.7-0.6V224.2z"/>
		<path class="st1" d="M785.8,218.1l-6.2,14.4c-0.1,0.1-0.1,0.3-0.2,0.4c-0.1,0.1-0.3,0.1-0.5,0.1h-1.5l2-4.4l-4.6-10.5h1.7
			c0.2,0,0.3,0,0.4,0.1c0.1,0.1,0.2,0.2,0.2,0.3l3,7c0.1,0.3,0.2,0.6,0.3,1c0.1-0.3,0.2-0.7,0.3-1l2.9-7c0-0.1,0.1-0.2,0.2-0.3
			s0.2-0.1,0.4-0.1H785.8z"/>
		<path class="st1" d="M793.8,219.9c-0.1,0.2-0.2,0.2-0.4,0.2c-0.1,0-0.2,0-0.4-0.1c-0.1-0.1-0.3-0.2-0.5-0.3
			c-0.2-0.1-0.4-0.2-0.7-0.3c-0.3-0.1-0.6-0.1-1-0.1c-0.3,0-0.6,0-0.9,0.1c-0.3,0.1-0.5,0.2-0.7,0.3c-0.2,0.1-0.3,0.3-0.4,0.5
			c-0.1,0.2-0.1,0.4-0.1,0.6c0,0.3,0.1,0.5,0.2,0.7s0.4,0.4,0.7,0.5c0.3,0.1,0.6,0.3,0.9,0.4c0.3,0.1,0.7,0.2,1.1,0.3
			s0.7,0.3,1.1,0.4c0.3,0.1,0.7,0.3,0.9,0.5c0.3,0.2,0.5,0.5,0.7,0.8s0.2,0.7,0.2,1.1c0,0.5-0.1,1-0.3,1.4c-0.2,0.4-0.5,0.8-0.8,1.1
			c-0.4,0.3-0.8,0.6-1.3,0.8c-0.5,0.2-1.1,0.3-1.8,0.3c-0.8,0-1.5-0.1-2.1-0.4s-1.2-0.6-1.6-1l0.5-0.7c0.1-0.1,0.1-0.2,0.2-0.2
			c0.1-0.1,0.2-0.1,0.3-0.1c0.1,0,0.3,0.1,0.4,0.2s0.3,0.2,0.5,0.3c0.2,0.1,0.5,0.2,0.8,0.3c0.3,0.1,0.7,0.2,1.1,0.2
			c0.4,0,0.7,0,1-0.1c0.3-0.1,0.5-0.2,0.7-0.4c0.2-0.2,0.3-0.4,0.4-0.6c0.1-0.2,0.1-0.5,0.1-0.7c0-0.3-0.1-0.6-0.2-0.8
			c-0.2-0.2-0.4-0.4-0.7-0.5c-0.3-0.1-0.6-0.3-0.9-0.4s-0.7-0.2-1.1-0.3s-0.7-0.3-1.1-0.4c-0.3-0.1-0.7-0.3-0.9-0.6
			c-0.3-0.2-0.5-0.5-0.7-0.8c-0.2-0.3-0.2-0.7-0.2-1.2c0-0.4,0.1-0.8,0.3-1.2s0.4-0.7,0.8-1c0.3-0.3,0.8-0.5,1.2-0.7
			c0.5-0.2,1.1-0.3,1.7-0.3c0.7,0,1.4,0.1,2,0.3s1.1,0.5,1.5,1L793.8,219.9z"/>
	</g>
	<g>
		<path class="st2" d="M734,138.8v1.5h-8.4v-1.5h3.4v-10.7c0-0.3,0-0.6,0-1l-2.8,2.4c-0.1,0.1-0.2,0.1-0.3,0.1c-0.1,0-0.2,0-0.3,0
			c-0.1,0-0.2,0-0.2-0.1s-0.1-0.1-0.2-0.1l-0.6-0.8l4.7-4.1h1.6v14.3H734z"/>
		<path class="st2" d="M747.7,132.5c0,1.4-0.1,2.6-0.4,3.6s-0.7,1.8-1.2,2.5s-1.1,1.2-1.8,1.5c-0.7,0.3-1.5,0.5-2.2,0.5
			c-0.8,0-1.6-0.2-2.3-0.5c-0.7-0.3-1.3-0.8-1.8-1.5c-0.5-0.7-0.9-1.5-1.2-2.5s-0.4-2.2-0.4-3.6c0-1.4,0.1-2.6,0.4-3.6
			c0.3-1,0.7-1.8,1.2-2.5c0.5-0.7,1.1-1.2,1.8-1.5s1.4-0.5,2.3-0.5c0.8,0,1.5,0.2,2.2,0.5s1.3,0.8,1.8,1.5c0.5,0.7,0.9,1.5,1.2,2.5
			C747.5,129.9,747.7,131.1,747.7,132.5z M745.7,132.5c0-1.2-0.1-2.2-0.3-3c-0.2-0.8-0.5-1.5-0.8-2s-0.7-0.9-1.2-1.1
			s-0.9-0.3-1.4-0.3c-0.5,0-1,0.1-1.4,0.3c-0.4,0.2-0.8,0.6-1.2,1.1c-0.3,0.5-0.6,1.2-0.8,2c-0.2,0.8-0.3,1.8-0.3,3
			c0,1.2,0.1,2.2,0.3,3c0.2,0.8,0.5,1.5,0.8,2c0.3,0.5,0.7,0.9,1.2,1.1c0.4,0.2,0.9,0.3,1.4,0.3c0.5,0,0.9-0.1,1.4-0.3
			c0.4-0.2,0.8-0.6,1.2-1.1c0.3-0.5,0.6-1.2,0.8-2S745.7,133.7,745.7,132.5z"/>
		<path class="st2" d="M761.9,128.4c0,0.6-0.1,1.2-0.3,1.7c-0.2,0.5-0.4,0.9-0.8,1.2c-0.3,0.3-0.7,0.6-1.1,0.8
			c-0.4,0.2-0.9,0.3-1.3,0.3c-0.5,0-1-0.1-1.4-0.3c-0.4-0.2-0.8-0.4-1.1-0.8c-0.3-0.3-0.6-0.7-0.7-1.2s-0.3-1-0.3-1.7
			c0-0.6,0.1-1.2,0.3-1.7c0.2-0.5,0.4-0.9,0.7-1.2s0.7-0.6,1.1-0.8c0.4-0.2,0.9-0.3,1.4-0.3c0.5,0,1,0.1,1.4,0.3
			c0.4,0.2,0.8,0.4,1.1,0.8s0.6,0.8,0.7,1.2C761.8,127.2,761.9,127.7,761.9,128.4z M767.5,124.9c0.1-0.1,0.2-0.2,0.3-0.2
			c0.1-0.1,0.2-0.1,0.4-0.1h1.4L758.1,140c-0.1,0.1-0.2,0.2-0.3,0.2s-0.2,0.1-0.4,0.1H756L767.5,124.9z M760.4,128.4
			c0-0.5-0.1-0.9-0.2-1.2s-0.2-0.6-0.4-0.8c-0.2-0.2-0.4-0.4-0.6-0.5s-0.5-0.1-0.8-0.1c-0.3,0-0.5,0-0.8,0.1s-0.4,0.3-0.6,0.5
			c-0.2,0.2-0.3,0.5-0.4,0.8s-0.2,0.7-0.2,1.2c0,0.5,0.1,0.9,0.2,1.2c0.1,0.3,0.2,0.6,0.4,0.8c0.2,0.2,0.4,0.4,0.6,0.5
			c0.2,0.1,0.5,0.1,0.8,0.1c0.3,0,0.5,0,0.8-0.1c0.2-0.1,0.5-0.2,0.6-0.5c0.2-0.2,0.3-0.5,0.4-0.8
			C760.4,129.3,760.4,128.9,760.4,128.4z M770.7,136.6c0,0.6-0.1,1.2-0.3,1.7c-0.2,0.5-0.4,0.9-0.8,1.2c-0.3,0.3-0.7,0.6-1.1,0.8
			c-0.4,0.2-0.9,0.3-1.3,0.3c-0.5,0-1-0.1-1.4-0.3c-0.4-0.2-0.8-0.4-1.1-0.8c-0.3-0.3-0.6-0.7-0.7-1.2s-0.3-1-0.3-1.7
			c0-0.6,0.1-1.2,0.3-1.7s0.4-0.9,0.7-1.2c0.3-0.3,0.7-0.6,1.1-0.8s0.9-0.3,1.4-0.3c0.5,0,1,0.1,1.4,0.3s0.8,0.4,1.1,0.8
			s0.6,0.8,0.7,1.2S770.7,136,770.7,136.6z M769.1,136.6c0-0.5-0.1-0.9-0.2-1.2c-0.1-0.3-0.2-0.6-0.4-0.8c-0.2-0.2-0.4-0.4-0.6-0.5
			c-0.2-0.1-0.5-0.1-0.8-0.1c-0.3,0-0.5,0-0.8,0.1c-0.2,0.1-0.4,0.2-0.6,0.5c-0.2,0.2-0.3,0.5-0.4,0.8c-0.1,0.3-0.1,0.8-0.1,1.2
			c0,0.5,0,0.9,0.1,1.2c0.1,0.3,0.2,0.6,0.4,0.8s0.4,0.4,0.6,0.5s0.5,0.1,0.8,0.1c0.3,0,0.5,0,0.8-0.1s0.5-0.2,0.6-0.5
			s0.3-0.5,0.4-0.8C769.1,137.5,769.1,137.1,769.1,136.6z"/>
	</g>
</g>
<g>
	<rect x="438.5" y="24" class="st4" width="194" height="167"/>
	<g>
		<path class="st1" d="M502.7,227.7v1.5h-8.4v-1.5h3.4V217c0-0.3,0-0.6,0-1l-2.8,2.4c-0.1,0.1-0.2,0.1-0.3,0.1c-0.1,0-0.2,0-0.3,0
			s-0.2,0-0.2-0.1c-0.1,0-0.1-0.1-0.2-0.1l-0.6-0.8l4.7-4.1h1.6v14.3H502.7z"/>
		<path class="st1" d="M505.6,221.8h5.4v1.7h-5.4V221.8z"/>
		<path class="st1" d="M524.3,213.5v0.9c0,0.2,0,0.5-0.1,0.6c-0.1,0.2-0.1,0.3-0.2,0.4l-6.5,13.2c-0.1,0.2-0.2,0.4-0.4,0.5
			s-0.4,0.2-0.7,0.2H515l6.6-13c0.1-0.2,0.2-0.4,0.3-0.5c0.1-0.2,0.2-0.3,0.3-0.4h-8.2c-0.1,0-0.2,0-0.3-0.1s-0.1-0.2-0.1-0.3v-1.3
			H524.3z"/>
		<path class="st1" d="M546.4,221.4c0,1.2-0.2,2.3-0.6,3.2s-0.9,1.8-1.6,2.5s-1.5,1.2-2.5,1.6c-1,0.4-2,0.6-3.2,0.6h-5.9v-15.7h5.9
			c1.2,0,2.2,0.2,3.2,0.6c1,0.4,1.8,0.9,2.5,1.6c0.7,0.7,1.2,1.5,1.6,2.5S546.4,220.2,546.4,221.4z M544.2,221.4
			c0-1-0.1-1.8-0.4-2.6s-0.6-1.4-1.1-1.9s-1.1-0.9-1.8-1.2s-1.5-0.4-2.3-0.4h-3.7v12.3h3.7c0.8,0,1.6-0.1,2.3-0.4s1.3-0.7,1.8-1.2
			c0.5-0.5,0.9-1.2,1.1-1.9S544.2,222.3,544.2,221.4z"/>
		<path class="st1" d="M548.5,219.7c0.6-0.6,1.3-1,2-1.3s1.5-0.4,2.4-0.4c0.6,0,1.2,0.1,1.7,0.3c0.5,0.2,0.9,0.5,1.2,0.9
			s0.6,0.8,0.7,1.3c0.2,0.5,0.3,1.1,0.3,1.7v7.1h-0.9c-0.2,0-0.3,0-0.4-0.1c-0.1-0.1-0.2-0.2-0.2-0.4l-0.2-1.1
			c-0.3,0.3-0.6,0.5-0.9,0.7c-0.3,0.2-0.6,0.4-0.9,0.5c-0.3,0.1-0.6,0.3-1,0.3s-0.7,0.1-1.2,0.1c-0.4,0-0.8-0.1-1.2-0.2
			c-0.4-0.1-0.7-0.3-1-0.5c-0.3-0.2-0.5-0.5-0.7-0.9c-0.2-0.4-0.2-0.8-0.2-1.3c0-0.4,0.1-0.9,0.4-1.3c0.2-0.4,0.6-0.8,1.2-1.1
			c0.5-0.3,1.2-0.6,2.1-0.8c0.9-0.2,1.9-0.3,3.2-0.3v-0.9c0-0.9-0.2-1.5-0.6-2s-0.9-0.7-1.6-0.7c-0.5,0-0.9,0.1-1.2,0.2
			c-0.3,0.1-0.6,0.3-0.8,0.4c-0.2,0.2-0.4,0.3-0.6,0.4c-0.2,0.1-0.3,0.2-0.5,0.2c-0.1,0-0.2,0-0.3-0.1s-0.2-0.2-0.2-0.3L548.5,219.7
			z M554.8,224.2c-0.9,0-1.7,0.1-2.3,0.2c-0.6,0.1-1.2,0.3-1.5,0.4c-0.4,0.2-0.7,0.4-0.9,0.6c-0.2,0.2-0.3,0.5-0.3,0.8
			c0,0.3,0,0.5,0.1,0.8c0.1,0.2,0.2,0.4,0.4,0.5c0.2,0.1,0.4,0.2,0.6,0.3c0.2,0.1,0.5,0.1,0.7,0.1c0.3,0,0.7,0,0.9-0.1
			c0.3-0.1,0.6-0.2,0.8-0.3c0.3-0.1,0.5-0.3,0.7-0.5c0.2-0.2,0.5-0.4,0.7-0.6V224.2z"/>
		<path class="st1" d="M569,218.1l-6.2,14.4c-0.1,0.1-0.1,0.3-0.2,0.4c-0.1,0.1-0.3,0.1-0.5,0.1h-1.5l2-4.4l-4.6-10.5h1.7
			c0.2,0,0.3,0,0.4,0.1c0.1,0.1,0.2,0.2,0.2,0.3l3,7c0.1,0.3,0.2,0.6,0.3,1c0.1-0.3,0.2-0.7,0.3-1l2.9-7c0-0.1,0.1-0.2,0.2-0.3
			s0.2-0.1,0.4-0.1H569z"/>
		<path class="st1" d="M577,219.9c-0.1,0.2-0.2,0.2-0.4,0.2c-0.1,0-0.2,0-0.4-0.1c-0.1-0.1-0.3-0.2-0.5-0.3
			c-0.2-0.1-0.4-0.2-0.7-0.3c-0.3-0.1-0.6-0.1-1-0.1c-0.3,0-0.6,0-0.9,0.1c-0.3,0.1-0.5,0.2-0.7,0.3c-0.2,0.1-0.3,0.3-0.4,0.5
			c-0.1,0.2-0.1,0.4-0.1,0.6c0,0.3,0.1,0.5,0.2,0.7s0.4,0.4,0.7,0.5c0.3,0.1,0.6,0.3,0.9,0.4c0.3,0.1,0.7,0.2,1.1,0.3
			s0.7,0.3,1.1,0.4c0.3,0.1,0.7,0.3,0.9,0.5c0.3,0.2,0.5,0.5,0.7,0.8s0.2,0.7,0.2,1.1c0,0.5-0.1,1-0.3,1.4c-0.2,0.4-0.5,0.8-0.8,1.1
			c-0.4,0.3-0.8,0.6-1.3,0.8c-0.5,0.2-1.1,0.3-1.8,0.3c-0.8,0-1.5-0.1-2.1-0.4s-1.2-0.6-1.6-1l0.5-0.7c0.1-0.1,0.1-0.2,0.2-0.2
			c0.1-0.1,0.2-0.1,0.3-0.1c0.1,0,0.3,0.1,0.4,0.2s0.3,0.2,0.5,0.3c0.2,0.1,0.5,0.2,0.8,0.3c0.3,0.1,0.7,0.2,1.1,0.2
			c0.4,0,0.7,0,1-0.1c0.3-0.1,0.5-0.2,0.7-0.4c0.2-0.2,0.3-0.4,0.4-0.6c0.1-0.2,0.1-0.5,0.1-0.7c0-0.3-0.1-0.6-0.2-0.8
			c-0.2-0.2-0.4-0.4-0.7-0.5c-0.3-0.1-0.6-0.3-0.9-0.4s-0.7-0.2-1.1-0.3s-0.7-0.3-1.1-0.4c-0.3-0.1-0.7-0.3-0.9-0.6
			c-0.3-0.2-0.5-0.5-0.7-0.8c-0.2-0.3-0.2-0.7-0.2-1.2c0-0.4,0.1-0.8,0.3-1.2s0.4-0.7,0.8-1c0.3-0.3,0.8-0.5,1.2-0.7
			c0.5-0.2,1.1-0.3,1.7-0.3c0.7,0,1.4,0.1,2,0.3s1.1,0.5,1.5,1L577,219.9z"/>
	</g>
	<g>
		<path class="st2" d="M522,111.8v1.5h-8.4v-1.5h3.4v-10.7c0-0.3,0-0.6,0-1l-2.8,2.4c-0.1,0.1-0.2,0.1-0.3,0.1c-0.1,0-0.2,0-0.3,0
			c-0.1,0-0.2,0-0.2-0.1c-0.1,0-0.1-0.1-0.2-0.1l-0.6-0.8l4.7-4.1h1.6v14.3H522z"/>
		<path class="st2" d="M527.6,103.5c0.8-0.2,1.6-0.3,2.3-0.3c0.8,0,1.5,0.1,2.2,0.4c0.6,0.2,1.2,0.6,1.6,1s0.7,0.9,1,1.5
			c0.2,0.6,0.3,1.2,0.3,1.9c0,0.8-0.1,1.6-0.4,2.3c-0.3,0.7-0.7,1.3-1.2,1.7s-1.1,0.8-1.8,1.1s-1.4,0.4-2.2,0.4
			c-0.5,0-0.9,0-1.3-0.1c-0.4-0.1-0.8-0.2-1.2-0.4c-0.4-0.2-0.7-0.3-1-0.5c-0.3-0.2-0.6-0.4-0.8-0.6l0.6-0.8
			c0.1-0.2,0.3-0.3,0.5-0.3c0.1,0,0.3,0.1,0.5,0.2c0.2,0.1,0.4,0.2,0.7,0.4c0.3,0.1,0.6,0.3,0.9,0.4c0.4,0.1,0.8,0.2,1.3,0.2
			c0.5,0,1-0.1,1.5-0.3s0.8-0.4,1.1-0.8s0.6-0.7,0.7-1.2c0.2-0.5,0.3-1,0.3-1.5c0-0.5-0.1-0.9-0.2-1.3s-0.4-0.7-0.6-1
			c-0.3-0.3-0.7-0.5-1.1-0.6c-0.4-0.2-0.9-0.2-1.5-0.2c-0.4,0-0.8,0-1.2,0.1c-0.4,0.1-0.9,0.2-1.3,0.3l-1.2-0.4l1.3-7.4h7.5v0.9
			c0,0.3-0.1,0.5-0.3,0.7s-0.5,0.3-0.9,0.3h-5L527.6,103.5z"/>
		<path class="st2" d="M549.9,101.4c0,0.6-0.1,1.2-0.3,1.7c-0.2,0.5-0.4,0.9-0.8,1.2c-0.3,0.3-0.7,0.6-1.1,0.8
			c-0.4,0.2-0.9,0.3-1.3,0.3c-0.5,0-0.9-0.1-1.4-0.3c-0.4-0.2-0.8-0.4-1.1-0.8c-0.3-0.3-0.6-0.7-0.7-1.2c-0.2-0.5-0.3-1-0.3-1.7
			c0-0.6,0.1-1.2,0.3-1.7c0.2-0.5,0.4-0.9,0.7-1.2s0.7-0.6,1.1-0.8c0.4-0.2,0.9-0.3,1.4-0.3c0.5,0,1,0.1,1.4,0.3
			c0.4,0.2,0.8,0.4,1.1,0.8s0.6,0.8,0.7,1.2C549.8,100.2,549.9,100.7,549.9,101.4z M555.5,97.9c0.1-0.1,0.2-0.2,0.3-0.2
			c0.1-0.1,0.2-0.1,0.4-0.1h1.4L546.1,113c-0.1,0.1-0.2,0.2-0.3,0.2s-0.2,0.1-0.4,0.1H544L555.5,97.9z M548.4,101.4
			c0-0.5-0.1-0.9-0.2-1.2c-0.1-0.3-0.2-0.6-0.4-0.8c-0.2-0.2-0.4-0.4-0.6-0.5c-0.2-0.1-0.5-0.1-0.8-0.1c-0.3,0-0.5,0-0.8,0.1
			c-0.2,0.1-0.4,0.3-0.6,0.5c-0.2,0.2-0.3,0.5-0.4,0.8s-0.2,0.7-0.2,1.2c0,0.5,0.1,0.9,0.2,1.2c0.1,0.3,0.2,0.6,0.4,0.8
			c0.2,0.2,0.4,0.4,0.6,0.5c0.2,0.1,0.5,0.1,0.8,0.1c0.3,0,0.5,0,0.8-0.1c0.2-0.1,0.5-0.2,0.6-0.5c0.2-0.2,0.3-0.5,0.4-0.8
			C548.4,102.3,548.4,101.9,548.4,101.4z M558.7,109.6c0,0.6-0.1,1.2-0.3,1.6c-0.2,0.5-0.4,0.9-0.8,1.2c-0.3,0.3-0.7,0.6-1.1,0.8
			c-0.4,0.2-0.9,0.3-1.3,0.3c-0.5,0-1-0.1-1.4-0.3c-0.4-0.2-0.8-0.4-1.1-0.8c-0.3-0.3-0.6-0.7-0.7-1.2s-0.3-1-0.3-1.6
			c0-0.6,0.1-1.2,0.3-1.7c0.2-0.5,0.4-0.9,0.7-1.2c0.3-0.3,0.7-0.6,1.1-0.8c0.4-0.2,0.9-0.3,1.4-0.3c0.5,0,1,0.1,1.4,0.3
			c0.4,0.2,0.8,0.4,1.1,0.8s0.6,0.8,0.7,1.2C558.6,108.4,558.7,109,558.7,109.6z M557.1,109.6c0-0.5-0.1-0.9-0.2-1.2
			c-0.1-0.3-0.2-0.6-0.4-0.8c-0.2-0.2-0.4-0.4-0.6-0.5s-0.5-0.1-0.8-0.1c-0.3,0-0.5,0-0.8,0.1s-0.4,0.2-0.6,0.5
			c-0.2,0.2-0.3,0.5-0.4,0.8c-0.1,0.3-0.1,0.8-0.1,1.2c0,0.5,0,0.9,0.1,1.2c0.1,0.3,0.2,0.6,0.4,0.8s0.4,0.4,0.6,0.5
			s0.5,0.1,0.8,0.1c0.3,0,0.5,0,0.8-0.1s0.5-0.2,0.6-0.5s0.3-0.5,0.4-0.8C557.1,110.5,557.1,110.1,557.1,109.6z"/>
	</g>
</g>
<g>
	<g>
		<path class="st1" d="M57,91h-8.9V25H57V91z"/>
		<path class="st1" d="M120.2,77.4c0.5,0,0.9,0.2,1.3,0.6l3.5,3.8c-2.7,3.1-6,5.6-9.8,7.3c-3.9,1.7-8.5,2.6-14,2.6
			c-4.7,0-9-0.8-12.9-2.5c-3.9-1.6-7.2-3.9-9.9-6.9c-2.7-3-4.8-6.5-6.4-10.7c-1.5-4.1-2.3-8.7-2.3-13.7c0-5,0.8-9.5,2.3-13.7
			s3.8-7.7,6.6-10.7c2.8-3,6.2-5.3,10.2-6.9c4-1.6,8.3-2.5,13.1-2.5c4.7,0,8.8,0.8,12.4,2.3c3.6,1.5,6.7,3.5,9.5,6.1l-2.9,4.1
			c-0.2,0.3-0.4,0.6-0.7,0.8c-0.3,0.2-0.7,0.3-1.2,0.3c-0.6,0-1.2-0.3-2-0.9c-0.8-0.6-1.8-1.3-3.1-2c-1.3-0.7-2.9-1.4-4.8-2
			S104.9,32,102,32c-3.4,0-6.5,0.6-9.3,1.8c-2.8,1.2-5.3,2.9-7.3,5.1c-2,2.2-3.6,5-4.8,8.2c-1.1,3.2-1.7,6.9-1.7,10.9
			c0,4.1,0.6,7.8,1.8,11c1.2,3.2,2.8,5.9,4.8,8.2c2,2.2,4.4,3.9,7.2,5.1c2.8,1.2,5.8,1.7,9,1.7c2,0,3.7-0.1,5.3-0.3
			c1.6-0.2,3-0.6,4.4-1.1c1.3-0.5,2.6-1.1,3.7-1.9c1.2-0.8,2.3-1.6,3.4-2.7C119.1,77.6,119.6,77.4,120.2,77.4z"/>
		<path class="st1" d="M195,58c0,4.9-0.8,9.5-2.3,13.6c-1.6,4.1-3.8,7.7-6.6,10.7c-2.9,3-6.3,5.3-10.3,6.9c-4,1.6-8.4,2.5-13.3,2.5
			c-4.8,0-9.3-0.8-13.3-2.5c-4-1.6-7.4-3.9-10.3-6.9c-2.9-3-5.1-6.5-6.6-10.7C130.7,67.5,130,63,130,58c0-4.9,0.8-9.5,2.3-13.6
			c1.6-4.1,3.8-7.7,6.6-10.7c2.9-3,6.3-5.3,10.3-7c4-1.7,8.4-2.5,13.3-2.5c4.8,0,9.3,0.8,13.3,2.5s7.4,4,10.3,7
			c2.9,3,5.1,6.6,6.6,10.7C194.2,48.6,195,53.1,195,58z M185.8,58c0-4-0.6-7.7-1.7-10.9c-1.1-3.2-2.7-5.9-4.7-8.2
			c-2-2.2-4.5-3.9-7.4-5.1c-2.9-1.2-6.1-1.8-9.7-1.8c-3.5,0-6.7,0.6-9.6,1.8c-2.9,1.2-5.3,2.9-7.4,5.1c-2,2.2-3.6,4.9-4.7,8.2
			c-1.1,3.2-1.7,6.9-1.7,10.9c0,4.1,0.6,7.7,1.7,10.9c1.1,3.2,2.7,5.9,4.7,8.1c2,2.2,4.5,3.9,7.4,5.1c2.9,1.2,6.1,1.8,9.6,1.8
			c3.6,0,6.8-0.6,9.7-1.8c2.9-1.2,5.3-2.9,7.4-5.1c2-2.2,3.6-4.9,4.7-8.1C185.3,65.7,185.8,62.1,185.8,58z"/>
	</g>
	<g>
		<path class="st1" d="M69.1,125c4.1,0,7.5,0.4,10.5,1.2c2.9,0.8,5.3,1.9,7.2,3.4c1.9,1.5,3.3,3.3,4.2,5.4c0.9,2.1,1.3,4.5,1.3,7.2
			c0,1.6-0.3,3.2-0.8,4.7c-0.5,1.5-1.3,2.9-2.3,4.2c-1,1.3-2.3,2.4-3.8,3.5c-1.5,1-3.4,1.9-5.5,2.5c4.8,0.9,8.5,2.6,10.9,5.2
			c2.4,2.5,3.7,5.9,3.7,10c0,2.8-0.5,5.3-1.5,7.6c-1,2.3-2.5,4.3-4.5,5.9s-4.4,2.9-7.3,3.8c-2.9,0.9-6.2,1.4-9.8,1.4H48.1V125H69.1z
			 M57,132.1v22.5h11.8c2.5,0,4.7-0.3,6.6-0.8c1.9-0.6,3.4-1.3,4.6-2.3c1.2-1,2.1-2.2,2.7-3.6c0.6-1.4,0.9-2.9,0.9-4.6
			c0-3.9-1.2-6.7-3.5-8.5c-2.3-1.8-6-2.7-10.9-2.7H57z M71.2,183.9c2.5,0,4.7-0.3,6.6-0.9s3.4-1.4,4.5-2.5c1.2-1.1,2-2.3,2.6-3.8
			c0.6-1.5,0.8-3.1,0.8-4.8c0-3.4-1.2-6.1-3.6-8.1c-2.4-2-6.1-3-10.9-3H57v23H71.2z"/>
		<path class="st1" d="M168.5,158c0,4.9-0.8,9.5-2.3,13.6c-1.6,4.1-3.8,7.7-6.6,10.7c-2.9,3-6.3,5.3-10.3,6.9
			c-4,1.6-8.4,2.5-13.3,2.5c-4.8,0-9.3-0.8-13.3-2.5c-4-1.6-7.4-3.9-10.3-6.9c-2.9-3-5.1-6.5-6.6-10.7c-1.6-4.1-2.3-8.7-2.3-13.6
			s0.8-9.5,2.3-13.6c1.6-4.1,3.8-7.7,6.6-10.7c2.9-3,6.3-5.3,10.3-7c4-1.7,8.4-2.5,13.3-2.5c4.8,0,9.3,0.8,13.3,2.5s7.4,4,10.3,7
			c2.9,3,5.1,6.6,6.6,10.7C167.7,148.6,168.5,153.1,168.5,158z M159.4,158c0-4.1-0.6-7.7-1.7-10.9c-1.1-3.2-2.7-5.9-4.7-8.2
			c-2-2.2-4.5-3.9-7.4-5.1c-2.9-1.2-6.1-1.8-9.7-1.8c-3.5,0-6.7,0.6-9.6,1.8c-2.9,1.2-5.3,2.9-7.4,5.1c-2,2.2-3.6,4.9-4.7,8.2
			c-1.1,3.2-1.7,6.9-1.7,10.9c0,4,0.6,7.7,1.7,10.9s2.7,5.9,4.7,8.1c2,2.2,4.5,3.9,7.4,5.1c2.9,1.2,6.1,1.8,9.6,1.8
			c3.6,0,6.8-0.6,9.7-1.8c2.9-1.2,5.3-2.9,7.4-5.1c2-2.2,3.6-4.9,4.7-8.1C158.8,165.7,159.4,162.1,159.4,158z"/>
		<path class="st1" d="M234.7,125V191h-4.5c-0.7,0-1.3-0.1-1.8-0.4c-0.5-0.2-0.9-0.7-1.4-1.2l-38.2-49.7c0.1,0.8,0.1,1.5,0.1,2.3
			c0,0.7,0,1.4,0,2.1v47h-7.8V125h4.6c0.4,0,0.7,0,1,0.1c0.3,0,0.5,0.1,0.7,0.2c0.2,0.1,0.4,0.3,0.6,0.5c0.2,0.2,0.4,0.5,0.7,0.8
			l38.2,49.7c-0.1-0.8-0.1-1.6-0.2-2.3c0-0.8-0.1-1.5-0.1-2.1V125H234.7z"/>
		<path class="st1" d="M277,183.9c2.7,0,5.2-0.5,7.3-1.4c2.1-0.9,4-2.2,5.5-3.9c1.5-1.7,2.6-3.6,3.4-5.9c0.8-2.3,1.2-4.8,1.2-7.6
			V125h8.9v40.1c0,3.8-0.6,7.3-1.8,10.6c-1.2,3.3-2.9,6.1-5.2,8.4c-2.3,2.4-5,4.2-8.3,5.6c-3.3,1.3-6.9,2-11,2c-4.1,0-7.7-0.7-11-2
			c-3.3-1.3-6-3.2-8.3-5.6c-2.3-2.4-4-5.2-5.2-8.4c-1.2-3.3-1.8-6.8-1.8-10.6V125h8.9v40c0,2.8,0.4,5.3,1.2,7.6
			c0.8,2.3,1.9,4.3,3.4,5.9c1.5,1.7,3.3,3,5.5,3.9S274.3,183.9,277,183.9z"/>
		<path class="st1" d="M353,135.3c-0.3,0.5-0.6,0.8-0.9,1c-0.3,0.2-0.7,0.3-1.2,0.3c-0.5,0-1.1-0.3-1.8-0.8
			c-0.7-0.5-1.6-1.1-2.6-1.7s-2.3-1.2-3.8-1.7c-1.5-0.5-3.3-0.8-5.4-0.8c-2,0-3.8,0.3-5.3,0.8c-1.5,0.5-2.8,1.3-3.8,2.2
			c-1,0.9-1.8,2-2.3,3.2c-0.5,1.2-0.8,2.6-0.8,4c0,1.8,0.5,3.4,1.4,4.6c0.9,1.2,2.1,2.2,3.6,3.1c1.5,0.9,3.2,1.6,5.1,2.2
			c1.9,0.6,3.8,1.3,5.8,2s3.9,1.4,5.8,2.3c1.9,0.8,3.6,1.9,5.1,3.2c1.5,1.3,2.7,2.9,3.6,4.7c0.9,1.9,1.4,4.2,1.4,6.9
			c0,2.9-0.5,5.6-1.5,8.1c-1,2.5-2.4,4.7-4.3,6.6c-1.9,1.9-4.2,3.3-6.9,4.4c-2.7,1.1-5.9,1.6-9.4,1.6c-4.3,0-8.2-0.8-11.7-2.3
			c-3.5-1.5-6.5-3.6-9-6.3l2.6-4.2c0.2-0.3,0.5-0.6,0.9-0.9c0.4-0.2,0.7-0.3,1.2-0.3c0.4,0,0.9,0.2,1.4,0.5s1.1,0.7,1.7,1.2
			c0.6,0.5,1.4,1,2.2,1.6c0.8,0.6,1.8,1.1,2.8,1.6c1.1,0.5,2.3,0.9,3.6,1.2c1.3,0.3,2.9,0.5,4.6,0.5c2.1,0,4-0.3,5.7-0.9
			c1.7-0.6,3.1-1.4,4.2-2.5c1.2-1.1,2-2.3,2.6-3.8c0.6-1.5,0.9-3.1,0.9-4.9c0-2-0.5-3.6-1.4-4.9c-0.9-1.3-2.1-2.3-3.6-3.2
			s-3.2-1.6-5.1-2.2c-1.9-0.6-3.8-1.2-5.8-1.8c-2-0.6-3.9-1.4-5.8-2.2c-1.9-0.8-3.6-1.9-5.1-3.2c-1.5-1.3-2.7-3-3.6-4.9
			c-0.9-2-1.4-4.4-1.4-7.3c0-2.3,0.5-4.6,1.4-6.8c0.9-2.2,2.2-4.1,4-5.8c1.7-1.7,3.9-3,6.4-4s5.4-1.5,8.7-1.5c3.7,0,7,0.6,10.1,1.7
			c3,1.2,5.7,2.9,8,5.1L353,135.3z"/>
	</g>
</g>
</svg>
