<?xml version="1.0" encoding="utf-8"?>
<!-- Generator: Adobe Illustrator 16.0.0, SVG Export Plug-In . SVG Version: 6.00 Build 0)  -->
<!DOCTYPE svg PUBLIC "-//W3C//DTD SVG 1.1//EN" "http://www.w3.org/Graphics/SVG/1.1/DTD/svg11.dtd">
<svg version="1.1" id="Layer_1" xmlns="http://www.w3.org/2000/svg" xmlns:xlink="http://www.w3.org/1999/xlink" x="0px" y="0px"
	 width="90px" height="260px" viewBox="0 0 90 260" enable-background="new 0 0 90 260" xml:space="preserve">
<g>
	<g id="_x35_._60_-_100_млн">
		<g id="Монета_81_">
			
				<rect id="Монета_82_" x="7.38" y="247.76" fill="#FFFFFF" stroke="#1F7BC0" stroke-miterlimit="10" width="75" height="10"/>
			<g id="Рёбра_40_">
				<line fill="none" stroke="#1F7BC0" stroke-miterlimit="10" x1="9.317" y1="249.422" x2="9.317" y2="256.109"/>
				<line fill="none" stroke="#1F7BC0" stroke-miterlimit="10" x1="11.005" y1="249.422" x2="11.005" y2="256.109"/>
				<line fill="none" stroke="#1F7BC0" stroke-miterlimit="10" x1="12.817" y1="249.422" x2="12.817" y2="256.109"/>
				<line fill="none" stroke="#1F7BC0" stroke-miterlimit="10" x1="14.88" y1="249.422" x2="14.88" y2="256.109"/>
				<line fill="none" stroke="#1F7BC0" stroke-miterlimit="10" x1="17.192" y1="249.422" x2="17.192" y2="256.109"/>
				<line fill="none" stroke="#1F7BC0" stroke-miterlimit="10" x1="19.692" y1="249.422" x2="19.692" y2="256.109"/>
				<line fill="none" stroke="#1F7BC0" stroke-miterlimit="10" x1="23.13" y1="249.422" x2="23.13" y2="256.109"/>
				<line fill="none" stroke="#1F7BC0" stroke-miterlimit="10" x1="26.88" y1="249.422" x2="26.88" y2="256.109"/>
				<line fill="none" stroke="#1F7BC0" stroke-miterlimit="10" x1="31.214" y1="249.422" x2="31.214" y2="256.109"/>
				<line fill="none" stroke="#1F7BC0" stroke-miterlimit="10" x1="80.714" y1="249.422" x2="80.714" y2="256.109"/>
				<line fill="none" stroke="#1F7BC0" stroke-miterlimit="10" x1="78.63" y1="249.422" x2="78.63" y2="256.109"/>
				<line fill="none" stroke="#1F7BC0" stroke-miterlimit="10" x1="75.38" y1="249.422" x2="75.38" y2="256.109"/>
				<line fill="none" stroke="#1F7BC0" stroke-miterlimit="10" x1="71.005" y1="249.422" x2="71.005" y2="256.109"/>
				<line fill="none" stroke="#1F7BC0" stroke-miterlimit="10" x1="65.922" y1="249.422" x2="65.922" y2="256.109"/>
			</g>
		</g>
		<g id="Монета_79_">
			
				<rect id="Монета_80_" x="7.38" y="237.76" fill="#FFFFFF" stroke="#1F7BC0" stroke-miterlimit="10" width="75" height="10"/>
			<g id="Рёбра_39_">
				<line fill="none" stroke="#1F7BC0" stroke-miterlimit="10" x1="9.317" y1="239.422" x2="9.317" y2="246.109"/>
				<line fill="none" stroke="#1F7BC0" stroke-miterlimit="10" x1="11.005" y1="239.422" x2="11.005" y2="246.109"/>
				<line fill="none" stroke="#1F7BC0" stroke-miterlimit="10" x1="12.817" y1="239.422" x2="12.817" y2="246.109"/>
				<line fill="none" stroke="#1F7BC0" stroke-miterlimit="10" x1="14.88" y1="239.422" x2="14.88" y2="246.109"/>
				<line fill="none" stroke="#1F7BC0" stroke-miterlimit="10" x1="17.192" y1="239.422" x2="17.192" y2="246.109"/>
				<line fill="none" stroke="#1F7BC0" stroke-miterlimit="10" x1="19.692" y1="239.422" x2="19.692" y2="246.109"/>
				<line fill="none" stroke="#1F7BC0" stroke-miterlimit="10" x1="23.13" y1="239.422" x2="23.13" y2="246.109"/>
				<line fill="none" stroke="#1F7BC0" stroke-miterlimit="10" x1="26.88" y1="239.422" x2="26.88" y2="246.109"/>
				<line fill="none" stroke="#1F7BC0" stroke-miterlimit="10" x1="31.214" y1="239.422" x2="31.214" y2="246.109"/>
				<line fill="none" stroke="#1F7BC0" stroke-miterlimit="10" x1="80.714" y1="239.422" x2="80.714" y2="246.109"/>
				<line fill="none" stroke="#1F7BC0" stroke-miterlimit="10" x1="78.63" y1="239.422" x2="78.63" y2="246.109"/>
				<line fill="none" stroke="#1F7BC0" stroke-miterlimit="10" x1="75.38" y1="239.422" x2="75.38" y2="246.109"/>
				<line fill="none" stroke="#1F7BC0" stroke-miterlimit="10" x1="71.005" y1="239.422" x2="71.005" y2="246.109"/>
				<line fill="none" stroke="#1F7BC0" stroke-miterlimit="10" x1="65.922" y1="239.422" x2="65.922" y2="246.109"/>
			</g>
		</g>
		<g id="Монета_77_">
			
				<rect id="Монета_78_" x="7.38" y="227.76" fill="#FFFFFF" stroke="#1F7BC0" stroke-miterlimit="10" width="75" height="10"/>
			<g id="Рёбра_38_">
				<line fill="none" stroke="#1F7BC0" stroke-miterlimit="10" x1="9.317" y1="229.422" x2="9.317" y2="236.109"/>
				<line fill="none" stroke="#1F7BC0" stroke-miterlimit="10" x1="11.005" y1="229.422" x2="11.005" y2="236.109"/>
				<line fill="none" stroke="#1F7BC0" stroke-miterlimit="10" x1="12.817" y1="229.422" x2="12.817" y2="236.109"/>
				<line fill="none" stroke="#1F7BC0" stroke-miterlimit="10" x1="14.88" y1="229.422" x2="14.88" y2="236.109"/>
				<line fill="none" stroke="#1F7BC0" stroke-miterlimit="10" x1="17.192" y1="229.422" x2="17.192" y2="236.109"/>
				<line fill="none" stroke="#1F7BC0" stroke-miterlimit="10" x1="19.692" y1="229.422" x2="19.692" y2="236.109"/>
				<line fill="none" stroke="#1F7BC0" stroke-miterlimit="10" x1="23.13" y1="229.422" x2="23.13" y2="236.109"/>
				<line fill="none" stroke="#1F7BC0" stroke-miterlimit="10" x1="26.88" y1="229.422" x2="26.88" y2="236.109"/>
				<line fill="none" stroke="#1F7BC0" stroke-miterlimit="10" x1="31.214" y1="229.422" x2="31.214" y2="236.109"/>
				<line fill="none" stroke="#1F7BC0" stroke-miterlimit="10" x1="80.714" y1="229.422" x2="80.714" y2="236.109"/>
				<line fill="none" stroke="#1F7BC0" stroke-miterlimit="10" x1="78.63" y1="229.422" x2="78.63" y2="236.109"/>
				<line fill="none" stroke="#1F7BC0" stroke-miterlimit="10" x1="75.38" y1="229.422" x2="75.38" y2="236.109"/>
				<line fill="none" stroke="#1F7BC0" stroke-miterlimit="10" x1="71.005" y1="229.422" x2="71.005" y2="236.109"/>
				<line fill="none" stroke="#1F7BC0" stroke-miterlimit="10" x1="65.922" y1="229.422" x2="65.922" y2="236.109"/>
			</g>
		</g>
		<g id="Монета_75_">
			
				<rect id="Монета_76_" x="7.38" y="217.76" fill="#FFFFFF" stroke="#1F7BC0" stroke-miterlimit="10" width="75" height="10"/>
			<g id="Рёбра_37_">
				<line fill="none" stroke="#1F7BC0" stroke-miterlimit="10" x1="9.317" y1="219.422" x2="9.317" y2="226.109"/>
				<line fill="none" stroke="#1F7BC0" stroke-miterlimit="10" x1="11.005" y1="219.422" x2="11.005" y2="226.109"/>
				<line fill="none" stroke="#1F7BC0" stroke-miterlimit="10" x1="12.817" y1="219.422" x2="12.817" y2="226.109"/>
				<line fill="none" stroke="#1F7BC0" stroke-miterlimit="10" x1="14.88" y1="219.422" x2="14.88" y2="226.109"/>
				<line fill="none" stroke="#1F7BC0" stroke-miterlimit="10" x1="17.192" y1="219.422" x2="17.192" y2="226.109"/>
				<line fill="none" stroke="#1F7BC0" stroke-miterlimit="10" x1="19.692" y1="219.422" x2="19.692" y2="226.109"/>
				<line fill="none" stroke="#1F7BC0" stroke-miterlimit="10" x1="23.13" y1="219.422" x2="23.13" y2="226.109"/>
				<line fill="none" stroke="#1F7BC0" stroke-miterlimit="10" x1="26.88" y1="219.422" x2="26.88" y2="226.109"/>
				<line fill="none" stroke="#1F7BC0" stroke-miterlimit="10" x1="31.214" y1="219.422" x2="31.214" y2="226.109"/>
				<line fill="none" stroke="#1F7BC0" stroke-miterlimit="10" x1="80.714" y1="219.422" x2="80.714" y2="226.109"/>
				<line fill="none" stroke="#1F7BC0" stroke-miterlimit="10" x1="78.63" y1="219.422" x2="78.63" y2="226.109"/>
				<line fill="none" stroke="#1F7BC0" stroke-miterlimit="10" x1="75.38" y1="219.422" x2="75.38" y2="226.109"/>
				<line fill="none" stroke="#1F7BC0" stroke-miterlimit="10" x1="71.005" y1="219.422" x2="71.005" y2="226.109"/>
				<line fill="none" stroke="#1F7BC0" stroke-miterlimit="10" x1="65.922" y1="219.422" x2="65.922" y2="226.109"/>
			</g>
		</g>
		<g id="Монета_73_">
			
				<rect id="Монета_74_" x="7.38" y="207.76" fill="#FFFFFF" stroke="#1F7BC0" stroke-miterlimit="10" width="75" height="10"/>
			<g id="Рёбра_36_">
				<line fill="none" stroke="#1F7BC0" stroke-miterlimit="10" x1="9.317" y1="209.422" x2="9.317" y2="216.109"/>
				<line fill="none" stroke="#1F7BC0" stroke-miterlimit="10" x1="11.005" y1="209.422" x2="11.005" y2="216.109"/>
				<line fill="none" stroke="#1F7BC0" stroke-miterlimit="10" x1="12.817" y1="209.422" x2="12.817" y2="216.109"/>
				<line fill="none" stroke="#1F7BC0" stroke-miterlimit="10" x1="14.88" y1="209.422" x2="14.88" y2="216.109"/>
				<line fill="none" stroke="#1F7BC0" stroke-miterlimit="10" x1="17.192" y1="209.422" x2="17.192" y2="216.109"/>
				<line fill="none" stroke="#1F7BC0" stroke-miterlimit="10" x1="19.692" y1="209.422" x2="19.692" y2="216.109"/>
				<line fill="none" stroke="#1F7BC0" stroke-miterlimit="10" x1="23.13" y1="209.422" x2="23.13" y2="216.109"/>
				<line fill="none" stroke="#1F7BC0" stroke-miterlimit="10" x1="26.88" y1="209.422" x2="26.88" y2="216.109"/>
				<line fill="none" stroke="#1F7BC0" stroke-miterlimit="10" x1="31.214" y1="209.422" x2="31.214" y2="216.109"/>
				<line fill="none" stroke="#1F7BC0" stroke-miterlimit="10" x1="80.714" y1="209.422" x2="80.714" y2="216.109"/>
				<line fill="none" stroke="#1F7BC0" stroke-miterlimit="10" x1="78.63" y1="209.422" x2="78.63" y2="216.109"/>
				<line fill="none" stroke="#1F7BC0" stroke-miterlimit="10" x1="75.38" y1="209.422" x2="75.38" y2="216.109"/>
				<line fill="none" stroke="#1F7BC0" stroke-miterlimit="10" x1="71.005" y1="209.422" x2="71.005" y2="216.109"/>
				<line fill="none" stroke="#1F7BC0" stroke-miterlimit="10" x1="65.922" y1="209.422" x2="65.922" y2="216.109"/>
			</g>
		</g>
		<g id="Монета_71_">
			
				<rect id="Монета_72_" x="7.38" y="197.76" fill="#FFFFFF" stroke="#1F7BC0" stroke-miterlimit="10" width="75" height="10"/>
			<g id="Рёбра_35_">
				<line fill="none" stroke="#1F7BC0" stroke-miterlimit="10" x1="9.317" y1="199.422" x2="9.317" y2="206.109"/>
				<line fill="none" stroke="#1F7BC0" stroke-miterlimit="10" x1="11.005" y1="199.422" x2="11.005" y2="206.109"/>
				<line fill="none" stroke="#1F7BC0" stroke-miterlimit="10" x1="12.817" y1="199.422" x2="12.817" y2="206.109"/>
				<line fill="none" stroke="#1F7BC0" stroke-miterlimit="10" x1="14.88" y1="199.422" x2="14.88" y2="206.109"/>
				<line fill="none" stroke="#1F7BC0" stroke-miterlimit="10" x1="17.192" y1="199.422" x2="17.192" y2="206.109"/>
				<line fill="none" stroke="#1F7BC0" stroke-miterlimit="10" x1="19.692" y1="199.422" x2="19.692" y2="206.109"/>
				<line fill="none" stroke="#1F7BC0" stroke-miterlimit="10" x1="23.13" y1="199.422" x2="23.13" y2="206.109"/>
				<line fill="none" stroke="#1F7BC0" stroke-miterlimit="10" x1="26.88" y1="199.422" x2="26.88" y2="206.109"/>
				<line fill="none" stroke="#1F7BC0" stroke-miterlimit="10" x1="31.214" y1="199.422" x2="31.214" y2="206.109"/>
				<line fill="none" stroke="#1F7BC0" stroke-miterlimit="10" x1="80.714" y1="199.422" x2="80.714" y2="206.109"/>
				<line fill="none" stroke="#1F7BC0" stroke-miterlimit="10" x1="78.63" y1="199.422" x2="78.63" y2="206.109"/>
				<line fill="none" stroke="#1F7BC0" stroke-miterlimit="10" x1="75.38" y1="199.422" x2="75.38" y2="206.109"/>
				<line fill="none" stroke="#1F7BC0" stroke-miterlimit="10" x1="71.005" y1="199.422" x2="71.005" y2="206.109"/>
				<line fill="none" stroke="#1F7BC0" stroke-miterlimit="10" x1="65.922" y1="199.422" x2="65.922" y2="206.109"/>
			</g>
		</g>
		<g id="Монета_69_">
			
				<rect id="Монета_70_" x="7.38" y="187.76" fill="#FFFFFF" stroke="#1F7BC0" stroke-miterlimit="10" width="75" height="10"/>
			<g id="Рёбра_34_">
				<line fill="none" stroke="#1F7BC0" stroke-miterlimit="10" x1="9.317" y1="189.422" x2="9.317" y2="196.109"/>
				<line fill="none" stroke="#1F7BC0" stroke-miterlimit="10" x1="11.005" y1="189.422" x2="11.005" y2="196.109"/>
				<line fill="none" stroke="#1F7BC0" stroke-miterlimit="10" x1="12.817" y1="189.422" x2="12.817" y2="196.109"/>
				<line fill="none" stroke="#1F7BC0" stroke-miterlimit="10" x1="14.88" y1="189.422" x2="14.88" y2="196.109"/>
				<line fill="none" stroke="#1F7BC0" stroke-miterlimit="10" x1="17.192" y1="189.422" x2="17.192" y2="196.109"/>
				<line fill="none" stroke="#1F7BC0" stroke-miterlimit="10" x1="19.692" y1="189.422" x2="19.692" y2="196.109"/>
				<line fill="none" stroke="#1F7BC0" stroke-miterlimit="10" x1="23.13" y1="189.422" x2="23.13" y2="196.109"/>
				<line fill="none" stroke="#1F7BC0" stroke-miterlimit="10" x1="26.88" y1="189.422" x2="26.88" y2="196.109"/>
				<line fill="none" stroke="#1F7BC0" stroke-miterlimit="10" x1="31.214" y1="189.422" x2="31.214" y2="196.109"/>
				<line fill="none" stroke="#1F7BC0" stroke-miterlimit="10" x1="80.714" y1="189.422" x2="80.714" y2="196.109"/>
				<line fill="none" stroke="#1F7BC0" stroke-miterlimit="10" x1="78.63" y1="189.422" x2="78.63" y2="196.109"/>
				<line fill="none" stroke="#1F7BC0" stroke-miterlimit="10" x1="75.38" y1="189.422" x2="75.38" y2="196.109"/>
				<line fill="none" stroke="#1F7BC0" stroke-miterlimit="10" x1="71.005" y1="189.422" x2="71.005" y2="196.109"/>
				<line fill="none" stroke="#1F7BC0" stroke-miterlimit="10" x1="65.922" y1="189.422" x2="65.922" y2="196.109"/>
			</g>
		</g>
		<g id="Монета_67_">
			
				<rect id="Монета_68_" x="7.38" y="177.76" fill="#FFFFFF" stroke="#1F7BC0" stroke-miterlimit="10" width="75" height="10"/>
			<g id="Рёбра_33_">
				<line fill="none" stroke="#1F7BC0" stroke-miterlimit="10" x1="9.317" y1="179.422" x2="9.317" y2="186.109"/>
				<line fill="none" stroke="#1F7BC0" stroke-miterlimit="10" x1="11.005" y1="179.422" x2="11.005" y2="186.109"/>
				<line fill="none" stroke="#1F7BC0" stroke-miterlimit="10" x1="12.817" y1="179.422" x2="12.817" y2="186.109"/>
				<line fill="none" stroke="#1F7BC0" stroke-miterlimit="10" x1="14.88" y1="179.422" x2="14.88" y2="186.109"/>
				<line fill="none" stroke="#1F7BC0" stroke-miterlimit="10" x1="17.192" y1="179.422" x2="17.192" y2="186.109"/>
				<line fill="none" stroke="#1F7BC0" stroke-miterlimit="10" x1="19.692" y1="179.422" x2="19.692" y2="186.109"/>
				<line fill="none" stroke="#1F7BC0" stroke-miterlimit="10" x1="23.13" y1="179.422" x2="23.13" y2="186.109"/>
				<line fill="none" stroke="#1F7BC0" stroke-miterlimit="10" x1="26.88" y1="179.422" x2="26.88" y2="186.109"/>
				<line fill="none" stroke="#1F7BC0" stroke-miterlimit="10" x1="31.214" y1="179.422" x2="31.214" y2="186.109"/>
				<line fill="none" stroke="#1F7BC0" stroke-miterlimit="10" x1="80.714" y1="179.422" x2="80.714" y2="186.109"/>
				<line fill="none" stroke="#1F7BC0" stroke-miterlimit="10" x1="78.63" y1="179.422" x2="78.63" y2="186.109"/>
				<line fill="none" stroke="#1F7BC0" stroke-miterlimit="10" x1="75.38" y1="179.422" x2="75.38" y2="186.109"/>
				<line fill="none" stroke="#1F7BC0" stroke-miterlimit="10" x1="71.005" y1="179.422" x2="71.005" y2="186.109"/>
				<line fill="none" stroke="#1F7BC0" stroke-miterlimit="10" x1="65.922" y1="179.422" x2="65.922" y2="186.109"/>
			</g>
		</g>
		<g id="Монета_65_">
			
				<rect id="Монета_66_" x="7.38" y="167.76" fill="#FFFFFF" stroke="#1F7BC0" stroke-miterlimit="10" width="75" height="10"/>
			<g id="Рёбра_32_">
				<line fill="none" stroke="#1F7BC0" stroke-miterlimit="10" x1="9.317" y1="169.422" x2="9.317" y2="176.109"/>
				<line fill="none" stroke="#1F7BC0" stroke-miterlimit="10" x1="11.005" y1="169.422" x2="11.005" y2="176.109"/>
				<line fill="none" stroke="#1F7BC0" stroke-miterlimit="10" x1="12.817" y1="169.422" x2="12.817" y2="176.109"/>
				<line fill="none" stroke="#1F7BC0" stroke-miterlimit="10" x1="14.88" y1="169.422" x2="14.88" y2="176.109"/>
				<line fill="none" stroke="#1F7BC0" stroke-miterlimit="10" x1="17.192" y1="169.422" x2="17.192" y2="176.109"/>
				<line fill="none" stroke="#1F7BC0" stroke-miterlimit="10" x1="19.692" y1="169.422" x2="19.692" y2="176.109"/>
				<line fill="none" stroke="#1F7BC0" stroke-miterlimit="10" x1="23.13" y1="169.422" x2="23.13" y2="176.109"/>
				<line fill="none" stroke="#1F7BC0" stroke-miterlimit="10" x1="26.88" y1="169.422" x2="26.88" y2="176.109"/>
				<line fill="none" stroke="#1F7BC0" stroke-miterlimit="10" x1="31.214" y1="169.422" x2="31.214" y2="176.109"/>
				<line fill="none" stroke="#1F7BC0" stroke-miterlimit="10" x1="80.714" y1="169.422" x2="80.714" y2="176.109"/>
				<line fill="none" stroke="#1F7BC0" stroke-miterlimit="10" x1="78.63" y1="169.422" x2="78.63" y2="176.109"/>
				<line fill="none" stroke="#1F7BC0" stroke-miterlimit="10" x1="75.38" y1="169.422" x2="75.38" y2="176.109"/>
				<line fill="none" stroke="#1F7BC0" stroke-miterlimit="10" x1="71.005" y1="169.422" x2="71.005" y2="176.109"/>
				<line fill="none" stroke="#1F7BC0" stroke-miterlimit="10" x1="65.922" y1="169.422" x2="65.922" y2="176.109"/>
			</g>
		</g>
		<g id="Монета_63_">
			
				<rect id="Монета_64_" x="7.38" y="157.76" fill="#FFFFFF" stroke="#1F7BC0" stroke-miterlimit="10" width="75" height="10"/>
			<g id="Рёбра_31_">
				<line fill="none" stroke="#1F7BC0" stroke-miterlimit="10" x1="9.317" y1="159.422" x2="9.317" y2="166.109"/>
				<line fill="none" stroke="#1F7BC0" stroke-miterlimit="10" x1="11.005" y1="159.422" x2="11.005" y2="166.109"/>
				<line fill="none" stroke="#1F7BC0" stroke-miterlimit="10" x1="12.817" y1="159.422" x2="12.817" y2="166.109"/>
				<line fill="none" stroke="#1F7BC0" stroke-miterlimit="10" x1="14.88" y1="159.422" x2="14.88" y2="166.109"/>
				<line fill="none" stroke="#1F7BC0" stroke-miterlimit="10" x1="17.192" y1="159.422" x2="17.192" y2="166.109"/>
				<line fill="none" stroke="#1F7BC0" stroke-miterlimit="10" x1="19.692" y1="159.422" x2="19.692" y2="166.109"/>
				<line fill="none" stroke="#1F7BC0" stroke-miterlimit="10" x1="23.13" y1="159.422" x2="23.13" y2="166.109"/>
				<line fill="none" stroke="#1F7BC0" stroke-miterlimit="10" x1="26.88" y1="159.422" x2="26.88" y2="166.109"/>
				<line fill="none" stroke="#1F7BC0" stroke-miterlimit="10" x1="31.214" y1="159.422" x2="31.214" y2="166.109"/>
				<line fill="none" stroke="#1F7BC0" stroke-miterlimit="10" x1="80.714" y1="159.422" x2="80.714" y2="166.109"/>
				<line fill="none" stroke="#1F7BC0" stroke-miterlimit="10" x1="78.63" y1="159.422" x2="78.63" y2="166.109"/>
				<line fill="none" stroke="#1F7BC0" stroke-miterlimit="10" x1="75.38" y1="159.422" x2="75.38" y2="166.109"/>
				<line fill="none" stroke="#1F7BC0" stroke-miterlimit="10" x1="71.005" y1="159.422" x2="71.005" y2="166.109"/>
				<line fill="none" stroke="#1F7BC0" stroke-miterlimit="10" x1="65.922" y1="159.422" x2="65.922" y2="166.109"/>
			</g>
		</g>
		<g id="Монета_61_">
			
				<rect id="Монета_62_" x="7.38" y="147.76" fill="#FFFFFF" stroke="#1F7BC0" stroke-miterlimit="10" width="75" height="10"/>
			<g id="Рёбра_30_">
				<line fill="none" stroke="#1F7BC0" stroke-miterlimit="10" x1="9.317" y1="149.422" x2="9.317" y2="156.109"/>
				<line fill="none" stroke="#1F7BC0" stroke-miterlimit="10" x1="11.005" y1="149.422" x2="11.005" y2="156.109"/>
				<line fill="none" stroke="#1F7BC0" stroke-miterlimit="10" x1="12.817" y1="149.422" x2="12.817" y2="156.109"/>
				<line fill="none" stroke="#1F7BC0" stroke-miterlimit="10" x1="14.88" y1="149.422" x2="14.88" y2="156.109"/>
				<line fill="none" stroke="#1F7BC0" stroke-miterlimit="10" x1="17.192" y1="149.422" x2="17.192" y2="156.109"/>
				<line fill="none" stroke="#1F7BC0" stroke-miterlimit="10" x1="19.692" y1="149.422" x2="19.692" y2="156.109"/>
				<line fill="none" stroke="#1F7BC0" stroke-miterlimit="10" x1="23.13" y1="149.422" x2="23.13" y2="156.109"/>
				<line fill="none" stroke="#1F7BC0" stroke-miterlimit="10" x1="26.88" y1="149.422" x2="26.88" y2="156.109"/>
				<line fill="none" stroke="#1F7BC0" stroke-miterlimit="10" x1="31.214" y1="149.422" x2="31.214" y2="156.109"/>
				<line fill="none" stroke="#1F7BC0" stroke-miterlimit="10" x1="80.714" y1="149.422" x2="80.714" y2="156.109"/>
				<line fill="none" stroke="#1F7BC0" stroke-miterlimit="10" x1="78.63" y1="149.422" x2="78.63" y2="156.109"/>
				<line fill="none" stroke="#1F7BC0" stroke-miterlimit="10" x1="75.38" y1="149.422" x2="75.38" y2="156.109"/>
				<line fill="none" stroke="#1F7BC0" stroke-miterlimit="10" x1="71.005" y1="149.422" x2="71.005" y2="156.109"/>
				<line fill="none" stroke="#1F7BC0" stroke-miterlimit="10" x1="65.922" y1="149.422" x2="65.922" y2="156.109"/>
			</g>
		</g>
		<g id="Монета_59_">
			
				<rect id="Монета_60_" x="7.38" y="137.76" fill="#FFFFFF" stroke="#1F7BC0" stroke-miterlimit="10" width="75" height="10"/>
			<g id="Рёбра_29_">
				<line fill="none" stroke="#1F7BC0" stroke-miterlimit="10" x1="9.317" y1="139.422" x2="9.317" y2="146.109"/>
				<line fill="none" stroke="#1F7BC0" stroke-miterlimit="10" x1="11.005" y1="139.422" x2="11.005" y2="146.109"/>
				<line fill="none" stroke="#1F7BC0" stroke-miterlimit="10" x1="12.817" y1="139.422" x2="12.817" y2="146.109"/>
				<line fill="none" stroke="#1F7BC0" stroke-miterlimit="10" x1="14.88" y1="139.422" x2="14.88" y2="146.109"/>
				<line fill="none" stroke="#1F7BC0" stroke-miterlimit="10" x1="17.192" y1="139.422" x2="17.192" y2="146.109"/>
				<line fill="none" stroke="#1F7BC0" stroke-miterlimit="10" x1="19.692" y1="139.422" x2="19.692" y2="146.109"/>
				<line fill="none" stroke="#1F7BC0" stroke-miterlimit="10" x1="23.13" y1="139.422" x2="23.13" y2="146.109"/>
				<line fill="none" stroke="#1F7BC0" stroke-miterlimit="10" x1="26.88" y1="139.422" x2="26.88" y2="146.109"/>
				<line fill="none" stroke="#1F7BC0" stroke-miterlimit="10" x1="31.214" y1="139.422" x2="31.214" y2="146.109"/>
				<line fill="none" stroke="#1F7BC0" stroke-miterlimit="10" x1="80.714" y1="139.422" x2="80.714" y2="146.109"/>
				<line fill="none" stroke="#1F7BC0" stroke-miterlimit="10" x1="78.63" y1="139.422" x2="78.63" y2="146.109"/>
				<line fill="none" stroke="#1F7BC0" stroke-miterlimit="10" x1="75.38" y1="139.422" x2="75.38" y2="146.109"/>
				<line fill="none" stroke="#1F7BC0" stroke-miterlimit="10" x1="71.005" y1="139.422" x2="71.005" y2="146.109"/>
				<line fill="none" stroke="#1F7BC0" stroke-miterlimit="10" x1="65.922" y1="139.422" x2="65.922" y2="146.109"/>
			</g>
		</g>
		<g id="Монета_93_">
			
				<rect id="Монета_94_" x="7.38" y="127.76" fill="#FFFFFF" stroke="#1F7BC0" stroke-miterlimit="10" width="75" height="10"/>
			<g id="Рёбра_46_">
				<line fill="none" stroke="#1F7BC0" stroke-miterlimit="10" x1="9.317" y1="129.422" x2="9.317" y2="136.109"/>
				<line fill="none" stroke="#1F7BC0" stroke-miterlimit="10" x1="11.005" y1="129.422" x2="11.005" y2="136.109"/>
				<line fill="none" stroke="#1F7BC0" stroke-miterlimit="10" x1="12.817" y1="129.422" x2="12.817" y2="136.109"/>
				<line fill="none" stroke="#1F7BC0" stroke-miterlimit="10" x1="14.88" y1="129.422" x2="14.88" y2="136.109"/>
				<line fill="none" stroke="#1F7BC0" stroke-miterlimit="10" x1="17.192" y1="129.422" x2="17.192" y2="136.109"/>
				<line fill="none" stroke="#1F7BC0" stroke-miterlimit="10" x1="19.692" y1="129.422" x2="19.692" y2="136.109"/>
				<line fill="none" stroke="#1F7BC0" stroke-miterlimit="10" x1="23.13" y1="129.422" x2="23.13" y2="136.109"/>
				<line fill="none" stroke="#1F7BC0" stroke-miterlimit="10" x1="26.88" y1="129.422" x2="26.88" y2="136.109"/>
				<line fill="none" stroke="#1F7BC0" stroke-miterlimit="10" x1="31.214" y1="129.422" x2="31.214" y2="136.109"/>
				<line fill="none" stroke="#1F7BC0" stroke-miterlimit="10" x1="80.714" y1="129.422" x2="80.714" y2="136.109"/>
				<line fill="none" stroke="#1F7BC0" stroke-miterlimit="10" x1="78.63" y1="129.422" x2="78.63" y2="136.109"/>
				<line fill="none" stroke="#1F7BC0" stroke-miterlimit="10" x1="75.38" y1="129.422" x2="75.38" y2="136.109"/>
				<line fill="none" stroke="#1F7BC0" stroke-miterlimit="10" x1="71.005" y1="129.422" x2="71.005" y2="136.109"/>
				<line fill="none" stroke="#1F7BC0" stroke-miterlimit="10" x1="65.922" y1="129.422" x2="65.922" y2="136.109"/>
			</g>
		</g>
		<g id="Монета_91_">
			
				<rect id="Монета_92_" x="7.38" y="117.76" fill="#FFFFFF" stroke="#1F7BC0" stroke-miterlimit="10" width="75" height="10"/>
			<g id="Рёбра_45_">
				<line fill="none" stroke="#1F7BC0" stroke-miterlimit="10" x1="9.317" y1="119.422" x2="9.317" y2="126.109"/>
				<line fill="none" stroke="#1F7BC0" stroke-miterlimit="10" x1="11.005" y1="119.422" x2="11.005" y2="126.109"/>
				<line fill="none" stroke="#1F7BC0" stroke-miterlimit="10" x1="12.817" y1="119.422" x2="12.817" y2="126.109"/>
				<line fill="none" stroke="#1F7BC0" stroke-miterlimit="10" x1="14.88" y1="119.422" x2="14.88" y2="126.109"/>
				<line fill="none" stroke="#1F7BC0" stroke-miterlimit="10" x1="17.192" y1="119.422" x2="17.192" y2="126.109"/>
				<line fill="none" stroke="#1F7BC0" stroke-miterlimit="10" x1="19.692" y1="119.422" x2="19.692" y2="126.109"/>
				<line fill="none" stroke="#1F7BC0" stroke-miterlimit="10" x1="23.13" y1="119.422" x2="23.13" y2="126.109"/>
				<line fill="none" stroke="#1F7BC0" stroke-miterlimit="10" x1="26.88" y1="119.422" x2="26.88" y2="126.109"/>
				<line fill="none" stroke="#1F7BC0" stroke-miterlimit="10" x1="31.214" y1="119.422" x2="31.214" y2="126.109"/>
				<line fill="none" stroke="#1F7BC0" stroke-miterlimit="10" x1="80.714" y1="119.422" x2="80.714" y2="126.109"/>
				<line fill="none" stroke="#1F7BC0" stroke-miterlimit="10" x1="78.63" y1="119.422" x2="78.63" y2="126.109"/>
				<line fill="none" stroke="#1F7BC0" stroke-miterlimit="10" x1="75.38" y1="119.422" x2="75.38" y2="126.109"/>
				<line fill="none" stroke="#1F7BC0" stroke-miterlimit="10" x1="71.005" y1="119.422" x2="71.005" y2="126.109"/>
				<line fill="none" stroke="#1F7BC0" stroke-miterlimit="10" x1="65.922" y1="119.422" x2="65.922" y2="126.109"/>
			</g>
		</g>
		<g id="Монета_89_">
			
				<rect id="Монета_90_" x="7.38" y="107.76" fill="#FFFFFF" stroke="#1F7BC0" stroke-miterlimit="10" width="75" height="10"/>
			<g id="Рёбра_44_">
				<line fill="none" stroke="#1F7BC0" stroke-miterlimit="10" x1="9.317" y1="109.422" x2="9.317" y2="116.109"/>
				<line fill="none" stroke="#1F7BC0" stroke-miterlimit="10" x1="11.005" y1="109.422" x2="11.005" y2="116.109"/>
				<line fill="none" stroke="#1F7BC0" stroke-miterlimit="10" x1="12.817" y1="109.422" x2="12.817" y2="116.109"/>
				<line fill="none" stroke="#1F7BC0" stroke-miterlimit="10" x1="14.88" y1="109.422" x2="14.88" y2="116.109"/>
				<line fill="none" stroke="#1F7BC0" stroke-miterlimit="10" x1="17.192" y1="109.422" x2="17.192" y2="116.109"/>
				<line fill="none" stroke="#1F7BC0" stroke-miterlimit="10" x1="19.692" y1="109.422" x2="19.692" y2="116.109"/>
				<line fill="none" stroke="#1F7BC0" stroke-miterlimit="10" x1="23.13" y1="109.422" x2="23.13" y2="116.109"/>
				<line fill="none" stroke="#1F7BC0" stroke-miterlimit="10" x1="26.88" y1="109.422" x2="26.88" y2="116.109"/>
				<line fill="none" stroke="#1F7BC0" stroke-miterlimit="10" x1="31.214" y1="109.422" x2="31.214" y2="116.109"/>
				<line fill="none" stroke="#1F7BC0" stroke-miterlimit="10" x1="80.714" y1="109.422" x2="80.714" y2="116.109"/>
				<line fill="none" stroke="#1F7BC0" stroke-miterlimit="10" x1="78.63" y1="109.422" x2="78.63" y2="116.109"/>
				<line fill="none" stroke="#1F7BC0" stroke-miterlimit="10" x1="75.38" y1="109.422" x2="75.38" y2="116.109"/>
				<line fill="none" stroke="#1F7BC0" stroke-miterlimit="10" x1="71.005" y1="109.422" x2="71.005" y2="116.109"/>
				<line fill="none" stroke="#1F7BC0" stroke-miterlimit="10" x1="65.922" y1="109.422" x2="65.922" y2="116.109"/>
			</g>
		</g>
		<g id="Монета_87_">
			
				<rect id="Монета_88_" x="7.38" y="97.76" fill="#FFFFFF" stroke="#1F7BC0" stroke-miterlimit="10" width="75" height="10"/>
			<g id="Рёбра_43_">
				<line fill="none" stroke="#1F7BC0" stroke-miterlimit="10" x1="9.317" y1="99.422" x2="9.317" y2="106.109"/>
				<line fill="none" stroke="#1F7BC0" stroke-miterlimit="10" x1="11.005" y1="99.422" x2="11.005" y2="106.109"/>
				<line fill="none" stroke="#1F7BC0" stroke-miterlimit="10" x1="12.817" y1="99.422" x2="12.817" y2="106.109"/>
				<line fill="none" stroke="#1F7BC0" stroke-miterlimit="10" x1="14.88" y1="99.422" x2="14.88" y2="106.109"/>
				<line fill="none" stroke="#1F7BC0" stroke-miterlimit="10" x1="17.192" y1="99.422" x2="17.192" y2="106.109"/>
				<line fill="none" stroke="#1F7BC0" stroke-miterlimit="10" x1="19.692" y1="99.422" x2="19.692" y2="106.109"/>
				<line fill="none" stroke="#1F7BC0" stroke-miterlimit="10" x1="23.13" y1="99.422" x2="23.13" y2="106.109"/>
				<line fill="none" stroke="#1F7BC0" stroke-miterlimit="10" x1="26.88" y1="99.422" x2="26.88" y2="106.109"/>
				<line fill="none" stroke="#1F7BC0" stroke-miterlimit="10" x1="31.214" y1="99.422" x2="31.214" y2="106.109"/>
				<line fill="none" stroke="#1F7BC0" stroke-miterlimit="10" x1="80.714" y1="99.422" x2="80.714" y2="106.109"/>
				<line fill="none" stroke="#1F7BC0" stroke-miterlimit="10" x1="78.63" y1="99.422" x2="78.63" y2="106.109"/>
				<line fill="none" stroke="#1F7BC0" stroke-miterlimit="10" x1="75.38" y1="99.422" x2="75.38" y2="106.109"/>
				<line fill="none" stroke="#1F7BC0" stroke-miterlimit="10" x1="71.005" y1="99.422" x2="71.005" y2="106.109"/>
				<line fill="none" stroke="#1F7BC0" stroke-miterlimit="10" x1="65.922" y1="99.422" x2="65.922" y2="106.109"/>
			</g>
		</g>
		<g id="Монета_85_">
			
				<rect id="Монета_86_" x="7.38" y="87.76" fill="#FFFFFF" stroke="#1F7BC0" stroke-miterlimit="10" width="75" height="10"/>
			<g id="Рёбра_42_">
				<line fill="none" stroke="#1F7BC0" stroke-miterlimit="10" x1="9.317" y1="89.422" x2="9.317" y2="96.109"/>
				<line fill="none" stroke="#1F7BC0" stroke-miterlimit="10" x1="11.005" y1="89.422" x2="11.005" y2="96.109"/>
				<line fill="none" stroke="#1F7BC0" stroke-miterlimit="10" x1="12.817" y1="89.422" x2="12.817" y2="96.109"/>
				<line fill="none" stroke="#1F7BC0" stroke-miterlimit="10" x1="14.88" y1="89.422" x2="14.88" y2="96.109"/>
				<line fill="none" stroke="#1F7BC0" stroke-miterlimit="10" x1="17.192" y1="89.422" x2="17.192" y2="96.109"/>
				<line fill="none" stroke="#1F7BC0" stroke-miterlimit="10" x1="19.692" y1="89.422" x2="19.692" y2="96.109"/>
				<line fill="none" stroke="#1F7BC0" stroke-miterlimit="10" x1="23.13" y1="89.422" x2="23.13" y2="96.109"/>
				<line fill="none" stroke="#1F7BC0" stroke-miterlimit="10" x1="26.88" y1="89.422" x2="26.88" y2="96.109"/>
				<line fill="none" stroke="#1F7BC0" stroke-miterlimit="10" x1="31.214" y1="89.422" x2="31.214" y2="96.109"/>
				<line fill="none" stroke="#1F7BC0" stroke-miterlimit="10" x1="80.714" y1="89.422" x2="80.714" y2="96.109"/>
				<line fill="none" stroke="#1F7BC0" stroke-miterlimit="10" x1="78.63" y1="89.422" x2="78.63" y2="96.109"/>
				<line fill="none" stroke="#1F7BC0" stroke-miterlimit="10" x1="75.38" y1="89.422" x2="75.38" y2="96.109"/>
				<line fill="none" stroke="#1F7BC0" stroke-miterlimit="10" x1="71.005" y1="89.422" x2="71.005" y2="96.109"/>
				<line fill="none" stroke="#1F7BC0" stroke-miterlimit="10" x1="65.922" y1="89.422" x2="65.922" y2="96.109"/>
			</g>
		</g>
		<g id="Монета_83_">
			
				<rect id="Монета_84_" x="7.38" y="77.76" fill="#FFFFFF" stroke="#1F7BC0" stroke-miterlimit="10" width="75" height="10"/>
			<g id="Рёбра_41_">
				<line fill="none" stroke="#1F7BC0" stroke-miterlimit="10" x1="9.317" y1="79.422" x2="9.317" y2="86.109"/>
				<line fill="none" stroke="#1F7BC0" stroke-miterlimit="10" x1="11.005" y1="79.422" x2="11.005" y2="86.109"/>
				<line fill="none" stroke="#1F7BC0" stroke-miterlimit="10" x1="12.817" y1="79.422" x2="12.817" y2="86.109"/>
				<line fill="none" stroke="#1F7BC0" stroke-miterlimit="10" x1="14.88" y1="79.422" x2="14.88" y2="86.109"/>
				<line fill="none" stroke="#1F7BC0" stroke-miterlimit="10" x1="17.192" y1="79.422" x2="17.192" y2="86.109"/>
				<line fill="none" stroke="#1F7BC0" stroke-miterlimit="10" x1="19.692" y1="79.422" x2="19.692" y2="86.109"/>
				<line fill="none" stroke="#1F7BC0" stroke-miterlimit="10" x1="23.13" y1="79.422" x2="23.13" y2="86.109"/>
				<line fill="none" stroke="#1F7BC0" stroke-miterlimit="10" x1="26.88" y1="79.422" x2="26.88" y2="86.109"/>
				<line fill="none" stroke="#1F7BC0" stroke-miterlimit="10" x1="31.214" y1="79.422" x2="31.214" y2="86.109"/>
				<line fill="none" stroke="#1F7BC0" stroke-miterlimit="10" x1="80.714" y1="79.422" x2="80.714" y2="86.109"/>
				<line fill="none" stroke="#1F7BC0" stroke-miterlimit="10" x1="78.63" y1="79.422" x2="78.63" y2="86.109"/>
				<line fill="none" stroke="#1F7BC0" stroke-miterlimit="10" x1="75.38" y1="79.422" x2="75.38" y2="86.109"/>
				<line fill="none" stroke="#1F7BC0" stroke-miterlimit="10" x1="71.005" y1="79.422" x2="71.005" y2="86.109"/>
				<line fill="none" stroke="#1F7BC0" stroke-miterlimit="10" x1="65.922" y1="79.422" x2="65.922" y2="86.109"/>
			</g>
		</g>
	</g>
	<g id="Монета_фас_4_">
		<path fill="#1F7BC0" d="M44.88,77.76C24.06,77.76,7.12,60.82,7.12,40c0-20.82,16.939-37.76,37.76-37.76S82.64,19.18,82.64,40
			C82.64,60.82,65.7,77.76,44.88,77.76 M44.88,3.098C24.532,3.098,7.978,19.653,7.978,40c0,20.347,16.555,36.902,36.902,36.902
			S81.781,60.348,81.781,40C81.781,19.653,65.228,3.098,44.88,3.098"/>
		<path fill="#FFFFFF" stroke="#1F7BC0" stroke-miterlimit="10" d="M28.282,14.427v2.181c0.703,0.353,1.506,0.693,2.408,1.018
			c0.902,0.326,1.906,0.616,3.012,0.865v18.126h-6.046v3.287h6.046v2.181h-6.046v3.288h6.046v17.745
			c-0.954,0.201-1.882,0.451-2.786,0.752c-0.902,0.301-1.781,0.654-2.634,1.055v2.182h19.115V64.93
			c-2.107-0.898-4.265-1.498-6.472-1.801V45.373h12.04l1.83,4.54h1.732c0.098-1.152,0.3-4.452,0.3-5.831
			c0-0.669-0.007-1.332-0.021-1.991l-0.007-0.006H40.926v-2.181h15.875l0.007-0.006c0.014-0.656,0.021-1.32,0.021-1.989
			c0-1.381-0.202-5.306-0.3-6.458h-1.732l-1.83,5.166h-12.04V18.341h16.782l3.084,8.277h1.957c0.251-2.055,0.439-4.112,0.564-6.17
			c0.125-2.057,0.213-4.065,0.263-6.021H28.282z"/>
		<circle fill="none" stroke="#1F7BC0" stroke-miterlimit="10" cx="45.022" cy="40.037" r="34.969"/>
		<polygon fill="#FFFFFF" stroke="#1F7BC0" stroke-miterlimit="10" points="69.287,40.505 70.735,40.294 71.382,38.983 
			72.03,40.294 73.478,40.505 72.43,41.526 72.678,42.968 71.382,42.288 70.087,42.968 70.335,41.526 		"/>
		<polygon fill="#FFFFFF" stroke="#1F7BC0" stroke-miterlimit="10" points="68.75,32.681 69.856,32.52 70.351,31.518 70.845,32.52 
			71.951,32.681 71.15,33.461 71.339,34.562 70.351,34.042 69.36,34.562 69.55,33.461 		"/>
		<polygon fill="#FFFFFF" stroke="#1F7BC0" stroke-miterlimit="10" points="68.75,48.132 69.856,47.972 70.351,46.969 
			70.845,47.972 71.951,48.132 71.15,48.912 71.339,50.014 70.351,49.494 69.36,50.014 69.55,48.912 		"/>
		<polygon fill="#FFFFFF" stroke="#1F7BC0" stroke-miterlimit="10" points="21.137,40.505 19.688,40.295 19.042,38.983 
			18.394,40.295 16.946,40.505 17.994,41.527 17.747,42.968 19.042,42.288 20.337,42.968 20.089,41.527 		"/>
		<polygon fill="#FFFFFF" stroke="#1F7BC0" stroke-miterlimit="10" points="21.675,32.681 20.567,32.52 20.073,31.518 19.579,32.52 
			18.474,32.681 19.273,33.461 19.084,34.562 20.073,34.042 21.062,34.562 20.874,33.461 		"/>
		<polygon fill="#FFFFFF" stroke="#1F7BC0" stroke-miterlimit="10" points="21.675,48.132 20.567,47.972 20.073,46.97 
			19.579,47.972 18.474,48.132 19.273,48.912 19.084,50.014 20.073,49.494 21.062,50.014 20.874,48.912 		"/>
	</g>
</g>
</svg>
