<?xml version="1.0" encoding="utf-8"?>
<!-- Generator: Adobe Illustrator 16.0.0, SVG Export Plug-In . SVG Version: 6.00 Build 0)  -->
<!DOCTYPE svg PUBLIC "-//W3C//DTD SVG 1.1//EN" "http://www.w3.org/Graphics/SVG/1.1/DTD/svg11.dtd">
<svg version="1.1" id="Layer_1" xmlns="http://www.w3.org/2000/svg" xmlns:xlink="http://www.w3.org/1999/xlink" x="0px" y="0px"
	 width="90px" height="260px" viewBox="0 0 90 260" enable-background="new 0 0 90 260" xml:space="preserve">
<g>
	<g id="_x34_._40_-_60_млн">
		<g id="Монета_49_">
			
				<rect id="Монета_50_" x="7.38" y="247.76" fill="#FFFFFF" stroke="#1F7BC0" stroke-miterlimit="10" width="75" height="10"/>
			<g id="Рёбра_24_">
				<line fill="none" stroke="#1F7BC0" stroke-miterlimit="10" x1="9.317" y1="249.422" x2="9.317" y2="256.109"/>
				<line fill="none" stroke="#1F7BC0" stroke-miterlimit="10" x1="11.005" y1="249.422" x2="11.005" y2="256.109"/>
				<line fill="none" stroke="#1F7BC0" stroke-miterlimit="10" x1="12.817" y1="249.422" x2="12.817" y2="256.109"/>
				<line fill="none" stroke="#1F7BC0" stroke-miterlimit="10" x1="14.88" y1="249.422" x2="14.88" y2="256.109"/>
				<line fill="none" stroke="#1F7BC0" stroke-miterlimit="10" x1="17.192" y1="249.422" x2="17.192" y2="256.109"/>
				<line fill="none" stroke="#1F7BC0" stroke-miterlimit="10" x1="19.692" y1="249.422" x2="19.692" y2="256.109"/>
				<line fill="none" stroke="#1F7BC0" stroke-miterlimit="10" x1="23.13" y1="249.422" x2="23.13" y2="256.109"/>
				<line fill="none" stroke="#1F7BC0" stroke-miterlimit="10" x1="26.88" y1="249.422" x2="26.88" y2="256.109"/>
				<line fill="none" stroke="#1F7BC0" stroke-miterlimit="10" x1="31.214" y1="249.422" x2="31.214" y2="256.109"/>
				<line fill="none" stroke="#1F7BC0" stroke-miterlimit="10" x1="80.714" y1="249.422" x2="80.714" y2="256.109"/>
				<line fill="none" stroke="#1F7BC0" stroke-miterlimit="10" x1="78.63" y1="249.422" x2="78.63" y2="256.109"/>
				<line fill="none" stroke="#1F7BC0" stroke-miterlimit="10" x1="75.38" y1="249.422" x2="75.38" y2="256.109"/>
				<line fill="none" stroke="#1F7BC0" stroke-miterlimit="10" x1="71.005" y1="249.422" x2="71.005" y2="256.109"/>
				<line fill="none" stroke="#1F7BC0" stroke-miterlimit="10" x1="65.922" y1="249.422" x2="65.922" y2="256.109"/>
			</g>
		</g>
		<g id="Монета_47_">
			
				<rect id="Монета_48_" x="7.38" y="237.76" fill="#FFFFFF" stroke="#1F7BC0" stroke-miterlimit="10" width="75" height="10"/>
			<g id="Рёбра_23_">
				<line fill="none" stroke="#1F7BC0" stroke-miterlimit="10" x1="9.317" y1="239.422" x2="9.317" y2="246.109"/>
				<line fill="none" stroke="#1F7BC0" stroke-miterlimit="10" x1="11.005" y1="239.422" x2="11.005" y2="246.109"/>
				<line fill="none" stroke="#1F7BC0" stroke-miterlimit="10" x1="12.817" y1="239.422" x2="12.817" y2="246.109"/>
				<line fill="none" stroke="#1F7BC0" stroke-miterlimit="10" x1="14.88" y1="239.422" x2="14.88" y2="246.109"/>
				<line fill="none" stroke="#1F7BC0" stroke-miterlimit="10" x1="17.192" y1="239.422" x2="17.192" y2="246.109"/>
				<line fill="none" stroke="#1F7BC0" stroke-miterlimit="10" x1="19.692" y1="239.422" x2="19.692" y2="246.109"/>
				<line fill="none" stroke="#1F7BC0" stroke-miterlimit="10" x1="23.13" y1="239.422" x2="23.13" y2="246.109"/>
				<line fill="none" stroke="#1F7BC0" stroke-miterlimit="10" x1="26.88" y1="239.422" x2="26.88" y2="246.109"/>
				<line fill="none" stroke="#1F7BC0" stroke-miterlimit="10" x1="31.214" y1="239.422" x2="31.214" y2="246.109"/>
				<line fill="none" stroke="#1F7BC0" stroke-miterlimit="10" x1="80.714" y1="239.422" x2="80.714" y2="246.109"/>
				<line fill="none" stroke="#1F7BC0" stroke-miterlimit="10" x1="78.63" y1="239.422" x2="78.63" y2="246.109"/>
				<line fill="none" stroke="#1F7BC0" stroke-miterlimit="10" x1="75.38" y1="239.422" x2="75.38" y2="246.109"/>
				<line fill="none" stroke="#1F7BC0" stroke-miterlimit="10" x1="71.005" y1="239.422" x2="71.005" y2="246.109"/>
				<line fill="none" stroke="#1F7BC0" stroke-miterlimit="10" x1="65.922" y1="239.422" x2="65.922" y2="246.109"/>
			</g>
		</g>
		<g id="Монета_45_">
			
				<rect id="Монета_46_" x="7.38" y="227.76" fill="#FFFFFF" stroke="#1F7BC0" stroke-miterlimit="10" width="75" height="10"/>
			<g id="Рёбра_22_">
				<line fill="none" stroke="#1F7BC0" stroke-miterlimit="10" x1="9.317" y1="229.422" x2="9.317" y2="236.109"/>
				<line fill="none" stroke="#1F7BC0" stroke-miterlimit="10" x1="11.005" y1="229.422" x2="11.005" y2="236.109"/>
				<line fill="none" stroke="#1F7BC0" stroke-miterlimit="10" x1="12.817" y1="229.422" x2="12.817" y2="236.109"/>
				<line fill="none" stroke="#1F7BC0" stroke-miterlimit="10" x1="14.88" y1="229.422" x2="14.88" y2="236.109"/>
				<line fill="none" stroke="#1F7BC0" stroke-miterlimit="10" x1="17.192" y1="229.422" x2="17.192" y2="236.109"/>
				<line fill="none" stroke="#1F7BC0" stroke-miterlimit="10" x1="19.692" y1="229.422" x2="19.692" y2="236.109"/>
				<line fill="none" stroke="#1F7BC0" stroke-miterlimit="10" x1="23.13" y1="229.422" x2="23.13" y2="236.109"/>
				<line fill="none" stroke="#1F7BC0" stroke-miterlimit="10" x1="26.88" y1="229.422" x2="26.88" y2="236.109"/>
				<line fill="none" stroke="#1F7BC0" stroke-miterlimit="10" x1="31.214" y1="229.422" x2="31.214" y2="236.109"/>
				<line fill="none" stroke="#1F7BC0" stroke-miterlimit="10" x1="80.714" y1="229.422" x2="80.714" y2="236.109"/>
				<line fill="none" stroke="#1F7BC0" stroke-miterlimit="10" x1="78.63" y1="229.422" x2="78.63" y2="236.109"/>
				<line fill="none" stroke="#1F7BC0" stroke-miterlimit="10" x1="75.38" y1="229.422" x2="75.38" y2="236.109"/>
				<line fill="none" stroke="#1F7BC0" stroke-miterlimit="10" x1="71.005" y1="229.422" x2="71.005" y2="236.109"/>
				<line fill="none" stroke="#1F7BC0" stroke-miterlimit="10" x1="65.922" y1="229.422" x2="65.922" y2="236.109"/>
			</g>
		</g>
		<g id="Монета_43_">
			
				<rect id="Монета_44_" x="7.38" y="217.76" fill="#FFFFFF" stroke="#1F7BC0" stroke-miterlimit="10" width="75" height="10"/>
			<g id="Рёбра_21_">
				<line fill="none" stroke="#1F7BC0" stroke-miterlimit="10" x1="9.317" y1="219.422" x2="9.317" y2="226.109"/>
				<line fill="none" stroke="#1F7BC0" stroke-miterlimit="10" x1="11.005" y1="219.422" x2="11.005" y2="226.109"/>
				<line fill="none" stroke="#1F7BC0" stroke-miterlimit="10" x1="12.817" y1="219.422" x2="12.817" y2="226.109"/>
				<line fill="none" stroke="#1F7BC0" stroke-miterlimit="10" x1="14.88" y1="219.422" x2="14.88" y2="226.109"/>
				<line fill="none" stroke="#1F7BC0" stroke-miterlimit="10" x1="17.192" y1="219.422" x2="17.192" y2="226.109"/>
				<line fill="none" stroke="#1F7BC0" stroke-miterlimit="10" x1="19.692" y1="219.422" x2="19.692" y2="226.109"/>
				<line fill="none" stroke="#1F7BC0" stroke-miterlimit="10" x1="23.13" y1="219.422" x2="23.13" y2="226.109"/>
				<line fill="none" stroke="#1F7BC0" stroke-miterlimit="10" x1="26.88" y1="219.422" x2="26.88" y2="226.109"/>
				<line fill="none" stroke="#1F7BC0" stroke-miterlimit="10" x1="31.214" y1="219.422" x2="31.214" y2="226.109"/>
				<line fill="none" stroke="#1F7BC0" stroke-miterlimit="10" x1="80.714" y1="219.422" x2="80.714" y2="226.109"/>
				<line fill="none" stroke="#1F7BC0" stroke-miterlimit="10" x1="78.63" y1="219.422" x2="78.63" y2="226.109"/>
				<line fill="none" stroke="#1F7BC0" stroke-miterlimit="10" x1="75.38" y1="219.422" x2="75.38" y2="226.109"/>
				<line fill="none" stroke="#1F7BC0" stroke-miterlimit="10" x1="71.005" y1="219.422" x2="71.005" y2="226.109"/>
				<line fill="none" stroke="#1F7BC0" stroke-miterlimit="10" x1="65.922" y1="219.422" x2="65.922" y2="226.109"/>
			</g>
		</g>
		<g id="Монета_41_">
			
				<rect id="Монета_42_" x="7.38" y="207.76" fill="#FFFFFF" stroke="#1F7BC0" stroke-miterlimit="10" width="75" height="10"/>
			<g id="Рёбра_20_">
				<line fill="none" stroke="#1F7BC0" stroke-miterlimit="10" x1="9.317" y1="209.422" x2="9.317" y2="216.109"/>
				<line fill="none" stroke="#1F7BC0" stroke-miterlimit="10" x1="11.005" y1="209.422" x2="11.005" y2="216.109"/>
				<line fill="none" stroke="#1F7BC0" stroke-miterlimit="10" x1="12.817" y1="209.422" x2="12.817" y2="216.109"/>
				<line fill="none" stroke="#1F7BC0" stroke-miterlimit="10" x1="14.88" y1="209.422" x2="14.88" y2="216.109"/>
				<line fill="none" stroke="#1F7BC0" stroke-miterlimit="10" x1="17.192" y1="209.422" x2="17.192" y2="216.109"/>
				<line fill="none" stroke="#1F7BC0" stroke-miterlimit="10" x1="19.692" y1="209.422" x2="19.692" y2="216.109"/>
				<line fill="none" stroke="#1F7BC0" stroke-miterlimit="10" x1="23.13" y1="209.422" x2="23.13" y2="216.109"/>
				<line fill="none" stroke="#1F7BC0" stroke-miterlimit="10" x1="26.88" y1="209.422" x2="26.88" y2="216.109"/>
				<line fill="none" stroke="#1F7BC0" stroke-miterlimit="10" x1="31.214" y1="209.422" x2="31.214" y2="216.109"/>
				<line fill="none" stroke="#1F7BC0" stroke-miterlimit="10" x1="80.714" y1="209.422" x2="80.714" y2="216.109"/>
				<line fill="none" stroke="#1F7BC0" stroke-miterlimit="10" x1="78.63" y1="209.422" x2="78.63" y2="216.109"/>
				<line fill="none" stroke="#1F7BC0" stroke-miterlimit="10" x1="75.38" y1="209.422" x2="75.38" y2="216.109"/>
				<line fill="none" stroke="#1F7BC0" stroke-miterlimit="10" x1="71.005" y1="209.422" x2="71.005" y2="216.109"/>
				<line fill="none" stroke="#1F7BC0" stroke-miterlimit="10" x1="65.922" y1="209.422" x2="65.922" y2="216.109"/>
			</g>
		</g>
		<g id="Монета_39_">
			
				<rect id="Монета_40_" x="7.38" y="197.76" fill="#FFFFFF" stroke="#1F7BC0" stroke-miterlimit="10" width="75" height="10"/>
			<g id="Рёбра_19_">
				<line fill="none" stroke="#1F7BC0" stroke-miterlimit="10" x1="9.317" y1="199.422" x2="9.317" y2="206.109"/>
				<line fill="none" stroke="#1F7BC0" stroke-miterlimit="10" x1="11.005" y1="199.422" x2="11.005" y2="206.109"/>
				<line fill="none" stroke="#1F7BC0" stroke-miterlimit="10" x1="12.817" y1="199.422" x2="12.817" y2="206.109"/>
				<line fill="none" stroke="#1F7BC0" stroke-miterlimit="10" x1="14.88" y1="199.422" x2="14.88" y2="206.109"/>
				<line fill="none" stroke="#1F7BC0" stroke-miterlimit="10" x1="17.192" y1="199.422" x2="17.192" y2="206.109"/>
				<line fill="none" stroke="#1F7BC0" stroke-miterlimit="10" x1="19.692" y1="199.422" x2="19.692" y2="206.109"/>
				<line fill="none" stroke="#1F7BC0" stroke-miterlimit="10" x1="23.13" y1="199.422" x2="23.13" y2="206.109"/>
				<line fill="none" stroke="#1F7BC0" stroke-miterlimit="10" x1="26.88" y1="199.422" x2="26.88" y2="206.109"/>
				<line fill="none" stroke="#1F7BC0" stroke-miterlimit="10" x1="31.214" y1="199.422" x2="31.214" y2="206.109"/>
				<line fill="none" stroke="#1F7BC0" stroke-miterlimit="10" x1="80.714" y1="199.422" x2="80.714" y2="206.109"/>
				<line fill="none" stroke="#1F7BC0" stroke-miterlimit="10" x1="78.63" y1="199.422" x2="78.63" y2="206.109"/>
				<line fill="none" stroke="#1F7BC0" stroke-miterlimit="10" x1="75.38" y1="199.422" x2="75.38" y2="206.109"/>
				<line fill="none" stroke="#1F7BC0" stroke-miterlimit="10" x1="71.005" y1="199.422" x2="71.005" y2="206.109"/>
				<line fill="none" stroke="#1F7BC0" stroke-miterlimit="10" x1="65.922" y1="199.422" x2="65.922" y2="206.109"/>
			</g>
		</g>
		<g id="Монета_37_">
			
				<rect id="Монета_38_" x="7.38" y="187.76" fill="#FFFFFF" stroke="#1F7BC0" stroke-miterlimit="10" width="75" height="10"/>
			<g id="Рёбра_18_">
				<line fill="none" stroke="#1F7BC0" stroke-miterlimit="10" x1="9.317" y1="189.422" x2="9.317" y2="196.109"/>
				<line fill="none" stroke="#1F7BC0" stroke-miterlimit="10" x1="11.005" y1="189.422" x2="11.005" y2="196.109"/>
				<line fill="none" stroke="#1F7BC0" stroke-miterlimit="10" x1="12.817" y1="189.422" x2="12.817" y2="196.109"/>
				<line fill="none" stroke="#1F7BC0" stroke-miterlimit="10" x1="14.88" y1="189.422" x2="14.88" y2="196.109"/>
				<line fill="none" stroke="#1F7BC0" stroke-miterlimit="10" x1="17.192" y1="189.422" x2="17.192" y2="196.109"/>
				<line fill="none" stroke="#1F7BC0" stroke-miterlimit="10" x1="19.692" y1="189.422" x2="19.692" y2="196.109"/>
				<line fill="none" stroke="#1F7BC0" stroke-miterlimit="10" x1="23.13" y1="189.422" x2="23.13" y2="196.109"/>
				<line fill="none" stroke="#1F7BC0" stroke-miterlimit="10" x1="26.88" y1="189.422" x2="26.88" y2="196.109"/>
				<line fill="none" stroke="#1F7BC0" stroke-miterlimit="10" x1="31.214" y1="189.422" x2="31.214" y2="196.109"/>
				<line fill="none" stroke="#1F7BC0" stroke-miterlimit="10" x1="80.714" y1="189.422" x2="80.714" y2="196.109"/>
				<line fill="none" stroke="#1F7BC0" stroke-miterlimit="10" x1="78.63" y1="189.422" x2="78.63" y2="196.109"/>
				<line fill="none" stroke="#1F7BC0" stroke-miterlimit="10" x1="75.38" y1="189.422" x2="75.38" y2="196.109"/>
				<line fill="none" stroke="#1F7BC0" stroke-miterlimit="10" x1="71.005" y1="189.422" x2="71.005" y2="196.109"/>
				<line fill="none" stroke="#1F7BC0" stroke-miterlimit="10" x1="65.922" y1="189.422" x2="65.922" y2="196.109"/>
			</g>
		</g>
		<g id="Монета_35_">
			
				<rect id="Монета_36_" x="7.38" y="177.76" fill="#FFFFFF" stroke="#1F7BC0" stroke-miterlimit="10" width="75" height="10"/>
			<g id="Рёбра_17_">
				<line fill="none" stroke="#1F7BC0" stroke-miterlimit="10" x1="9.317" y1="179.422" x2="9.317" y2="186.109"/>
				<line fill="none" stroke="#1F7BC0" stroke-miterlimit="10" x1="11.005" y1="179.422" x2="11.005" y2="186.109"/>
				<line fill="none" stroke="#1F7BC0" stroke-miterlimit="10" x1="12.817" y1="179.422" x2="12.817" y2="186.109"/>
				<line fill="none" stroke="#1F7BC0" stroke-miterlimit="10" x1="14.88" y1="179.422" x2="14.88" y2="186.109"/>
				<line fill="none" stroke="#1F7BC0" stroke-miterlimit="10" x1="17.192" y1="179.422" x2="17.192" y2="186.109"/>
				<line fill="none" stroke="#1F7BC0" stroke-miterlimit="10" x1="19.692" y1="179.422" x2="19.692" y2="186.109"/>
				<line fill="none" stroke="#1F7BC0" stroke-miterlimit="10" x1="23.13" y1="179.422" x2="23.13" y2="186.109"/>
				<line fill="none" stroke="#1F7BC0" stroke-miterlimit="10" x1="26.88" y1="179.422" x2="26.88" y2="186.109"/>
				<line fill="none" stroke="#1F7BC0" stroke-miterlimit="10" x1="31.214" y1="179.422" x2="31.214" y2="186.109"/>
				<line fill="none" stroke="#1F7BC0" stroke-miterlimit="10" x1="80.714" y1="179.422" x2="80.714" y2="186.109"/>
				<line fill="none" stroke="#1F7BC0" stroke-miterlimit="10" x1="78.63" y1="179.422" x2="78.63" y2="186.109"/>
				<line fill="none" stroke="#1F7BC0" stroke-miterlimit="10" x1="75.38" y1="179.422" x2="75.38" y2="186.109"/>
				<line fill="none" stroke="#1F7BC0" stroke-miterlimit="10" x1="71.005" y1="179.422" x2="71.005" y2="186.109"/>
				<line fill="none" stroke="#1F7BC0" stroke-miterlimit="10" x1="65.922" y1="179.422" x2="65.922" y2="186.109"/>
			</g>
		</g>
		<g id="Монета_57_">
			
				<rect id="Монета_58_" x="7.38" y="167.76" fill="#FFFFFF" stroke="#1F7BC0" stroke-miterlimit="10" width="75" height="10"/>
			<g id="Рёбра_28_">
				<line fill="none" stroke="#1F7BC0" stroke-miterlimit="10" x1="9.317" y1="169.422" x2="9.317" y2="176.109"/>
				<line fill="none" stroke="#1F7BC0" stroke-miterlimit="10" x1="11.005" y1="169.422" x2="11.005" y2="176.109"/>
				<line fill="none" stroke="#1F7BC0" stroke-miterlimit="10" x1="12.817" y1="169.422" x2="12.817" y2="176.109"/>
				<line fill="none" stroke="#1F7BC0" stroke-miterlimit="10" x1="14.88" y1="169.422" x2="14.88" y2="176.109"/>
				<line fill="none" stroke="#1F7BC0" stroke-miterlimit="10" x1="17.192" y1="169.422" x2="17.192" y2="176.109"/>
				<line fill="none" stroke="#1F7BC0" stroke-miterlimit="10" x1="19.692" y1="169.422" x2="19.692" y2="176.109"/>
				<line fill="none" stroke="#1F7BC0" stroke-miterlimit="10" x1="23.13" y1="169.422" x2="23.13" y2="176.109"/>
				<line fill="none" stroke="#1F7BC0" stroke-miterlimit="10" x1="26.88" y1="169.422" x2="26.88" y2="176.109"/>
				<line fill="none" stroke="#1F7BC0" stroke-miterlimit="10" x1="31.214" y1="169.422" x2="31.214" y2="176.109"/>
				<line fill="none" stroke="#1F7BC0" stroke-miterlimit="10" x1="80.714" y1="169.422" x2="80.714" y2="176.109"/>
				<line fill="none" stroke="#1F7BC0" stroke-miterlimit="10" x1="78.63" y1="169.422" x2="78.63" y2="176.109"/>
				<line fill="none" stroke="#1F7BC0" stroke-miterlimit="10" x1="75.38" y1="169.422" x2="75.38" y2="176.109"/>
				<line fill="none" stroke="#1F7BC0" stroke-miterlimit="10" x1="71.005" y1="169.422" x2="71.005" y2="176.109"/>
				<line fill="none" stroke="#1F7BC0" stroke-miterlimit="10" x1="65.922" y1="169.422" x2="65.922" y2="176.109"/>
			</g>
		</g>
		<g id="Монета_55_">
			
				<rect id="Монета_56_" x="7.38" y="157.76" fill="#FFFFFF" stroke="#1F7BC0" stroke-miterlimit="10" width="75" height="10"/>
			<g id="Рёбра_27_">
				<line fill="none" stroke="#1F7BC0" stroke-miterlimit="10" x1="9.317" y1="159.422" x2="9.317" y2="166.109"/>
				<line fill="none" stroke="#1F7BC0" stroke-miterlimit="10" x1="11.005" y1="159.422" x2="11.005" y2="166.109"/>
				<line fill="none" stroke="#1F7BC0" stroke-miterlimit="10" x1="12.817" y1="159.422" x2="12.817" y2="166.109"/>
				<line fill="none" stroke="#1F7BC0" stroke-miterlimit="10" x1="14.88" y1="159.422" x2="14.88" y2="166.109"/>
				<line fill="none" stroke="#1F7BC0" stroke-miterlimit="10" x1="17.192" y1="159.422" x2="17.192" y2="166.109"/>
				<line fill="none" stroke="#1F7BC0" stroke-miterlimit="10" x1="19.692" y1="159.422" x2="19.692" y2="166.109"/>
				<line fill="none" stroke="#1F7BC0" stroke-miterlimit="10" x1="23.13" y1="159.422" x2="23.13" y2="166.109"/>
				<line fill="none" stroke="#1F7BC0" stroke-miterlimit="10" x1="26.88" y1="159.422" x2="26.88" y2="166.109"/>
				<line fill="none" stroke="#1F7BC0" stroke-miterlimit="10" x1="31.214" y1="159.422" x2="31.214" y2="166.109"/>
				<line fill="none" stroke="#1F7BC0" stroke-miterlimit="10" x1="80.714" y1="159.422" x2="80.714" y2="166.109"/>
				<line fill="none" stroke="#1F7BC0" stroke-miterlimit="10" x1="78.63" y1="159.422" x2="78.63" y2="166.109"/>
				<line fill="none" stroke="#1F7BC0" stroke-miterlimit="10" x1="75.38" y1="159.422" x2="75.38" y2="166.109"/>
				<line fill="none" stroke="#1F7BC0" stroke-miterlimit="10" x1="71.005" y1="159.422" x2="71.005" y2="166.109"/>
				<line fill="none" stroke="#1F7BC0" stroke-miterlimit="10" x1="65.922" y1="159.422" x2="65.922" y2="166.109"/>
			</g>
		</g>
		<g id="Монета_53_">
			
				<rect id="Монета_54_" x="7.38" y="147.76" fill="#FFFFFF" stroke="#1F7BC0" stroke-miterlimit="10" width="75" height="10"/>
			<g id="Рёбра_26_">
				<line fill="none" stroke="#1F7BC0" stroke-miterlimit="10" x1="9.317" y1="149.422" x2="9.317" y2="156.109"/>
				<line fill="none" stroke="#1F7BC0" stroke-miterlimit="10" x1="11.005" y1="149.422" x2="11.005" y2="156.109"/>
				<line fill="none" stroke="#1F7BC0" stroke-miterlimit="10" x1="12.817" y1="149.422" x2="12.817" y2="156.109"/>
				<line fill="none" stroke="#1F7BC0" stroke-miterlimit="10" x1="14.88" y1="149.422" x2="14.88" y2="156.109"/>
				<line fill="none" stroke="#1F7BC0" stroke-miterlimit="10" x1="17.192" y1="149.422" x2="17.192" y2="156.109"/>
				<line fill="none" stroke="#1F7BC0" stroke-miterlimit="10" x1="19.692" y1="149.422" x2="19.692" y2="156.109"/>
				<line fill="none" stroke="#1F7BC0" stroke-miterlimit="10" x1="23.13" y1="149.422" x2="23.13" y2="156.109"/>
				<line fill="none" stroke="#1F7BC0" stroke-miterlimit="10" x1="26.88" y1="149.422" x2="26.88" y2="156.109"/>
				<line fill="none" stroke="#1F7BC0" stroke-miterlimit="10" x1="31.214" y1="149.422" x2="31.214" y2="156.109"/>
				<line fill="none" stroke="#1F7BC0" stroke-miterlimit="10" x1="80.714" y1="149.422" x2="80.714" y2="156.109"/>
				<line fill="none" stroke="#1F7BC0" stroke-miterlimit="10" x1="78.63" y1="149.422" x2="78.63" y2="156.109"/>
				<line fill="none" stroke="#1F7BC0" stroke-miterlimit="10" x1="75.38" y1="149.422" x2="75.38" y2="156.109"/>
				<line fill="none" stroke="#1F7BC0" stroke-miterlimit="10" x1="71.005" y1="149.422" x2="71.005" y2="156.109"/>
				<line fill="none" stroke="#1F7BC0" stroke-miterlimit="10" x1="65.922" y1="149.422" x2="65.922" y2="156.109"/>
			</g>
		</g>
		<g id="Монета_51_">
			
				<rect id="Монета_52_" x="7.38" y="137.76" fill="#FFFFFF" stroke="#1F7BC0" stroke-miterlimit="10" width="75" height="10"/>
			<g id="Рёбра_25_">
				<line fill="none" stroke="#1F7BC0" stroke-miterlimit="10" x1="9.317" y1="139.422" x2="9.317" y2="146.109"/>
				<line fill="none" stroke="#1F7BC0" stroke-miterlimit="10" x1="11.005" y1="139.422" x2="11.005" y2="146.109"/>
				<line fill="none" stroke="#1F7BC0" stroke-miterlimit="10" x1="12.817" y1="139.422" x2="12.817" y2="146.109"/>
				<line fill="none" stroke="#1F7BC0" stroke-miterlimit="10" x1="14.88" y1="139.422" x2="14.88" y2="146.109"/>
				<line fill="none" stroke="#1F7BC0" stroke-miterlimit="10" x1="17.192" y1="139.422" x2="17.192" y2="146.109"/>
				<line fill="none" stroke="#1F7BC0" stroke-miterlimit="10" x1="19.692" y1="139.422" x2="19.692" y2="146.109"/>
				<line fill="none" stroke="#1F7BC0" stroke-miterlimit="10" x1="23.13" y1="139.422" x2="23.13" y2="146.109"/>
				<line fill="none" stroke="#1F7BC0" stroke-miterlimit="10" x1="26.88" y1="139.422" x2="26.88" y2="146.109"/>
				<line fill="none" stroke="#1F7BC0" stroke-miterlimit="10" x1="31.214" y1="139.422" x2="31.214" y2="146.109"/>
				<line fill="none" stroke="#1F7BC0" stroke-miterlimit="10" x1="80.714" y1="139.422" x2="80.714" y2="146.109"/>
				<line fill="none" stroke="#1F7BC0" stroke-miterlimit="10" x1="78.63" y1="139.422" x2="78.63" y2="146.109"/>
				<line fill="none" stroke="#1F7BC0" stroke-miterlimit="10" x1="75.38" y1="139.422" x2="75.38" y2="146.109"/>
				<line fill="none" stroke="#1F7BC0" stroke-miterlimit="10" x1="71.005" y1="139.422" x2="71.005" y2="146.109"/>
				<line fill="none" stroke="#1F7BC0" stroke-miterlimit="10" x1="65.922" y1="139.422" x2="65.922" y2="146.109"/>
			</g>
		</g>
	</g>
	<g id="Монета_фас_3_">
		<path fill="#1F7BC0" d="M44.88,137.182c-20.82,0-37.76-16.939-37.76-37.759c0-20.82,16.939-37.76,37.76-37.76
			s37.76,16.939,37.76,37.76C82.64,120.242,65.7,137.182,44.88,137.182 M44.88,62.52c-20.348,0-36.902,16.555-36.902,36.902
			c0,20.347,16.555,36.902,36.902,36.902s36.901-16.555,36.901-36.902C81.781,79.075,65.228,62.52,44.88,62.52"/>
		<path fill="#FFFFFF" stroke="#1F7BC0" stroke-miterlimit="10" d="M28.282,73.849v2.181c0.703,0.353,1.506,0.693,2.408,1.018
			c0.902,0.326,1.906,0.616,3.012,0.865v18.126h-6.046v3.287h6.046v2.181h-6.046v3.288h6.046v17.745
			c-0.954,0.201-1.882,0.451-2.786,0.752c-0.902,0.301-1.781,0.654-2.634,1.055v2.182h19.115v-2.176
			c-2.107-0.898-4.265-1.498-6.472-1.801v-17.756h12.04l1.83,4.54h1.732c0.098-1.152,0.3-4.452,0.3-5.831
			c0-0.669-0.007-1.332-0.021-1.991l-0.007-0.006H40.926v-2.181h15.875l0.007-0.006c0.014-0.656,0.021-1.32,0.021-1.989
			c0-1.381-0.202-5.306-0.3-6.458h-1.732l-1.83,5.166h-12.04V77.763h16.782l3.084,8.277h1.957c0.251-2.055,0.439-4.112,0.564-6.17
			c0.125-2.057,0.213-4.065,0.263-6.021H28.282z"/>
		<circle fill="none" stroke="#1F7BC0" stroke-miterlimit="10" cx="45.022" cy="99.458" r="34.969"/>
		<polygon fill="#FFFFFF" stroke="#1F7BC0" stroke-miterlimit="10" points="69.287,99.927 70.735,99.716 71.382,98.405 
			72.03,99.716 73.478,99.927 72.43,100.948 72.678,102.39 71.382,101.709 70.087,102.39 70.335,100.948 		"/>
		<polygon fill="#FFFFFF" stroke="#1F7BC0" stroke-miterlimit="10" points="68.75,92.103 69.856,91.942 70.351,90.94 70.845,91.942 
			71.951,92.103 71.15,92.883 71.339,93.984 70.351,93.464 69.36,93.984 69.55,92.883 		"/>
		<polygon fill="#FFFFFF" stroke="#1F7BC0" stroke-miterlimit="10" points="68.75,107.554 69.856,107.394 70.351,106.391 
			70.845,107.394 71.951,107.554 71.15,108.334 71.339,109.436 70.351,108.916 69.36,109.436 69.55,108.334 		"/>
		<polygon fill="#FFFFFF" stroke="#1F7BC0" stroke-miterlimit="10" points="21.137,99.927 19.688,99.717 19.042,98.405 
			18.394,99.717 16.946,99.927 17.994,100.949 17.747,102.39 19.042,101.709 20.337,102.39 20.089,100.949 		"/>
		<polygon fill="#FFFFFF" stroke="#1F7BC0" stroke-miterlimit="10" points="21.675,92.103 20.567,91.942 20.073,90.94 
			19.579,91.942 18.474,92.103 19.273,92.883 19.084,93.984 20.073,93.464 21.062,93.984 20.874,92.883 		"/>
		<polygon fill="#FFFFFF" stroke="#1F7BC0" stroke-miterlimit="10" points="21.675,107.554 20.567,107.394 20.073,106.392 
			19.579,107.394 18.474,107.554 19.273,108.334 19.084,109.436 20.073,108.916 21.062,109.436 20.874,108.334 		"/>
	</g>
</g>
</svg>
