<?xml version="1.0" encoding="utf-8"?>
<!-- Generator: Adobe Illustrator 16.0.0, SVG Export Plug-In . SVG Version: 6.00 Build 0)  -->
<!DOCTYPE svg PUBLIC "-//W3C//DTD SVG 1.1//EN" "http://www.w3.org/Graphics/SVG/1.1/DTD/svg11.dtd">
<svg version="1.1" id="Layer_1" xmlns="http://www.w3.org/2000/svg" xmlns:xlink="http://www.w3.org/1999/xlink" x="0px" y="0px"
	 width="90px" height="260px" viewBox="0 0 90 260" enable-background="new 0 0 90 260" xml:space="preserve">
<g>
	<g id="_x32_._15_-_30_млн">
		<g id="Монета_11_">
			
				<rect id="Монета_12_" x="7.38" y="247.76" fill="#FFFFFF" stroke="#1F7BC0" stroke-miterlimit="10" width="75" height="10"/>
			<g id="Рёбра_5_">
				<line fill="none" stroke="#1F7BC0" stroke-miterlimit="10" x1="9.317" y1="249.422" x2="9.317" y2="256.109"/>
				<line fill="none" stroke="#1F7BC0" stroke-miterlimit="10" x1="11.005" y1="249.422" x2="11.005" y2="256.109"/>
				<line fill="none" stroke="#1F7BC0" stroke-miterlimit="10" x1="12.817" y1="249.422" x2="12.817" y2="256.109"/>
				<line fill="none" stroke="#1F7BC0" stroke-miterlimit="10" x1="14.88" y1="249.422" x2="14.88" y2="256.109"/>
				<line fill="none" stroke="#1F7BC0" stroke-miterlimit="10" x1="17.192" y1="249.422" x2="17.192" y2="256.109"/>
				<line fill="none" stroke="#1F7BC0" stroke-miterlimit="10" x1="19.692" y1="249.422" x2="19.692" y2="256.109"/>
				<line fill="none" stroke="#1F7BC0" stroke-miterlimit="10" x1="23.13" y1="249.422" x2="23.13" y2="256.109"/>
				<line fill="none" stroke="#1F7BC0" stroke-miterlimit="10" x1="26.88" y1="249.422" x2="26.88" y2="256.109"/>
				<line fill="none" stroke="#1F7BC0" stroke-miterlimit="10" x1="31.213" y1="249.422" x2="31.213" y2="256.109"/>
				<line fill="none" stroke="#1F7BC0" stroke-miterlimit="10" x1="80.714" y1="249.422" x2="80.714" y2="256.109"/>
				<line fill="none" stroke="#1F7BC0" stroke-miterlimit="10" x1="78.63" y1="249.422" x2="78.63" y2="256.109"/>
				<line fill="none" stroke="#1F7BC0" stroke-miterlimit="10" x1="75.38" y1="249.422" x2="75.38" y2="256.109"/>
				<line fill="none" stroke="#1F7BC0" stroke-miterlimit="10" x1="71.005" y1="249.422" x2="71.005" y2="256.109"/>
				<line fill="none" stroke="#1F7BC0" stroke-miterlimit="10" x1="65.922" y1="249.422" x2="65.922" y2="256.109"/>
			</g>
		</g>
		<g id="Монета_9_">
			
				<rect id="Монета_10_" x="7.38" y="237.76" fill="#FFFFFF" stroke="#1F7BC0" stroke-miterlimit="10" width="75" height="10"/>
			<g id="Рёбра_4_">
				<line fill="none" stroke="#1F7BC0" stroke-miterlimit="10" x1="9.317" y1="239.422" x2="9.317" y2="246.109"/>
				<line fill="none" stroke="#1F7BC0" stroke-miterlimit="10" x1="11.005" y1="239.422" x2="11.005" y2="246.109"/>
				<line fill="none" stroke="#1F7BC0" stroke-miterlimit="10" x1="12.817" y1="239.422" x2="12.817" y2="246.109"/>
				<line fill="none" stroke="#1F7BC0" stroke-miterlimit="10" x1="14.88" y1="239.422" x2="14.88" y2="246.109"/>
				<line fill="none" stroke="#1F7BC0" stroke-miterlimit="10" x1="17.192" y1="239.422" x2="17.192" y2="246.109"/>
				<line fill="none" stroke="#1F7BC0" stroke-miterlimit="10" x1="19.692" y1="239.422" x2="19.692" y2="246.109"/>
				<line fill="none" stroke="#1F7BC0" stroke-miterlimit="10" x1="23.13" y1="239.422" x2="23.13" y2="246.109"/>
				<line fill="none" stroke="#1F7BC0" stroke-miterlimit="10" x1="26.88" y1="239.422" x2="26.88" y2="246.109"/>
				<line fill="none" stroke="#1F7BC0" stroke-miterlimit="10" x1="31.213" y1="239.422" x2="31.213" y2="246.109"/>
				<line fill="none" stroke="#1F7BC0" stroke-miterlimit="10" x1="80.714" y1="239.422" x2="80.714" y2="246.109"/>
				<line fill="none" stroke="#1F7BC0" stroke-miterlimit="10" x1="78.63" y1="239.422" x2="78.63" y2="246.109"/>
				<line fill="none" stroke="#1F7BC0" stroke-miterlimit="10" x1="75.38" y1="239.422" x2="75.38" y2="246.109"/>
				<line fill="none" stroke="#1F7BC0" stroke-miterlimit="10" x1="71.005" y1="239.422" x2="71.005" y2="246.109"/>
				<line fill="none" stroke="#1F7BC0" stroke-miterlimit="10" x1="65.922" y1="239.422" x2="65.922" y2="246.109"/>
			</g>
		</g>
		<g id="Монета_7_">
			
				<rect id="Монета_8_" x="7.38" y="227.76" fill="#FFFFFF" stroke="#1F7BC0" stroke-miterlimit="10" width="75" height="10"/>
			<g id="Рёбра_3_">
				<line fill="none" stroke="#1F7BC0" stroke-miterlimit="10" x1="9.317" y1="229.422" x2="9.317" y2="236.109"/>
				<line fill="none" stroke="#1F7BC0" stroke-miterlimit="10" x1="11.005" y1="229.422" x2="11.005" y2="236.109"/>
				<line fill="none" stroke="#1F7BC0" stroke-miterlimit="10" x1="12.817" y1="229.422" x2="12.817" y2="236.109"/>
				<line fill="none" stroke="#1F7BC0" stroke-miterlimit="10" x1="14.88" y1="229.422" x2="14.88" y2="236.109"/>
				<line fill="none" stroke="#1F7BC0" stroke-miterlimit="10" x1="17.192" y1="229.422" x2="17.192" y2="236.109"/>
				<line fill="none" stroke="#1F7BC0" stroke-miterlimit="10" x1="19.692" y1="229.422" x2="19.692" y2="236.109"/>
				<line fill="none" stroke="#1F7BC0" stroke-miterlimit="10" x1="23.13" y1="229.422" x2="23.13" y2="236.109"/>
				<line fill="none" stroke="#1F7BC0" stroke-miterlimit="10" x1="26.88" y1="229.422" x2="26.88" y2="236.109"/>
				<line fill="none" stroke="#1F7BC0" stroke-miterlimit="10" x1="31.213" y1="229.422" x2="31.213" y2="236.109"/>
				<line fill="none" stroke="#1F7BC0" stroke-miterlimit="10" x1="80.714" y1="229.422" x2="80.714" y2="236.109"/>
				<line fill="none" stroke="#1F7BC0" stroke-miterlimit="10" x1="78.63" y1="229.422" x2="78.63" y2="236.109"/>
				<line fill="none" stroke="#1F7BC0" stroke-miterlimit="10" x1="75.38" y1="229.422" x2="75.38" y2="236.109"/>
				<line fill="none" stroke="#1F7BC0" stroke-miterlimit="10" x1="71.005" y1="229.422" x2="71.005" y2="236.109"/>
				<line fill="none" stroke="#1F7BC0" stroke-miterlimit="10" x1="65.922" y1="229.422" x2="65.922" y2="236.109"/>
			</g>
		</g>
		<g id="Монета_17_">
			
				<rect id="Монета_18_" x="7.38" y="217.76" fill="#FFFFFF" stroke="#1F7BC0" stroke-miterlimit="10" width="75" height="10"/>
			<g id="Рёбра_8_">
				<line fill="none" stroke="#1F7BC0" stroke-miterlimit="10" x1="9.317" y1="219.422" x2="9.317" y2="226.109"/>
				<line fill="none" stroke="#1F7BC0" stroke-miterlimit="10" x1="11.005" y1="219.422" x2="11.005" y2="226.109"/>
				<line fill="none" stroke="#1F7BC0" stroke-miterlimit="10" x1="12.817" y1="219.422" x2="12.817" y2="226.109"/>
				<line fill="none" stroke="#1F7BC0" stroke-miterlimit="10" x1="14.88" y1="219.422" x2="14.88" y2="226.109"/>
				<line fill="none" stroke="#1F7BC0" stroke-miterlimit="10" x1="17.192" y1="219.422" x2="17.192" y2="226.109"/>
				<line fill="none" stroke="#1F7BC0" stroke-miterlimit="10" x1="19.692" y1="219.422" x2="19.692" y2="226.109"/>
				<line fill="none" stroke="#1F7BC0" stroke-miterlimit="10" x1="23.13" y1="219.422" x2="23.13" y2="226.109"/>
				<line fill="none" stroke="#1F7BC0" stroke-miterlimit="10" x1="26.88" y1="219.422" x2="26.88" y2="226.109"/>
				<line fill="none" stroke="#1F7BC0" stroke-miterlimit="10" x1="31.213" y1="219.422" x2="31.213" y2="226.109"/>
				<line fill="none" stroke="#1F7BC0" stroke-miterlimit="10" x1="80.714" y1="219.422" x2="80.714" y2="226.109"/>
				<line fill="none" stroke="#1F7BC0" stroke-miterlimit="10" x1="78.63" y1="219.422" x2="78.63" y2="226.109"/>
				<line fill="none" stroke="#1F7BC0" stroke-miterlimit="10" x1="75.38" y1="219.422" x2="75.38" y2="226.109"/>
				<line fill="none" stroke="#1F7BC0" stroke-miterlimit="10" x1="71.005" y1="219.422" x2="71.005" y2="226.109"/>
				<line fill="none" stroke="#1F7BC0" stroke-miterlimit="10" x1="65.922" y1="219.422" x2="65.922" y2="226.109"/>
			</g>
		</g>
		<g id="Монета_15_">
			
				<rect id="Монета_16_" x="7.38" y="207.76" fill="#FFFFFF" stroke="#1F7BC0" stroke-miterlimit="10" width="75" height="10"/>
			<g id="Рёбра_7_">
				<line fill="none" stroke="#1F7BC0" stroke-miterlimit="10" x1="9.317" y1="209.422" x2="9.317" y2="216.109"/>
				<line fill="none" stroke="#1F7BC0" stroke-miterlimit="10" x1="11.005" y1="209.422" x2="11.005" y2="216.109"/>
				<line fill="none" stroke="#1F7BC0" stroke-miterlimit="10" x1="12.817" y1="209.422" x2="12.817" y2="216.109"/>
				<line fill="none" stroke="#1F7BC0" stroke-miterlimit="10" x1="14.88" y1="209.422" x2="14.88" y2="216.109"/>
				<line fill="none" stroke="#1F7BC0" stroke-miterlimit="10" x1="17.192" y1="209.422" x2="17.192" y2="216.109"/>
				<line fill="none" stroke="#1F7BC0" stroke-miterlimit="10" x1="19.692" y1="209.422" x2="19.692" y2="216.109"/>
				<line fill="none" stroke="#1F7BC0" stroke-miterlimit="10" x1="23.13" y1="209.422" x2="23.13" y2="216.109"/>
				<line fill="none" stroke="#1F7BC0" stroke-miterlimit="10" x1="26.88" y1="209.422" x2="26.88" y2="216.109"/>
				<line fill="none" stroke="#1F7BC0" stroke-miterlimit="10" x1="31.213" y1="209.422" x2="31.213" y2="216.109"/>
				<line fill="none" stroke="#1F7BC0" stroke-miterlimit="10" x1="80.714" y1="209.422" x2="80.714" y2="216.109"/>
				<line fill="none" stroke="#1F7BC0" stroke-miterlimit="10" x1="78.63" y1="209.422" x2="78.63" y2="216.109"/>
				<line fill="none" stroke="#1F7BC0" stroke-miterlimit="10" x1="75.38" y1="209.422" x2="75.38" y2="216.109"/>
				<line fill="none" stroke="#1F7BC0" stroke-miterlimit="10" x1="71.005" y1="209.422" x2="71.005" y2="216.109"/>
				<line fill="none" stroke="#1F7BC0" stroke-miterlimit="10" x1="65.922" y1="209.422" x2="65.922" y2="216.109"/>
			</g>
		</g>
		<g id="Монета_13_">
			
				<rect id="Монета_14_" x="7.38" y="197.76" fill="#FFFFFF" stroke="#1F7BC0" stroke-miterlimit="10" width="75" height="10"/>
			<g id="Рёбра_6_">
				<line fill="none" stroke="#1F7BC0" stroke-miterlimit="10" x1="9.317" y1="199.422" x2="9.317" y2="206.109"/>
				<line fill="none" stroke="#1F7BC0" stroke-miterlimit="10" x1="11.005" y1="199.422" x2="11.005" y2="206.109"/>
				<line fill="none" stroke="#1F7BC0" stroke-miterlimit="10" x1="12.817" y1="199.422" x2="12.817" y2="206.109"/>
				<line fill="none" stroke="#1F7BC0" stroke-miterlimit="10" x1="14.88" y1="199.422" x2="14.88" y2="206.109"/>
				<line fill="none" stroke="#1F7BC0" stroke-miterlimit="10" x1="17.192" y1="199.422" x2="17.192" y2="206.109"/>
				<line fill="none" stroke="#1F7BC0" stroke-miterlimit="10" x1="19.692" y1="199.422" x2="19.692" y2="206.109"/>
				<line fill="none" stroke="#1F7BC0" stroke-miterlimit="10" x1="23.13" y1="199.422" x2="23.13" y2="206.109"/>
				<line fill="none" stroke="#1F7BC0" stroke-miterlimit="10" x1="26.88" y1="199.422" x2="26.88" y2="206.109"/>
				<line fill="none" stroke="#1F7BC0" stroke-miterlimit="10" x1="31.213" y1="199.422" x2="31.213" y2="206.109"/>
				<line fill="none" stroke="#1F7BC0" stroke-miterlimit="10" x1="80.714" y1="199.422" x2="80.714" y2="206.109"/>
				<line fill="none" stroke="#1F7BC0" stroke-miterlimit="10" x1="78.63" y1="199.422" x2="78.63" y2="206.109"/>
				<line fill="none" stroke="#1F7BC0" stroke-miterlimit="10" x1="75.38" y1="199.422" x2="75.38" y2="206.109"/>
				<line fill="none" stroke="#1F7BC0" stroke-miterlimit="10" x1="71.005" y1="199.422" x2="71.005" y2="206.109"/>
				<line fill="none" stroke="#1F7BC0" stroke-miterlimit="10" x1="65.922" y1="199.422" x2="65.922" y2="206.109"/>
			</g>
		</g>
	</g>
	<g id="Монета_фас_1_">
		<path fill="#1F7BC0" d="M44.88,197.787c-20.821,0-37.76-16.939-37.76-37.759c0-20.82,16.938-37.76,37.76-37.76
			c20.82,0,37.76,16.939,37.76,37.76C82.64,180.848,65.7,197.787,44.88,197.787 M44.88,123.125
			c-20.348,0-36.901,16.555-36.901,36.902c0,20.347,16.554,36.902,36.901,36.902s36.901-16.555,36.901-36.902
			C81.781,139.68,65.228,123.125,44.88,123.125"/>
		<path fill="#FFFFFF" stroke="#1F7BC0" stroke-miterlimit="10" d="M28.283,134.455v2.181c0.701,0.353,1.505,0.693,2.407,1.018
			c0.903,0.326,1.907,0.616,3.011,0.865v18.126h-6.045v3.287h6.045v2.181h-6.045v3.288h6.045v17.745
			c-0.953,0.201-1.881,0.451-2.785,0.752c-0.902,0.301-1.781,0.654-2.633,1.055v2.182h19.114v-2.176
			c-2.107-0.898-4.265-1.498-6.472-1.801V165.4h12.04l1.83,4.54h1.732c0.098-1.152,0.3-4.452,0.3-5.831
			c0-0.669-0.007-1.332-0.021-1.991l-0.007-0.006H40.926v-2.181h15.875l0.007-0.006c0.014-0.656,0.021-1.32,0.021-1.989
			c0-1.381-0.202-5.306-0.3-6.458h-1.732l-1.83,5.166h-12.04v-18.276h16.782l3.084,8.277h1.957c0.251-2.055,0.439-4.112,0.564-6.17
			c0.125-2.057,0.213-4.065,0.263-6.021H28.283z"/>
		<circle fill="none" stroke="#1F7BC0" stroke-miterlimit="10" cx="45.022" cy="160.064" r="34.969"/>
		<polygon fill="#FFFFFF" stroke="#1F7BC0" stroke-miterlimit="10" points="69.287,160.533 70.735,160.322 71.382,159.01 
			72.03,160.322 73.478,160.533 72.43,161.553 72.678,162.996 71.382,162.315 70.087,162.996 70.335,161.553 		"/>
		<polygon fill="#FFFFFF" stroke="#1F7BC0" stroke-miterlimit="10" points="68.75,152.708 69.856,152.547 70.351,151.545 
			70.845,152.547 71.951,152.708 71.15,153.489 71.339,154.589 70.351,154.07 69.36,154.589 69.55,153.489 		"/>
		<polygon fill="#FFFFFF" stroke="#1F7BC0" stroke-miterlimit="10" points="68.75,168.16 69.856,168 70.351,166.997 70.845,168 
			71.951,168.16 71.15,168.939 71.339,170.041 70.351,169.521 69.36,170.041 69.55,168.939 		"/>
		<polygon fill="#FFFFFF" stroke="#1F7BC0" stroke-miterlimit="10" points="21.137,160.533 19.689,160.323 19.041,159.01 
			18.395,160.323 16.946,160.533 17.994,161.554 17.746,162.996 19.041,162.315 20.336,162.996 20.09,161.554 		"/>
		<polygon fill="#FFFFFF" stroke="#1F7BC0" stroke-miterlimit="10" points="21.674,152.708 20.568,152.547 20.073,151.545 
			19.579,152.547 18.473,152.708 19.273,153.489 19.084,154.589 20.073,154.07 21.062,154.589 20.874,153.489 		"/>
		<polygon fill="#FFFFFF" stroke="#1F7BC0" stroke-miterlimit="10" points="21.674,168.16 20.568,168 20.073,166.998 19.579,168 
			18.473,168.16 19.273,168.939 19.084,170.041 20.073,169.521 21.062,170.041 20.874,168.939 		"/>
	</g>
</g>
</svg>
