<?xml version="1.0" encoding="utf-8"?>
<!-- Generator: Adobe Illustrator 16.0.0, SVG Export Plug-In . SVG Version: 6.00 Build 0)  -->
<!DOCTYPE svg PUBLIC "-//W3C//DTD SVG 1.1//EN" "http://www.w3.org/Graphics/SVG/1.1/DTD/svg11.dtd">
<svg version="1.1" id="Layer_1" xmlns="http://www.w3.org/2000/svg" xmlns:xlink="http://www.w3.org/1999/xlink" x="0px" y="0px"
	 width="90px" height="260px" viewBox="0 0 90 260" enable-background="new 0 0 90 260" xml:space="preserve">
<g>
	<g id="_x33_._30_-_40_млн">
		<g id="Монета_29_">
			
				<rect id="Монета_30_" x="7.76" y="247.76" fill="#FFFFFF" stroke="#1F7BC0" stroke-miterlimit="10" width="75" height="10"/>
			<g id="Рёбра_14_">
				<line fill="none" stroke="#1F7BC0" stroke-miterlimit="10" x1="9.697" y1="249.422" x2="9.697" y2="256.109"/>
				<line fill="none" stroke="#1F7BC0" stroke-miterlimit="10" x1="11.385" y1="249.422" x2="11.385" y2="256.109"/>
				<line fill="none" stroke="#1F7BC0" stroke-miterlimit="10" x1="13.197" y1="249.422" x2="13.197" y2="256.109"/>
				<line fill="none" stroke="#1F7BC0" stroke-miterlimit="10" x1="15.26" y1="249.422" x2="15.26" y2="256.109"/>
				<line fill="none" stroke="#1F7BC0" stroke-miterlimit="10" x1="17.572" y1="249.422" x2="17.572" y2="256.109"/>
				<line fill="none" stroke="#1F7BC0" stroke-miterlimit="10" x1="20.072" y1="249.422" x2="20.072" y2="256.109"/>
				<line fill="none" stroke="#1F7BC0" stroke-miterlimit="10" x1="23.51" y1="249.422" x2="23.51" y2="256.109"/>
				<line fill="none" stroke="#1F7BC0" stroke-miterlimit="10" x1="27.26" y1="249.422" x2="27.26" y2="256.109"/>
				<line fill="none" stroke="#1F7BC0" stroke-miterlimit="10" x1="31.593" y1="249.422" x2="31.593" y2="256.109"/>
				<line fill="none" stroke="#1F7BC0" stroke-miterlimit="10" x1="81.094" y1="249.422" x2="81.094" y2="256.109"/>
				<line fill="none" stroke="#1F7BC0" stroke-miterlimit="10" x1="79.01" y1="249.422" x2="79.01" y2="256.109"/>
				<line fill="none" stroke="#1F7BC0" stroke-miterlimit="10" x1="75.76" y1="249.422" x2="75.76" y2="256.109"/>
				<line fill="none" stroke="#1F7BC0" stroke-miterlimit="10" x1="71.385" y1="249.422" x2="71.385" y2="256.109"/>
				<line fill="none" stroke="#1F7BC0" stroke-miterlimit="10" x1="66.302" y1="249.422" x2="66.302" y2="256.109"/>
			</g>
		</g>
		<g id="Монета_27_">
			
				<rect id="Монета_28_" x="7.76" y="237.76" fill="#FFFFFF" stroke="#1F7BC0" stroke-miterlimit="10" width="75" height="10"/>
			<g id="Рёбра_13_">
				<line fill="none" stroke="#1F7BC0" stroke-miterlimit="10" x1="9.697" y1="239.422" x2="9.697" y2="246.109"/>
				<line fill="none" stroke="#1F7BC0" stroke-miterlimit="10" x1="11.385" y1="239.422" x2="11.385" y2="246.109"/>
				<line fill="none" stroke="#1F7BC0" stroke-miterlimit="10" x1="13.197" y1="239.422" x2="13.197" y2="246.109"/>
				<line fill="none" stroke="#1F7BC0" stroke-miterlimit="10" x1="15.26" y1="239.422" x2="15.26" y2="246.109"/>
				<line fill="none" stroke="#1F7BC0" stroke-miterlimit="10" x1="17.572" y1="239.422" x2="17.572" y2="246.109"/>
				<line fill="none" stroke="#1F7BC0" stroke-miterlimit="10" x1="20.072" y1="239.422" x2="20.072" y2="246.109"/>
				<line fill="none" stroke="#1F7BC0" stroke-miterlimit="10" x1="23.51" y1="239.422" x2="23.51" y2="246.109"/>
				<line fill="none" stroke="#1F7BC0" stroke-miterlimit="10" x1="27.26" y1="239.422" x2="27.26" y2="246.109"/>
				<line fill="none" stroke="#1F7BC0" stroke-miterlimit="10" x1="31.593" y1="239.422" x2="31.593" y2="246.109"/>
				<line fill="none" stroke="#1F7BC0" stroke-miterlimit="10" x1="81.094" y1="239.422" x2="81.094" y2="246.109"/>
				<line fill="none" stroke="#1F7BC0" stroke-miterlimit="10" x1="79.01" y1="239.422" x2="79.01" y2="246.109"/>
				<line fill="none" stroke="#1F7BC0" stroke-miterlimit="10" x1="75.76" y1="239.422" x2="75.76" y2="246.109"/>
				<line fill="none" stroke="#1F7BC0" stroke-miterlimit="10" x1="71.385" y1="239.422" x2="71.385" y2="246.109"/>
				<line fill="none" stroke="#1F7BC0" stroke-miterlimit="10" x1="66.302" y1="239.422" x2="66.302" y2="246.109"/>
			</g>
		</g>
		<g id="Монета_25_">
			
				<rect id="Монета_26_" x="7.76" y="227.76" fill="#FFFFFF" stroke="#1F7BC0" stroke-miterlimit="10" width="75" height="10"/>
			<g id="Рёбра_12_">
				<line fill="none" stroke="#1F7BC0" stroke-miterlimit="10" x1="9.697" y1="229.422" x2="9.697" y2="236.109"/>
				<line fill="none" stroke="#1F7BC0" stroke-miterlimit="10" x1="11.385" y1="229.422" x2="11.385" y2="236.109"/>
				<line fill="none" stroke="#1F7BC0" stroke-miterlimit="10" x1="13.197" y1="229.422" x2="13.197" y2="236.109"/>
				<line fill="none" stroke="#1F7BC0" stroke-miterlimit="10" x1="15.26" y1="229.422" x2="15.26" y2="236.109"/>
				<line fill="none" stroke="#1F7BC0" stroke-miterlimit="10" x1="17.572" y1="229.422" x2="17.572" y2="236.109"/>
				<line fill="none" stroke="#1F7BC0" stroke-miterlimit="10" x1="20.072" y1="229.422" x2="20.072" y2="236.109"/>
				<line fill="none" stroke="#1F7BC0" stroke-miterlimit="10" x1="23.51" y1="229.422" x2="23.51" y2="236.109"/>
				<line fill="none" stroke="#1F7BC0" stroke-miterlimit="10" x1="27.26" y1="229.422" x2="27.26" y2="236.109"/>
				<line fill="none" stroke="#1F7BC0" stroke-miterlimit="10" x1="31.593" y1="229.422" x2="31.593" y2="236.109"/>
				<line fill="none" stroke="#1F7BC0" stroke-miterlimit="10" x1="81.094" y1="229.422" x2="81.094" y2="236.109"/>
				<line fill="none" stroke="#1F7BC0" stroke-miterlimit="10" x1="79.01" y1="229.422" x2="79.01" y2="236.109"/>
				<line fill="none" stroke="#1F7BC0" stroke-miterlimit="10" x1="75.76" y1="229.422" x2="75.76" y2="236.109"/>
				<line fill="none" stroke="#1F7BC0" stroke-miterlimit="10" x1="71.385" y1="229.422" x2="71.385" y2="236.109"/>
				<line fill="none" stroke="#1F7BC0" stroke-miterlimit="10" x1="66.302" y1="229.422" x2="66.302" y2="236.109"/>
			</g>
		</g>
		<g id="Монета_23_">
			
				<rect id="Монета_24_" x="7.76" y="217.76" fill="#FFFFFF" stroke="#1F7BC0" stroke-miterlimit="10" width="75" height="10"/>
			<g id="Рёбра_11_">
				<line fill="none" stroke="#1F7BC0" stroke-miterlimit="10" x1="9.697" y1="219.422" x2="9.697" y2="226.109"/>
				<line fill="none" stroke="#1F7BC0" stroke-miterlimit="10" x1="11.385" y1="219.422" x2="11.385" y2="226.109"/>
				<line fill="none" stroke="#1F7BC0" stroke-miterlimit="10" x1="13.197" y1="219.422" x2="13.197" y2="226.109"/>
				<line fill="none" stroke="#1F7BC0" stroke-miterlimit="10" x1="15.26" y1="219.422" x2="15.26" y2="226.109"/>
				<line fill="none" stroke="#1F7BC0" stroke-miterlimit="10" x1="17.572" y1="219.422" x2="17.572" y2="226.109"/>
				<line fill="none" stroke="#1F7BC0" stroke-miterlimit="10" x1="20.072" y1="219.422" x2="20.072" y2="226.109"/>
				<line fill="none" stroke="#1F7BC0" stroke-miterlimit="10" x1="23.51" y1="219.422" x2="23.51" y2="226.109"/>
				<line fill="none" stroke="#1F7BC0" stroke-miterlimit="10" x1="27.26" y1="219.422" x2="27.26" y2="226.109"/>
				<line fill="none" stroke="#1F7BC0" stroke-miterlimit="10" x1="31.593" y1="219.422" x2="31.593" y2="226.109"/>
				<line fill="none" stroke="#1F7BC0" stroke-miterlimit="10" x1="81.094" y1="219.422" x2="81.094" y2="226.109"/>
				<line fill="none" stroke="#1F7BC0" stroke-miterlimit="10" x1="79.01" y1="219.422" x2="79.01" y2="226.109"/>
				<line fill="none" stroke="#1F7BC0" stroke-miterlimit="10" x1="75.76" y1="219.422" x2="75.76" y2="226.109"/>
				<line fill="none" stroke="#1F7BC0" stroke-miterlimit="10" x1="71.385" y1="219.422" x2="71.385" y2="226.109"/>
				<line fill="none" stroke="#1F7BC0" stroke-miterlimit="10" x1="66.302" y1="219.422" x2="66.302" y2="226.109"/>
			</g>
		</g>
		<g id="Монета_21_">
			
				<rect id="Монета_22_" x="7.76" y="207.76" fill="#FFFFFF" stroke="#1F7BC0" stroke-miterlimit="10" width="75" height="10"/>
			<g id="Рёбра_10_">
				<line fill="none" stroke="#1F7BC0" stroke-miterlimit="10" x1="9.697" y1="209.422" x2="9.697" y2="216.109"/>
				<line fill="none" stroke="#1F7BC0" stroke-miterlimit="10" x1="11.385" y1="209.422" x2="11.385" y2="216.109"/>
				<line fill="none" stroke="#1F7BC0" stroke-miterlimit="10" x1="13.197" y1="209.422" x2="13.197" y2="216.109"/>
				<line fill="none" stroke="#1F7BC0" stroke-miterlimit="10" x1="15.26" y1="209.422" x2="15.26" y2="216.109"/>
				<line fill="none" stroke="#1F7BC0" stroke-miterlimit="10" x1="17.572" y1="209.422" x2="17.572" y2="216.109"/>
				<line fill="none" stroke="#1F7BC0" stroke-miterlimit="10" x1="20.072" y1="209.422" x2="20.072" y2="216.109"/>
				<line fill="none" stroke="#1F7BC0" stroke-miterlimit="10" x1="23.51" y1="209.422" x2="23.51" y2="216.109"/>
				<line fill="none" stroke="#1F7BC0" stroke-miterlimit="10" x1="27.26" y1="209.422" x2="27.26" y2="216.109"/>
				<line fill="none" stroke="#1F7BC0" stroke-miterlimit="10" x1="31.593" y1="209.422" x2="31.593" y2="216.109"/>
				<line fill="none" stroke="#1F7BC0" stroke-miterlimit="10" x1="81.094" y1="209.422" x2="81.094" y2="216.109"/>
				<line fill="none" stroke="#1F7BC0" stroke-miterlimit="10" x1="79.01" y1="209.422" x2="79.01" y2="216.109"/>
				<line fill="none" stroke="#1F7BC0" stroke-miterlimit="10" x1="75.76" y1="209.422" x2="75.76" y2="216.109"/>
				<line fill="none" stroke="#1F7BC0" stroke-miterlimit="10" x1="71.385" y1="209.422" x2="71.385" y2="216.109"/>
				<line fill="none" stroke="#1F7BC0" stroke-miterlimit="10" x1="66.302" y1="209.422" x2="66.302" y2="216.109"/>
			</g>
		</g>
		<g id="Монета_19_">
			
				<rect id="Монета_20_" x="7.76" y="197.76" fill="#FFFFFF" stroke="#1F7BC0" stroke-miterlimit="10" width="75" height="10"/>
			<g id="Рёбра_9_">
				<line fill="none" stroke="#1F7BC0" stroke-miterlimit="10" x1="9.697" y1="199.422" x2="9.697" y2="206.109"/>
				<line fill="none" stroke="#1F7BC0" stroke-miterlimit="10" x1="11.385" y1="199.422" x2="11.385" y2="206.109"/>
				<line fill="none" stroke="#1F7BC0" stroke-miterlimit="10" x1="13.197" y1="199.422" x2="13.197" y2="206.109"/>
				<line fill="none" stroke="#1F7BC0" stroke-miterlimit="10" x1="15.26" y1="199.422" x2="15.26" y2="206.109"/>
				<line fill="none" stroke="#1F7BC0" stroke-miterlimit="10" x1="17.572" y1="199.422" x2="17.572" y2="206.109"/>
				<line fill="none" stroke="#1F7BC0" stroke-miterlimit="10" x1="20.072" y1="199.422" x2="20.072" y2="206.109"/>
				<line fill="none" stroke="#1F7BC0" stroke-miterlimit="10" x1="23.51" y1="199.422" x2="23.51" y2="206.109"/>
				<line fill="none" stroke="#1F7BC0" stroke-miterlimit="10" x1="27.26" y1="199.422" x2="27.26" y2="206.109"/>
				<line fill="none" stroke="#1F7BC0" stroke-miterlimit="10" x1="31.593" y1="199.422" x2="31.593" y2="206.109"/>
				<line fill="none" stroke="#1F7BC0" stroke-miterlimit="10" x1="81.094" y1="199.422" x2="81.094" y2="206.109"/>
				<line fill="none" stroke="#1F7BC0" stroke-miterlimit="10" x1="79.01" y1="199.422" x2="79.01" y2="206.109"/>
				<line fill="none" stroke="#1F7BC0" stroke-miterlimit="10" x1="75.76" y1="199.422" x2="75.76" y2="206.109"/>
				<line fill="none" stroke="#1F7BC0" stroke-miterlimit="10" x1="71.385" y1="199.422" x2="71.385" y2="206.109"/>
				<line fill="none" stroke="#1F7BC0" stroke-miterlimit="10" x1="66.302" y1="199.422" x2="66.302" y2="206.109"/>
			</g>
		</g>
		<g id="Монета_33_">
			
				<rect id="Монета_34_" x="7.76" y="187.76" fill="#FFFFFF" stroke="#1F7BC0" stroke-miterlimit="10" width="75" height="10"/>
			<g id="Рёбра_16_">
				<line fill="none" stroke="#1F7BC0" stroke-miterlimit="10" x1="9.697" y1="189.422" x2="9.697" y2="196.109"/>
				<line fill="none" stroke="#1F7BC0" stroke-miterlimit="10" x1="11.385" y1="189.422" x2="11.385" y2="196.109"/>
				<line fill="none" stroke="#1F7BC0" stroke-miterlimit="10" x1="13.197" y1="189.422" x2="13.197" y2="196.109"/>
				<line fill="none" stroke="#1F7BC0" stroke-miterlimit="10" x1="15.26" y1="189.422" x2="15.26" y2="196.109"/>
				<line fill="none" stroke="#1F7BC0" stroke-miterlimit="10" x1="17.572" y1="189.422" x2="17.572" y2="196.109"/>
				<line fill="none" stroke="#1F7BC0" stroke-miterlimit="10" x1="20.072" y1="189.422" x2="20.072" y2="196.109"/>
				<line fill="none" stroke="#1F7BC0" stroke-miterlimit="10" x1="23.51" y1="189.422" x2="23.51" y2="196.109"/>
				<line fill="none" stroke="#1F7BC0" stroke-miterlimit="10" x1="27.26" y1="189.422" x2="27.26" y2="196.109"/>
				<line fill="none" stroke="#1F7BC0" stroke-miterlimit="10" x1="31.593" y1="189.422" x2="31.593" y2="196.109"/>
				<line fill="none" stroke="#1F7BC0" stroke-miterlimit="10" x1="81.094" y1="189.422" x2="81.094" y2="196.109"/>
				<line fill="none" stroke="#1F7BC0" stroke-miterlimit="10" x1="79.01" y1="189.422" x2="79.01" y2="196.109"/>
				<line fill="none" stroke="#1F7BC0" stroke-miterlimit="10" x1="75.76" y1="189.422" x2="75.76" y2="196.109"/>
				<line fill="none" stroke="#1F7BC0" stroke-miterlimit="10" x1="71.385" y1="189.422" x2="71.385" y2="196.109"/>
				<line fill="none" stroke="#1F7BC0" stroke-miterlimit="10" x1="66.302" y1="189.422" x2="66.302" y2="196.109"/>
			</g>
		</g>
		<g id="Монета_31_">
			
				<rect id="Монета_32_" x="7.76" y="177.76" fill="#FFFFFF" stroke="#1F7BC0" stroke-miterlimit="10" width="75" height="10"/>
			<g id="Рёбра_15_">
				<line fill="none" stroke="#1F7BC0" stroke-miterlimit="10" x1="9.697" y1="179.422" x2="9.697" y2="186.109"/>
				<line fill="none" stroke="#1F7BC0" stroke-miterlimit="10" x1="11.385" y1="179.422" x2="11.385" y2="186.109"/>
				<line fill="none" stroke="#1F7BC0" stroke-miterlimit="10" x1="13.197" y1="179.422" x2="13.197" y2="186.109"/>
				<line fill="none" stroke="#1F7BC0" stroke-miterlimit="10" x1="15.26" y1="179.422" x2="15.26" y2="186.109"/>
				<line fill="none" stroke="#1F7BC0" stroke-miterlimit="10" x1="17.572" y1="179.422" x2="17.572" y2="186.109"/>
				<line fill="none" stroke="#1F7BC0" stroke-miterlimit="10" x1="20.072" y1="179.422" x2="20.072" y2="186.109"/>
				<line fill="none" stroke="#1F7BC0" stroke-miterlimit="10" x1="23.51" y1="179.422" x2="23.51" y2="186.109"/>
				<line fill="none" stroke="#1F7BC0" stroke-miterlimit="10" x1="27.26" y1="179.422" x2="27.26" y2="186.109"/>
				<line fill="none" stroke="#1F7BC0" stroke-miterlimit="10" x1="31.593" y1="179.422" x2="31.593" y2="186.109"/>
				<line fill="none" stroke="#1F7BC0" stroke-miterlimit="10" x1="81.094" y1="179.422" x2="81.094" y2="186.109"/>
				<line fill="none" stroke="#1F7BC0" stroke-miterlimit="10" x1="79.01" y1="179.422" x2="79.01" y2="186.109"/>
				<line fill="none" stroke="#1F7BC0" stroke-miterlimit="10" x1="75.76" y1="179.422" x2="75.76" y2="186.109"/>
				<line fill="none" stroke="#1F7BC0" stroke-miterlimit="10" x1="71.385" y1="179.422" x2="71.385" y2="186.109"/>
				<line fill="none" stroke="#1F7BC0" stroke-miterlimit="10" x1="66.302" y1="179.422" x2="66.302" y2="186.109"/>
			</g>
		</g>
	</g>
	<g id="Монета_фас_2_">
		<path fill="#1F7BC0" d="M44.76,177.182C23.938,177.182,7,160.242,7,139.422c0-20.82,16.938-37.76,37.76-37.76
			c20.82,0,37.76,16.939,37.76,37.76C82.52,160.242,65.58,177.182,44.76,177.182 M44.76,102.52
			c-20.348,0-36.901,16.555-36.901,36.902c0,20.347,16.554,36.902,36.901,36.902s36.901-16.555,36.901-36.902
			C81.661,119.075,65.107,102.52,44.76,102.52"/>
		<path fill="#FFFFFF" stroke="#1F7BC0" stroke-miterlimit="10" d="M28.163,113.849v2.181c0.701,0.353,1.505,0.693,2.407,1.018
			c0.903,0.326,1.907,0.616,3.011,0.865v18.126h-6.045v3.287h6.045v2.181h-6.045v3.288h6.045v17.745
			c-0.953,0.201-1.881,0.451-2.785,0.752c-0.902,0.301-1.781,0.654-2.633,1.055v2.182h19.114v-2.176
			c-2.107-0.898-4.265-1.498-6.472-1.801v-17.756h12.04l1.83,4.54h1.732c0.098-1.152,0.3-4.452,0.3-5.831
			c0-0.669-0.007-1.332-0.021-1.991l-0.007-0.006H40.806v-2.181h15.875l0.007-0.006c0.014-0.656,0.021-1.32,0.021-1.989
			c0-1.381-0.202-5.306-0.3-6.458h-1.732l-1.83,5.166h-12.04v-18.276h16.782l3.084,8.277h1.957c0.251-2.055,0.439-4.112,0.564-6.17
			c0.125-2.057,0.213-4.065,0.263-6.021H28.163z"/>
		<circle fill="none" stroke="#1F7BC0" stroke-miterlimit="10" cx="44.902" cy="139.458" r="34.969"/>
		<polygon fill="#FFFFFF" stroke="#1F7BC0" stroke-miterlimit="10" points="69.167,139.927 70.615,139.716 71.262,138.405 
			71.91,139.716 73.357,139.927 72.31,140.948 72.558,142.39 71.262,141.709 69.967,142.39 70.215,140.948 		"/>
		<polygon fill="#FFFFFF" stroke="#1F7BC0" stroke-miterlimit="10" points="68.63,132.103 69.736,131.942 70.23,130.94 
			70.725,131.942 71.831,132.103 71.03,132.883 71.219,133.984 70.23,133.464 69.24,133.984 69.43,132.883 		"/>
		<polygon fill="#FFFFFF" stroke="#1F7BC0" stroke-miterlimit="10" points="68.63,147.554 69.736,147.394 70.23,146.391 
			70.725,147.394 71.831,147.554 71.03,148.334 71.219,149.436 70.23,148.916 69.24,149.436 69.43,148.334 		"/>
		<polygon fill="#FFFFFF" stroke="#1F7BC0" stroke-miterlimit="10" points="21.017,139.927 19.569,139.717 18.921,138.405 
			18.274,139.717 16.826,139.927 17.874,140.949 17.626,142.39 18.921,141.709 20.216,142.39 19.97,140.949 		"/>
		<polygon fill="#FFFFFF" stroke="#1F7BC0" stroke-miterlimit="10" points="21.554,132.103 20.448,131.942 19.953,130.94 
			19.459,131.942 18.353,132.103 19.153,132.883 18.964,133.984 19.953,133.464 20.942,133.984 20.754,132.883 		"/>
		<polygon fill="#FFFFFF" stroke="#1F7BC0" stroke-miterlimit="10" points="21.554,147.554 20.448,147.394 19.953,146.392 
			19.459,147.394 18.353,147.554 19.153,148.334 18.964,149.436 19.953,148.916 20.942,149.436 20.754,148.334 		"/>
	</g>
</g>
</svg>
