<?xml version="1.0" encoding="utf-8"?>
<!-- Generator: Adobe Illustrator 16.0.0, SVG Export Plug-In . SVG Version: 6.00 Build 0)  -->
<!DOCTYPE svg PUBLIC "-//W3C//DTD SVG 1.1//EN" "http://www.w3.org/Graphics/SVG/1.1/DTD/svg11.dtd">
<svg version="1.1" id="Layer_1" xmlns="http://www.w3.org/2000/svg" xmlns:xlink="http://www.w3.org/1999/xlink" x="0px" y="0px"
	 width="90px" height="260px" viewBox="0 0 90 260" enable-background="new 0 0 90 260" xml:space="preserve">
<g>
	<g id="_x31_._до_15_млн">
		<g id="Монета_2_">
			
				<rect id="Монета_1_" x="7.77" y="247.76" fill="#FFFFFF" stroke="#1F7BC0" stroke-miterlimit="10" width="75" height="10"/>
			<g id="Рёбра">
				<line fill="none" stroke="#1F7BC0" stroke-miterlimit="10" x1="9.708" y1="249.422" x2="9.708" y2="256.109"/>
				<line fill="none" stroke="#1F7BC0" stroke-miterlimit="10" x1="11.395" y1="249.422" x2="11.395" y2="256.109"/>
				<line fill="none" stroke="#1F7BC0" stroke-miterlimit="10" x1="13.208" y1="249.422" x2="13.208" y2="256.109"/>
				<line fill="none" stroke="#1F7BC0" stroke-miterlimit="10" x1="15.27" y1="249.422" x2="15.27" y2="256.109"/>
				<line fill="none" stroke="#1F7BC0" stroke-miterlimit="10" x1="17.583" y1="249.422" x2="17.583" y2="256.109"/>
				<line fill="none" stroke="#1F7BC0" stroke-miterlimit="10" x1="20.083" y1="249.422" x2="20.083" y2="256.109"/>
				<line fill="none" stroke="#1F7BC0" stroke-miterlimit="10" x1="23.52" y1="249.422" x2="23.52" y2="256.109"/>
				<line fill="none" stroke="#1F7BC0" stroke-miterlimit="10" x1="27.27" y1="249.422" x2="27.27" y2="256.109"/>
				<line fill="none" stroke="#1F7BC0" stroke-miterlimit="10" x1="31.604" y1="249.422" x2="31.604" y2="256.109"/>
				<line fill="none" stroke="#1F7BC0" stroke-miterlimit="10" x1="81.104" y1="249.422" x2="81.104" y2="256.109"/>
				<line fill="none" stroke="#1F7BC0" stroke-miterlimit="10" x1="79.02" y1="249.422" x2="79.02" y2="256.109"/>
				<line fill="none" stroke="#1F7BC0" stroke-miterlimit="10" x1="75.77" y1="249.422" x2="75.77" y2="256.109"/>
				<line fill="none" stroke="#1F7BC0" stroke-miterlimit="10" x1="71.395" y1="249.422" x2="71.395" y2="256.109"/>
				<line fill="none" stroke="#1F7BC0" stroke-miterlimit="10" x1="66.312" y1="249.422" x2="66.312" y2="256.109"/>
			</g>
		</g>
		<g id="Монета_3_">
			
				<rect id="Монета_4_" x="7.77" y="237.76" fill="#FFFFFF" stroke="#1F7BC0" stroke-miterlimit="10" width="75" height="10"/>
			<g id="Рёбра_1_">
				<line fill="none" stroke="#1F7BC0" stroke-miterlimit="10" x1="9.708" y1="239.422" x2="9.708" y2="246.109"/>
				<line fill="none" stroke="#1F7BC0" stroke-miterlimit="10" x1="11.395" y1="239.422" x2="11.395" y2="246.109"/>
				<line fill="none" stroke="#1F7BC0" stroke-miterlimit="10" x1="13.208" y1="239.422" x2="13.208" y2="246.109"/>
				<line fill="none" stroke="#1F7BC0" stroke-miterlimit="10" x1="15.27" y1="239.422" x2="15.27" y2="246.109"/>
				<line fill="none" stroke="#1F7BC0" stroke-miterlimit="10" x1="17.583" y1="239.422" x2="17.583" y2="246.109"/>
				<line fill="none" stroke="#1F7BC0" stroke-miterlimit="10" x1="20.083" y1="239.422" x2="20.083" y2="246.109"/>
				<line fill="none" stroke="#1F7BC0" stroke-miterlimit="10" x1="23.52" y1="239.422" x2="23.52" y2="246.109"/>
				<line fill="none" stroke="#1F7BC0" stroke-miterlimit="10" x1="27.27" y1="239.422" x2="27.27" y2="246.109"/>
				<line fill="none" stroke="#1F7BC0" stroke-miterlimit="10" x1="31.604" y1="239.422" x2="31.604" y2="246.109"/>
				<line fill="none" stroke="#1F7BC0" stroke-miterlimit="10" x1="81.104" y1="239.422" x2="81.104" y2="246.109"/>
				<line fill="none" stroke="#1F7BC0" stroke-miterlimit="10" x1="79.02" y1="239.422" x2="79.02" y2="246.109"/>
				<line fill="none" stroke="#1F7BC0" stroke-miterlimit="10" x1="75.77" y1="239.422" x2="75.77" y2="246.109"/>
				<line fill="none" stroke="#1F7BC0" stroke-miterlimit="10" x1="71.395" y1="239.422" x2="71.395" y2="246.109"/>
				<line fill="none" stroke="#1F7BC0" stroke-miterlimit="10" x1="66.312" y1="239.422" x2="66.312" y2="246.109"/>
			</g>
		</g>
		<g id="Монета_5_">
			
				<rect id="Монета_6_" x="7.77" y="227.76" fill="#FFFFFF" stroke="#1F7BC0" stroke-miterlimit="10" width="75" height="10"/>
			<g id="Рёбра_2_">
				<line fill="none" stroke="#1F7BC0" stroke-miterlimit="10" x1="9.708" y1="229.422" x2="9.708" y2="236.109"/>
				<line fill="none" stroke="#1F7BC0" stroke-miterlimit="10" x1="11.395" y1="229.422" x2="11.395" y2="236.109"/>
				<line fill="none" stroke="#1F7BC0" stroke-miterlimit="10" x1="13.208" y1="229.422" x2="13.208" y2="236.109"/>
				<line fill="none" stroke="#1F7BC0" stroke-miterlimit="10" x1="15.27" y1="229.422" x2="15.27" y2="236.109"/>
				<line fill="none" stroke="#1F7BC0" stroke-miterlimit="10" x1="17.583" y1="229.422" x2="17.583" y2="236.109"/>
				<line fill="none" stroke="#1F7BC0" stroke-miterlimit="10" x1="20.083" y1="229.422" x2="20.083" y2="236.109"/>
				<line fill="none" stroke="#1F7BC0" stroke-miterlimit="10" x1="23.52" y1="229.422" x2="23.52" y2="236.109"/>
				<line fill="none" stroke="#1F7BC0" stroke-miterlimit="10" x1="27.27" y1="229.422" x2="27.27" y2="236.109"/>
				<line fill="none" stroke="#1F7BC0" stroke-miterlimit="10" x1="31.604" y1="229.422" x2="31.604" y2="236.109"/>
				<line fill="none" stroke="#1F7BC0" stroke-miterlimit="10" x1="81.104" y1="229.422" x2="81.104" y2="236.109"/>
				<line fill="none" stroke="#1F7BC0" stroke-miterlimit="10" x1="79.02" y1="229.422" x2="79.02" y2="236.109"/>
				<line fill="none" stroke="#1F7BC0" stroke-miterlimit="10" x1="75.77" y1="229.422" x2="75.77" y2="236.109"/>
				<line fill="none" stroke="#1F7BC0" stroke-miterlimit="10" x1="71.395" y1="229.422" x2="71.395" y2="236.109"/>
				<line fill="none" stroke="#1F7BC0" stroke-miterlimit="10" x1="66.312" y1="229.422" x2="66.312" y2="236.109"/>
			</g>
		</g>
	</g>
	<g id="Монета_фас">
		<path fill="#1F7BC0" d="M44.99,227.578c-20.82,0-37.759-16.939-37.759-37.76s16.939-37.76,37.759-37.76
			c20.821,0,37.76,16.939,37.76,37.76S65.812,227.578,44.99,227.578 M44.99,152.916c-20.347,0-36.901,16.555-36.901,36.902
			S24.643,226.72,44.99,226.72c20.348,0,36.902-16.554,36.902-36.901S65.338,152.916,44.99,152.916"/>
		<path fill="#FFFFFF" stroke="#1F7BC0" stroke-miterlimit="10" d="M28.394,164.245v2.181c0.702,0.353,1.505,0.693,2.408,1.018
			c0.903,0.326,1.907,0.616,3.011,0.865v18.126h-6.045v3.287h6.045v2.181h-6.045v3.288h6.045v17.745
			c-0.954,0.2-1.881,0.451-2.786,0.752c-0.902,0.301-1.781,0.653-2.633,1.055v2.181h19.114v-2.175
			c-2.107-0.899-4.264-1.499-6.471-1.801V195.19h12.04l1.83,4.539h1.732c0.098-1.152,0.301-4.451,0.301-5.83
			c0-0.669-0.007-1.332-0.021-1.991l-0.007-0.006H41.037v-2.181h15.875l0.007-0.006c0.014-0.656,0.021-1.32,0.021-1.989
			c0-1.381-0.203-5.306-0.301-6.458h-1.732l-1.83,5.166h-12.04v-18.276h16.782l3.085,8.277h1.956
			c0.252-2.055,0.439-4.112,0.565-6.17c0.124-2.057,0.212-4.065,0.263-6.021H28.394z"/>
		<circle fill="none" stroke="#1F7BC0" stroke-miterlimit="10" cx="45.133" cy="189.854" r="34.969"/>
		<polygon fill="#FFFFFF" stroke="#1F7BC0" stroke-miterlimit="10" points="69.398,190.323 70.846,190.112 71.492,188.801 
			72.141,190.112 73.588,190.323 72.541,191.344 72.789,192.786 71.492,192.105 70.198,192.786 70.445,191.344 		"/>
		<polygon fill="#FFFFFF" stroke="#1F7BC0" stroke-miterlimit="10" points="68.861,182.499 69.967,182.338 70.461,181.336 
			70.955,182.338 72.062,182.499 71.262,183.279 71.45,184.38 70.461,183.86 69.472,184.38 69.661,183.279 		"/>
		<polygon fill="#FFFFFF" stroke="#1F7BC0" stroke-miterlimit="10" points="68.861,197.95 69.967,197.79 70.461,196.787 
			70.955,197.79 72.062,197.95 71.262,198.73 71.45,199.832 70.461,199.312 69.472,199.832 69.661,198.73 		"/>
		<polygon fill="#FFFFFF" stroke="#1F7BC0" stroke-miterlimit="10" points="21.248,190.323 19.8,190.113 19.152,188.801 
			18.505,190.113 17.057,190.323 18.105,191.345 17.857,192.786 19.152,192.105 20.447,192.786 20.2,191.345 		"/>
		<polygon fill="#FFFFFF" stroke="#1F7BC0" stroke-miterlimit="10" points="21.785,182.499 20.679,182.338 20.184,181.336 
			19.69,182.338 18.584,182.499 19.384,183.279 19.195,184.38 20.184,183.86 21.173,184.38 20.985,183.279 		"/>
		<polygon fill="#FFFFFF" stroke="#1F7BC0" stroke-miterlimit="10" points="21.785,197.95 20.679,197.79 20.184,196.788 
			19.69,197.79 18.584,197.95 19.384,198.73 19.195,199.832 20.184,199.312 21.173,199.832 20.985,198.73 		"/>
	</g>
</g>
</svg>
